<?xml version="1.0" encoding="utf-8"?>
<!-- Generator: Adobe Illustrator 18.0.0, SVG Export Plug-In . SVG Version: 6.00 Build 0)  -->
<!DOCTYPE svg PUBLIC "-//W3C//DTD SVG 1.1//EN" "http://www.w3.org/Graphics/SVG/1.1/DTD/svg11.dtd">
<svg version="1.1" id="Layer_1" xmlns="http://www.w3.org/2000/svg" xmlns:xlink="http://www.w3.org/1999/xlink" x="0px" y="0px"
	 viewBox="77.6 41.3 41.8 118" enable-background="new 77.6 41.3 41.8 118" xml:space="preserve">
<g>
	<g>
		<path fill="#4D4D4D" d="M82.2,48.1c0,0,0,0.1-0.1,0.2c0,0.1-0.1,0.2-0.1,0.2c0,0.1-0.1,0.2-0.1,0.2c0,0.1-0.1,0.2-0.1,0.3
			c-0.1,0.1-0.2,0.1-0.2,0.1c-0.1,0-0.2,0-0.2,0s-0.1,0-0.1,0c0,0-0.1,0-0.1-0.1c0,0,0-0.1,0-0.1c0-0.1,0-0.2,0-0.2s0-0.2,0.1-0.2
			c0.1-0.1,0.2-0.1,0.3-0.1c0.1,0,0.2-0.1,0.2-0.1c0.1,0,0.2-0.1,0.2-0.1C82.1,48,82.2,48,82.2,48.1C82.1,48,82.2,48,82.2,48.1
			C82.2,48,82.2,48.1,82.2,48.1z"/>
	</g>
	<g>
		<path fill="#4D4D4D" d="M79.4,42.9c0,0,0,0.1,0,0.3c0,0.2-0.1,0.5-0.3,0.7c-0.1,0.1-0.1,0.3-0.2,0.4c-0.1,0.1-0.2,0.1-0.4,0.1
			c-0.2,0-0.5-0.1-0.5-0.1c0,0-0.1-0.1-0.1-0.1l0,0c0,0,0.1-0.1,0.1-0.2s0.1-0.2,0.1-0.3c0-0.1,0.1-0.2,0.2-0.2s0.2-0.1,0.3-0.1
			s0.2-0.1,0.3-0.2s0.2-0.1,0.2-0.2C79.2,43,79.3,42.9,79.4,42.9C79.3,42.8,79.3,42.8,79.4,42.9C79.4,42.9,79.4,42.9,79.4,42.9
			L79.4,42.9z"/>
	</g>
	<g>
		<path fill="#4D4D4D" d="M86.6,45.9c0,0,0,0.2-0.1,0.4c0,0.1-0.1,0.3-0.1,0.5c0,0.2-0.1,0.3-0.2,0.5c-0.1,0.2-0.1,0.4-0.2,0.5
			s-0.2,0.2-0.4,0.3c-0.3,0.1-0.6,0.1-0.6,0.1c0,0-0.1,0-0.1-0.1l0,0c0,0,0-0.1,0-0.2c0-0.1,0-0.2,0.1-0.3c0-0.1,0.1-0.3,0.2-0.4
			c0.1-0.1,0.2-0.2,0.3-0.3c0.1-0.1,0.2-0.2,0.3-0.4c0.1-0.1,0.2-0.2,0.2-0.3c0.2-0.2,0.2-0.4,0.2-0.4
			C86.4,45.9,86.5,45.9,86.6,45.9C86.5,45.8,86.6,45.9,86.6,45.9L86.6,45.9z"/>
	</g>
	<g>
		<path fill="#4D4D4D" d="M83,41.6c0,0,0,0.2,0,0.5c0,0.1,0,0.3,0,0.5c0,0.2-0.1,0.3-0.1,0.5c0,0.2-0.1,0.4-0.1,0.5
			c-0.1,0.2-0.2,0.3-0.3,0.4c-0.2,0.2-0.5,0.2-0.5,0.2c0,0-0.1,0-0.1-0.1l0,0c0,0,0-0.1,0-0.2s0-0.2,0-0.4c0-0.1,0-0.3,0.1-0.4
			c0.1-0.1,0.2-0.2,0.3-0.4c0.2-0.3,0.3-0.6,0.5-0.8c0.1-0.2,0.2-0.4,0.2-0.4C82.9,41.6,82.9,41.6,83,41.6C83,41.6,83,41.6,83,41.6
			L83,41.6z"/>
	</g>
	<g>
		<path fill="#4D4D4D" d="M106.5,47.1C106.5,47.1,106.6,47.2,106.5,47.1c0.1,0.2,0.2,0.2,0.2,0.3c0.1,0.1,0.2,0.2,0.3,0.3
			c0.1,0.1,0.2,0.2,0.3,0.3s0.3,0.2,0.4,0.2c0.1,0.1,0.2,0.2,0.2,0.3c0,0.1,0.1,0.1,0.1,0.2c0,0.1,0.1,0.1,0.1,0.1
			c0.1,0.1,0.1,0.2,0.1,0.2l0,0c0,0,0,0.1,0,0.1c0,0-0.1,0-0.2,0.1c-0.1,0-0.2,0.1-0.4,0.1s-0.4-0.1-0.5-0.2
			c-0.2-0.1-0.2-0.3-0.3-0.5c-0.1-0.2-0.2-0.3-0.2-0.5c-0.1-0.2-0.1-0.3-0.1-0.5c0-0.1,0-0.1,0-0.2s0-0.1,0-0.2
			C106.5,47.2,106.5,47.2,106.5,47.1C106.5,47.1,106.5,47.1,106.5,47.1C106.5,47.1,106.5,47.1,106.5,47.1z"/>
	</g>
	<g>
		<path fill="#4D4D4D" d="M100.4,46.5c0,0,0.1,0.1,0.2,0.2c0.2,0.1,0.3,0.3,0.6,0.5c0.1,0.1,0.2,0.1,0.3,0.2
			c0.1,0.1,0.1,0.2,0.1,0.3c0,0.1,0,0.2,0,0.3s0,0.2,0,0.2l0,0c0,0,0,0.1-0.1,0.1c0,0-0.2,0.1-0.5,0c-0.1,0-0.2-0.1-0.3-0.2
			c-0.1-0.1-0.1-0.2-0.2-0.4c-0.1-0.1-0.1-0.2-0.1-0.4c0-0.1-0.1-0.2-0.1-0.3C100.4,46.8,100.3,46.6,100.4,46.5L100.4,46.5
			C100.3,46.6,100.4,46.6,100.4,46.5C100.4,46.5,100.4,46.5,100.4,46.5z"/>
	</g>
	<g>
		<path fill="#4D4D4D" d="M97.8,43.8c0,0,0,0.1,0,0.3c0,0.1,0,0.2,0,0.3c0,0.1,0,0.2-0.1,0.3c0,0.1,0,0.2-0.1,0.4
			c0,0.1-0.1,0.2-0.2,0.2c-0.1,0.1-0.2,0.1-0.3,0.1c-0.1,0-0.2,0-0.2,0c0,0-0.1,0-0.1,0c0,0,0-0.1-0.1-0.1s-0.1-0.2-0.1-0.3
			c0-0.1,0-0.2,0-0.3c0.1-0.1,0.2-0.2,0.2-0.3c0.1-0.1,0.2-0.2,0.2-0.3c0.1-0.1,0.2-0.2,0.2-0.2C97.6,43.8,97.7,43.7,97.8,43.8
			C97.7,43.7,97.8,43.7,97.8,43.8C97.8,43.8,97.8,43.8,97.8,43.8z"/>
	</g>
	<g>
		<path fill="#4D4D4D" d="M91.9,42.7c0,0,0.1,0.2,0.1,0.4c0,0.1,0,0.3,0,0.4c0,0.2,0,0.3-0.1,0.5c0,0.2,0,0.3-0.1,0.5
			s-0.2,0.2-0.3,0.3c-0.2,0.2-0.5,0.2-0.5,0.2c0,0-0.1,0-0.1-0.1l0,0c0,0,0-0.1,0-0.2c0-0.1,0-0.2,0-0.3s0-0.3,0.1-0.4
			s0.2-0.2,0.3-0.3c0.2-0.3,0.3-0.5,0.5-0.8C91.8,42.8,91.9,42.7,91.9,42.7C91.9,42.7,91.9,42.6,91.9,42.7
			C91.9,42.7,91.9,42.7,91.9,42.7L91.9,42.7z"/>
	</g>
	<g>
		<path fill="#4D4D4D" d="M109.4,42.2c0,0,0,0.1,0.1,0.2c0,0,0,0.1,0.1,0.2s0.1,0.1,0.1,0.2c0,0.1,0.1,0.2,0.1,0.2
			c0.1,0.1,0.1,0.2,0.2,0.2c0.1,0.1,0.1,0.2,0.2,0.2c0.1,0.1,0.1,0.2,0.2,0.2c0.2,0.1,0.3,0.2,0.5,0.3s0.2,0.2,0.3,0.3
			c0.1,0.1,0.1,0.1,0.2,0.2c0,0.1,0.1,0.1,0.1,0.1c0.1,0.1,0.1,0.1,0.1,0.1l0,0c0,0,0,0.1,0,0.1l0,0c0,0-0.1,0.1-0.2,0.1
			c-0.1,0-0.1,0-0.2,0.1c-0.1,0-0.2,0-0.3,0c-0.2,0-0.4-0.1-0.7-0.2c-0.1-0.1-0.2-0.2-0.2-0.3c-0.1-0.1-0.2-0.2-0.2-0.3
			c-0.1-0.2-0.2-0.4-0.3-0.7c-0.1-0.2-0.1-0.4-0.1-0.6c0-0.1,0-0.2,0-0.2c0-0.1,0-0.1,0-0.2c0-0.1,0-0.2,0-0.2
			C109.2,42.2,109.3,42.1,109.4,42.2C109.4,42.2,109.4,42.2,109.4,42.2z"/>
	</g>
	<g>
		<path fill="#4D4D4D" d="M116.8,41.4c0,0,0.1,0.2,0.3,0.5c0.1,0.2,0.2,0.3,0.2,0.5c0.1,0.2,0.2,0.3,0.3,0.5
			c0.1,0.1,0.1,0.1,0.2,0.2c0.1,0,0.2,0.1,0.2,0.2c0.2,0.1,0.3,0.3,0.4,0.4c0.1,0.2,0.2,0.3,0.2,0.4c0,0.1,0.1,0.2,0.1,0.2
			c0,0,0,0.1-0.1,0.1l0,0c0,0-0.3,0.1-0.7,0c-0.2-0.1-0.4-0.1-0.6-0.3c-0.1-0.1-0.2-0.2-0.2-0.3c-0.1-0.1-0.2-0.2-0.2-0.3
			c-0.1-0.2-0.2-0.5-0.2-0.8c0-0.2,0-0.4-0.1-0.6C116.7,41.6,116.7,41.4,116.8,41.4C116.7,41.4,116.7,41.3,116.8,41.4
			C116.7,41.3,116.8,41.3,116.8,41.4z"/>
	</g>
	<g>
		<g>
			<path fill="#E8BF97" d="M79.4,41.6v91.2c0,0,0,4,3.5,4c4.2,0,4.2-3.2,4.6-3.3c0.3,0-0.7,5.7,4.1,5.7c4.1,0,3.7-4.8,3.8-4.8
				c0.2,0-0.5,7.5,3.8,7.5c4.3,0,3.7-7.2,3.8-7.2c0.2,0,0,18.6,0,18.6s-0.2,5.5,4.1,5.5c4.1,0,3.8-5.5,3.8-5.5l-0.2-21.8
				c0,0,7.1-0.9,7.1-6.6c0-5.7,0-83.3,0-83.3"/>
			<path fill="#4D4D4D" d="M79.3,41.7l0.2,12l0.2,12l0.2,12l0,12v24.1v12v6v0.8v0.2l0,0.1l0,0.1c0,0.1,0,0.2,0,0.3
				c0.1,0.4,0.2,0.9,0.3,1.3c0.2,0.4,0.4,0.8,0.7,1c0.1,0.2,0.3,0.2,0.5,0.3c0.2,0.1,0.3,0.2,0.6,0.2c0.2,0.1,0.4,0.1,0.6,0.1h0.1h0
				h0H83c0.1,0,0.2,0,0.3,0c0.4,0,0.9-0.1,1.3-0.3c0.8-0.3,1.4-0.9,1.8-1.7c0.1-0.2,0.2-0.4,0.3-0.7c0,0,0-0.1,0.1-0.1
				c0,0,0,0,0-0.1c0,0,0-0.1,0.1-0.1s0.1-0.1,0.2-0.2c0.3,0,0.3-0.2,0.7,0.1c0.2,0.2,0.2,0.2,0.2,0.3s0,0.1,0,0.1c0,0.2,0,0.3,0,0.5
				c0,0.5,0,1,0.1,1.4c0.1,0.9,0.4,1.8,1,2.3c0.6,0.6,1.4,0.8,2.3,0.8c0.9,0,1.7-0.3,2.2-0.9c0.5-0.6,0.8-1.5,0.9-2.5l0-0.4
				c0-0.1,0-0.2,0.1-0.4c0,0,0-0.1,0-0.1c0.1,0-0.1-0.1,0.3-0.4c1-0.2,0.8,0.4,0.9,0.4c0,0.1,0,0.1,0,0.1c0,0.1,0,0.2,0,0.2l0,0.4
				c0,0.5,0,1,0.1,1.5c0.1,1,0.2,1.9,0.6,2.8c0.3,0.8,0.8,1.6,1.6,1.8c0.3,0.2,0.8,0.2,1.2,0.2c0.4,0,0.8-0.2,1.1-0.4
				c0.7-0.4,1.1-1.2,1.3-2.1c0.3-0.9,0.4-1.8,0.4-2.8c0-0.2,0-0.5,0-0.7v-0.4v-0.1v-0.1c0,0,0,0,0-0.2c-0.3-0.6,2,0,1.2,0.1
				c0,0.1,0,0.1,0,0.1v0.1c0,0.5,0,1,0,1.5c0,2,0,4,0,6l0,6l0,3v1.5c0,0.5,0,1,0,1.4c0.1,0.9,0.3,1.8,0.8,2.6c0.5,0.7,1.2,1.2,2,1.3
				c0.2,0,0.4,0,0.6,0h0.2h0.1h0.1c0.1,0,0.2,0,0.3-0.1c0.4-0.1,0.8-0.2,1.1-0.5c0.6-0.5,1-1.3,1.2-2.2c0.1-0.4,0.2-0.9,0.2-1.4
				c0-0.2,0-0.5,0-0.7v-0.8l0-3l-0.1-6l-0.1-12v-0.5l0.6-0.1c0.4-0.1,0.9-0.2,1.3-0.3c0.4-0.1,0.9-0.3,1.3-0.5
				c0.8-0.3,1.7-0.8,2.3-1.4c0.7-0.6,1.2-1.3,1.4-2.2c0.2-0.4,0.2-0.8,0.2-1.3l-0.1-0.3l-0.1-0.4v-0.6V112V88.6l0.1-5.9
				c0-2,0-3.9,0-5.9l0.2-11.7l0.2-11.7l0.2-11.7l0.2,11.7l0.2,11.7l0.2,11.7c0,2-0.1,3.9-0.1,5.9l-0.1,5.9V112v11.7v0.7l0.1,0.4
				l0,0.4c0,0.5-0.1,1.1-0.3,1.6c-0.3,1-1,2-1.8,2.7s-1.7,1.2-2.7,1.7c-0.5,0.2-1,0.4-1.4,0.5c-0.5,0.2-1,0.2-1.5,0.3l0.5-0.6
				l0.1,12l0.1,6l0,3v0.7c0,0.3,0,0.6,0,0.8c0,0.5-0.1,1.1-0.2,1.6c-0.1,0.5-0.3,1.1-0.6,1.6c-0.2,0.5-0.6,1-1.1,1.4
				c-0.5,0.4-1,0.7-1.6,0.8c-0.1,0-0.3,0.1-0.4,0.1h-0.1h-0.1h-0.2c-0.3,0-0.6,0-0.9-0.1c-0.6-0.1-1.2-0.3-1.7-0.6
				c-0.5-0.3-0.9-0.8-1.2-1.2c-0.6-1-0.9-2-1-3.1c0-0.3-0.1-0.5-0.1-0.8s0-0.5,0-0.8v-1.5l0-3l0-6c0-2,0-4,0-6c0-0.5,0-1,0-1.5v-0.1
				c0,0,0,0,0,0c-0.8,0.1,1.5,0.6,1.2,0.1c0-0.1,0-0.1,0-0.1v0v0.1v0.4c0,0.2,0,0.5,0,0.8c-0.1,1-0.2,2.1-0.5,3.1
				c-0.2,0.5-0.4,1-0.7,1.5s-0.7,0.9-1.2,1.3c-0.5,0.3-1.1,0.5-1.7,0.6c-0.6,0.1-1.2,0-1.8-0.2c-0.6-0.2-1.1-0.6-1.4-1.1
				c-0.4-0.5-0.6-1-0.8-1.5c-0.4-1-0.6-2.1-0.7-3.1c-0.1-0.5-0.1-1-0.1-1.5l0-0.4c0-0.1,0-0.1,0-0.1v0c0.2,0-0.1,0.5,0.8,0.3
				c0.4-0.3,0.2-0.3,0.3-0.3c0,0,0,0,0,0c0,0.1,0,0.2,0,0.3l0,0.4c-0.1,1-0.4,2.2-1.2,3.1c-0.4,0.5-0.9,0.8-1.4,1.1
				c-0.6,0.2-1.2,0.3-1.7,0.3c-0.6,0-1.1-0.1-1.7-0.2c-0.6-0.2-1.1-0.5-1.5-0.9c-0.4-0.4-0.7-0.9-0.9-1.5c-0.2-0.5-0.3-1.1-0.4-1.6
				c-0.1-0.5-0.1-1.1-0.1-1.6c0-0.1,0-0.2,0-0.3c0,0,0,0,0,0c0,0,0,0,0.2,0.2c0.4,0.2,0.3,0.1,0.6,0.1c0.2-0.1,0.1-0.1,0.2-0.1
				c0,0,0,0,0,0l0,0c0,0,0,0,0,0c-0.1,0.2-0.2,0.5-0.3,0.7c-0.2,0.5-0.6,1-1,1.4c-0.4,0.4-0.9,0.7-1.5,0.9c-0.5,0.2-1.1,0.3-1.6,0.4
				c-0.2,0-0.3,0-0.4,0h-0.2h-0.1c-0.1,0,0,0-0.1,0h-0.1c-0.3,0-0.6,0-0.9-0.1c-0.3-0.1-0.6-0.2-0.8-0.3c-0.2-0.2-0.5-0.3-0.8-0.5
				c-0.4-0.4-0.8-0.9-1-1.4c-0.2-0.5-0.4-1.1-0.4-1.6c0-0.1,0-0.3,0-0.4l0-0.1l0-0.1v-0.2v-0.8v-6v-11.9v-24l-0.1-12l0.2-12l0.2-12
				L79.3,41.7z"/>
		</g>
		<path fill="#F2DBC9" stroke="#4D4D4D" stroke-width="2" stroke-linecap="round" stroke-miterlimit="10" d="M109.4,154.7
			c0,0-0.3,2.2-2.4,2.2c-2.1,0-2.3-2.2-2.3-2.2s0.8-0.8,2.4-0.8C108.6,153.9,109.4,154.7,109.4,154.7z"/>
		<g>
			<path fill="#4D4D4D" d="M117.6,89.8c0,0,0.1,0.1,0.3,0.3c0.1,0.1,0.2,0.2,0.3,0.3s0.2,0.2,0.3,0.3c0.1,0,0.1,0.1,0.2,0.1
				c0.1,0,0.1,0,0.2,0.1c0.1,0,0.1,0.1,0.1,0.1c0,0,0.1,0.1,0.1,0.1c0,0,0.1,0.1,0.1,0.1c0,0,0.1,0.1,0.1,0.1
				c0.1,0.1,0.1,0.1,0.1,0.1l0,0c0,0,0,0.1,0,0.1c0,0,0,0.1-0.1,0.1c0,0-0.1,0.1-0.2,0.1c-0.1,0-0.2,0-0.2,0.1c-0.1,0-0.2,0-0.2,0
				c-0.1,0-0.2-0.1-0.2-0.1c-0.2-0.1-0.2-0.3-0.4-0.4c-0.1-0.2-0.2-0.3-0.3-0.5c-0.1-0.2-0.1-0.3-0.2-0.4
				C117.5,90,117.5,89.8,117.6,89.8C117.5,89.8,117.5,89.8,117.6,89.8C117.6,89.8,117.6,89.8,117.6,89.8z"/>
		</g>
		<g>
			<path fill="#4D4D4D" d="M80.1,89.8c0,0,0,0,0,0.1c0,0.1-0.1,0.2-0.1,0.3c-0.1,0.2-0.3,0.6-0.5,0.9c-0.1,0.1-0.1,0.2-0.2,0.2
				s-0.1,0.1-0.2,0.2c-0.2,0.1-0.3,0.1-0.5,0.1c-0.2,0-0.3-0.1-0.4-0.1C78,91.5,78,91.4,78,91.4c0,0,0-0.1,0-0.1l0,0
				c0,0,0-0.1,0.1-0.1c0,0,0.1-0.1,0.1-0.1c0,0,0.1-0.1,0.1-0.1c0.1-0.1,0.2-0.2,0.3-0.2c0.1-0.1,0.3-0.1,0.4-0.1
				c0.1-0.1,0.2-0.2,0.4-0.2c0.1-0.1,0.2-0.2,0.3-0.3c0.1-0.1,0.2-0.2,0.2-0.2C80,89.9,80,89.9,80.1,89.8
				C80.1,89.8,80.1,89.8,80.1,89.8C80.1,89.8,80.1,89.8,80.1,89.8z"/>
		</g>
		<g>
			<path fill="#4D4D4D" d="M86.2,91.8c0,0,0.1,0.1,0,0.3c0,0.1,0,0.2,0,0.3c0,0.1-0.1,0.3-0.1,0.3c0,0.1,0,0.3-0.1,0.4
				c-0.1,0.1-0.2,0.2-0.3,0.2c-0.2,0.1-0.4,0-0.4,0c0,0-0.1,0-0.1-0.1l0,0c0,0,0-0.1,0-0.1c0-0.1,0-0.2,0-0.3s0-0.2,0.1-0.3
				c0.1-0.1,0.2-0.1,0.3-0.2c0.2-0.2,0.3-0.3,0.5-0.4C86.1,91.8,86.2,91.7,86.2,91.8C86.3,91.7,86.2,91.7,86.2,91.8
				C86.3,91.7,86.2,91.7,86.2,91.8L86.2,91.8z"/>
		</g>
		<g>
			<path fill="#4D4D4D" d="M85.3,77.4c0,0,0,0,0,0.1c0,0.1,0,0.2,0,0.3c0,0.1,0,0.2,0.1,0.4c0,0.1,0.1,0.3,0.2,0.4
				c0.1,0.1,0.2,0.2,0.2,0.3c0.1,0.1,0.1,0.2,0.1,0.3c0,0,0,0.1,0,0.2c0,0,0,0.1,0,0.2c0,0.1,0,0.2,0,0.2l0,0c0,0,0,0.1,0,0.1
				c0,0-0.1,0-0.2,0.1c-0.1,0-0.1,0-0.2,0c-0.1,0-0.2,0-0.2-0.1c-0.2-0.1-0.3-0.2-0.4-0.4c-0.1-0.1-0.1-0.2-0.1-0.3
				c0-0.1,0-0.2,0-0.3c0-0.2,0-0.4,0-0.6c0-0.1,0-0.2,0.1-0.2c0-0.1,0.1-0.2,0.1-0.2c0.1-0.1,0.1-0.2,0.2-0.3
				C85.3,77.4,85.3,77.4,85.3,77.4C85.3,77.4,85.3,77.4,85.3,77.4C85.3,77.4,85.3,77.4,85.3,77.4z"/>
		</g>
		<g>
			<path fill="#4D4D4D" d="M83,73.1c0,0,0,0.1,0,0.3c0,0.1,0,0.2,0,0.3c0,0.1-0.1,0.2-0.1,0.3c0,0.1-0.1,0.2-0.1,0.3
				s-0.2,0.1-0.3,0.1c-0.2,0-0.4-0.1-0.4-0.1c0,0-0.1,0-0.1-0.1l0,0c0,0,0-0.1,0-0.1c0-0.1,0-0.2,0-0.3c0-0.1,0-0.2,0.1-0.2
				c0.1-0.1,0.2-0.1,0.2-0.1c0.1-0.1,0.2-0.1,0.2-0.2c0.1-0.1,0.2-0.1,0.2-0.2C82.8,73.2,82.9,73.1,83,73.1C82.9,73,82.9,73,83,73.1
				C83,73.1,83,73.1,83,73.1L83,73.1z"/>
		</g>
		<g>
			<path fill="#4D4D4D" d="M83,81.7c0,0,0,0.1-0.1,0.3c0,0.1-0.1,0.2-0.1,0.3c0,0.1-0.1,0.3-0.1,0.4c-0.1,0.1-0.1,0.3-0.1,0.4
				c-0.1,0.1-0.2,0.2-0.3,0.2c-0.1,0-0.2,0.1-0.3,0.1c-0.1,0-0.2,0-0.2,0c0,0-0.1,0-0.1-0.1c0,0,0-0.1-0.1-0.2s0-0.2,0-0.3
				s0-0.2,0.1-0.3c0.1-0.1,0.2-0.2,0.3-0.2c0.1-0.1,0.2-0.2,0.3-0.2c0.1-0.1,0.2-0.2,0.3-0.2C82.8,81.7,82.9,81.6,83,81.7
				C82.9,81.6,83,81.6,83,81.7C83,81.7,83,81.7,83,81.7z"/>
		</g>
		<g>
			<path fill="#4D4D4D" d="M91.6,76.5C91.6,76.5,91.6,76.5,91.6,76.5c0.1,0.2,0.1,0.2,0.2,0.3c0.1,0.1,0.1,0.2,0.2,0.3
				c0.1,0.1,0.2,0.2,0.2,0.3c0.1,0.1,0.2,0.1,0.3,0.2c0.1,0.1,0.1,0.2,0.1,0.2c0.1,0.2,0.2,0.4,0.2,0.4c0,0,0,0.1,0,0.1
				c0,0-0.1,0-0.1,0.1c-0.1,0-0.2,0.1-0.4,0.1c-0.2,0-0.3-0.1-0.4-0.2c-0.1-0.1-0.2-0.3-0.2-0.5c-0.1-0.2-0.1-0.3-0.1-0.5
				c0-0.2,0-0.3,0-0.4c0-0.1,0-0.2,0-0.3C91.5,76.6,91.5,76.5,91.6,76.5C91.5,76.5,91.5,76.5,91.6,76.5
				C91.6,76.5,91.6,76.5,91.6,76.5z"/>
		</g>
		<g>
			<path fill="#4D4D4D" d="M88.1,67.7c0,0,0,0.2-0.1,0.4c0,0.1-0.1,0.2-0.1,0.4c0,0.1-0.1,0.3-0.1,0.4c-0.1,0.1-0.1,0.3-0.1,0.4
				c-0.1,0.1-0.2,0.2-0.3,0.2c-0.1,0.1-0.2,0.1-0.3,0.1c-0.1,0-0.2,0-0.2,0c0,0-0.1,0-0.1-0.1c0,0,0-0.1-0.1-0.2
				c0-0.1-0.1-0.2-0.1-0.3c0-0.1,0-0.2,0.1-0.4c0.1-0.1,0.2-0.2,0.3-0.3c0.1-0.1,0.2-0.2,0.3-0.3c0.1-0.1,0.2-0.2,0.3-0.2
				c0.2-0.2,0.3-0.2,0.3-0.2C88,67.6,88.1,67.7,88.1,67.7C88.1,67.7,88.1,67.7,88.1,67.7z"/>
		</g>
		<g>
			<path fill="#4D4D4D" d="M92.3,67.5c0,0,0,0,0,0.1c0,0,0,0.1,0,0.1c0,0,0,0.1,0,0.2c0,0.1,0,0.1,0.1,0.2c0,0.1,0.1,0.1,0.1,0.2
				c0,0.1,0.1,0.1,0.1,0.2c0,0.1,0.1,0.1,0.1,0.2s0.1,0.1,0.2,0.1c0.1,0,0.1,0.1,0.2,0.1c0,0,0.1,0.1,0.1,0.1c0,0,0,0.1,0.1,0.1
				c0,0,0.1,0.1,0.1,0.1c0,0,0.1,0.1,0.1,0.1c0.1,0.1,0.1,0.1,0.1,0.1l0,0c0,0,0,0.1,0,0.1c0,0,0,0.1-0.1,0.2c0,0.1-0.1,0.1-0.2,0.1
				c-0.1,0-0.2,0.1-0.2,0.1c-0.1,0-0.2,0-0.3,0c-0.1,0-0.2-0.1-0.3-0.2c-0.1-0.1-0.2-0.2-0.2-0.3c-0.1-0.1-0.1-0.2-0.1-0.3
				c0-0.1-0.1-0.2-0.1-0.3c0-0.1,0-0.2,0-0.3c0-0.2,0-0.3,0-0.5c0-0.1,0-0.1,0.1-0.2s0-0.1,0.1-0.1C92.3,67.6,92.3,67.5,92.3,67.5
				C92.3,67.5,92.3,67.5,92.3,67.5C92.3,67.5,92.3,67.5,92.3,67.5z"/>
		</g>
		<g>
			<path fill="#4D4D4D" d="M88.4,83.2c0,0,0.1,0.1,0.3,0.3c0.1,0.1,0.2,0.2,0.2,0.3c0.1,0.1,0.2,0.2,0.3,0.3
				c0.1,0.1,0.2,0.2,0.3,0.3s0.1,0.3,0.1,0.4c0,0.1,0,0.2-0.1,0.3c0,0.1-0.1,0.2-0.1,0.2c0,0-0.1,0-0.1,0c0,0-0.1,0-0.2,0
				c-0.1,0-0.2-0.1-0.3-0.2c-0.1-0.1-0.2-0.2-0.3-0.3c-0.1-0.1-0.1-0.3-0.1-0.4c0-0.2-0.1-0.3-0.1-0.4c0-0.1-0.1-0.3-0.1-0.4
				c0-0.2-0.1-0.4-0.1-0.4C88.3,83.2,88.3,83.2,88.4,83.2C88.4,83.2,88.4,83.2,88.4,83.2z"/>
		</g>
		<g>
			<path fill="#4D4D4D" d="M81.6,96.2c0,0-0.1,0.1-0.1,0.2c-0.1,0.1-0.2,0.3-0.2,0.5c0,0.1-0.1,0.2-0.1,0.3
				c-0.1,0.1-0.2,0.1-0.2,0.1c-0.1,0-0.2,0-0.3,0c-0.1,0-0.1,0-0.1,0l0,0c0,0-0.1,0-0.1-0.1c0,0-0.1-0.2-0.1-0.4
				c0-0.1,0-0.2,0.1-0.3c0.1-0.1,0.2-0.1,0.3-0.2c0.1-0.1,0.2-0.1,0.3-0.2c0.1,0,0.2,0,0.3,0C81.5,96.2,81.6,96.2,81.6,96.2
				L81.6,96.2C81.7,96.2,81.7,96.2,81.6,96.2C81.6,96.2,81.6,96.2,81.6,96.2z"/>
		</g>
		<g>
			<path fill="#4D4D4D" d="M81.8,65.8c0,0-0.1,0.1-0.1,0.2c0,0.1-0.1,0.1-0.2,0.2c-0.1,0.1-0.1,0.1-0.2,0.2
				c-0.1,0.1-0.1,0.2-0.2,0.2c-0.1,0-0.2,0-0.2,0c-0.1,0-0.2-0.1-0.2-0.1c-0.1-0.1-0.1-0.1-0.1-0.1c0,0,0-0.1,0-0.1c0,0,0-0.1,0-0.1
				s0-0.2,0.1-0.2c0-0.1,0.1-0.2,0.2-0.2c0.1,0,0.2,0,0.2,0c0.1,0,0.2,0,0.2,0c0.1,0,0.2,0,0.2,0C81.7,65.7,81.8,65.7,81.8,65.8
				C81.8,65.7,81.8,65.7,81.8,65.8C81.8,65.8,81.8,65.8,81.8,65.8z"/>
		</g>
		<g>
			<path fill="#4D4D4D" d="M80.2,73.5c0,0,0,0,0,0.1c0,0,0,0.1,0,0.1c0,0.1,0,0.1,0,0.2c0,0.1,0,0.3,0,0.5s-0.1,0.3-0.2,0.5
				c0,0.1-0.1,0.2-0.1,0.3c0,0.1-0.1,0.2-0.2,0.3c-0.1,0.1-0.3,0.2-0.5,0.2c-0.1,0-0.2,0-0.2,0s-0.1,0-0.2-0.1
				c-0.1,0-0.2-0.1-0.2-0.1c0,0,0-0.1,0-0.1c0,0,0-0.1,0.1-0.1c0,0,0-0.1,0.1-0.1c0,0,0-0.1,0.1-0.2c0.1-0.1,0.1-0.2,0.2-0.3
				c0.1-0.1,0.2-0.1,0.3-0.2s0.2-0.2,0.2-0.3c0.1-0.1,0.2-0.2,0.2-0.3c0.1-0.1,0.1-0.2,0.1-0.2s0-0.1,0-0.1
				C80,73.5,80.1,73.5,80.2,73.5C80.2,73.5,80.2,73.5,80.2,73.5z"/>
		</g>
		<g>
			<path fill="#4D4D4D" d="M79.5,60c0,0,0,0.1-0.1,0.2c0,0.1-0.1,0.1-0.1,0.2c-0.1,0.1-0.1,0.2-0.2,0.2c-0.1,0.1-0.1,0.2-0.2,0.2
				c-0.1,0-0.2,0-0.2,0c-0.1,0-0.2-0.1-0.2-0.1c-0.1,0-0.1-0.1-0.1-0.1c0,0,0-0.1-0.1-0.1c0,0,0-0.1,0-0.1c0-0.1,0-0.2,0-0.2
				c0-0.1,0.1-0.2,0.1-0.2c0.1,0,0.2,0,0.3,0c0.1,0,0.2,0,0.2,0c0.1,0,0.2,0,0.3,0C79.3,59.9,79.4,59.9,79.5,60
				C79.4,59.9,79.5,60,79.5,60L79.5,60z"/>
		</g>
		<g>
			<path fill="#4D4D4D" d="M82.2,56.8c0,0,0.1,0.2,0,0.4c0,0.1,0,0.2-0.1,0.4s-0.1,0.3-0.2,0.4c-0.1,0.2-0.1,0.3-0.2,0.4
				c-0.1,0.1-0.2,0.2-0.4,0.2c-0.2,0.1-0.6,0-0.6,0c0,0-0.1,0-0.1-0.1l0,0c0,0,0.1-0.1,0.1-0.2c0-0.1,0.1-0.2,0.1-0.3
				c0-0.1,0.1-0.2,0.2-0.3c0.1-0.1,0.2-0.2,0.4-0.3c0.2-0.2,0.4-0.4,0.6-0.6C82.1,56.9,82.2,56.8,82.2,56.8
				C82.2,56.7,82.2,56.7,82.2,56.8C82.2,56.8,82.2,56.8,82.2,56.8L82.2,56.8z"/>
		</g>
		<g>
			<path fill="#4D4D4D" d="M85.5,59.4c0,0,0,0.1,0,0.3c0,0.1,0,0.2,0,0.3c0,0.1-0.1,0.2-0.1,0.4c-0.1,0.1-0.1,0.3-0.1,0.4
				c-0.1,0.1-0.2,0.2-0.3,0.2c-0.2,0.1-0.4,0-0.4,0c0,0-0.1,0-0.1-0.1l0,0c0,0,0-0.1,0-0.2c0-0.1,0-0.2,0-0.3s0-0.2,0.1-0.2
				s0.2-0.1,0.3-0.2c0.1-0.1,0.2-0.1,0.2-0.2c0.1-0.1,0.2-0.1,0.2-0.2C85.4,59.5,85.5,59.4,85.5,59.4C85.5,59.3,85.5,59.3,85.5,59.4
				C85.5,59.4,85.5,59.4,85.5,59.4L85.5,59.4z"/>
		</g>
		<g>
			<path fill="#4D4D4D" d="M79.3,68c0,0,0,0.1-0.1,0.3c-0.1,0.2-0.2,0.4-0.4,0.7c-0.1,0.1-0.2,0.2-0.3,0.3c-0.1,0.1-0.3,0.1-0.4,0
				c-0.2,0-0.4-0.2-0.4-0.2c0,0,0-0.1,0-0.1l0,0c0,0,0-0.1,0.1-0.1c0-0.1,0.1-0.2,0.1-0.2c0.1-0.1,0.1-0.2,0.2-0.2
				c0.1,0,0.2,0,0.3-0.1c0.1,0,0.2-0.1,0.3-0.1c0.1-0.1,0.2-0.1,0.3-0.1c0.2-0.1,0.3-0.2,0.3-0.2C79.2,67.9,79.2,67.9,79.3,68
				C79.3,67.9,79.3,67.9,79.3,68L79.3,68z"/>
		</g>
		<g>
			<path fill="#4D4D4D" d="M86.9,62.2c0,0,0,0.1,0,0.3c0,0.1,0,0.2-0.1,0.3s-0.1,0.2-0.1,0.4c0,0.1,0,0.3-0.1,0.4
				c-0.1,0.1-0.2,0.2-0.3,0.2c-0.1,0.1-0.2,0.1-0.3,0.1c-0.1,0-0.2,0-0.2,0c0,0-0.1,0-0.1-0.1c0,0,0-0.1-0.1-0.1
				c0-0.1,0-0.2-0.1-0.3c0-0.1,0-0.2,0.1-0.3c0.1-0.1,0.2-0.2,0.3-0.2c0.2-0.2,0.3-0.4,0.5-0.5c0.1-0.2,0.2-0.2,0.2-0.2
				C86.7,62.1,86.8,62.1,86.9,62.2C86.8,62.2,86.9,62.2,86.9,62.2L86.9,62.2z"/>
		</g>
		<g>
			<path fill="#4D4D4D" d="M84.8,97.5c0,0,0.1,0.1,0.2,0.2c0.1,0.1,0.1,0.1,0.2,0.2c0.1,0.1,0.1,0.1,0.2,0.2
				c0.1,0.1,0.2,0.1,0.2,0.1c0.1,0.1,0.1,0.2,0.1,0.2c0,0.1,0,0.2,0,0.2c0,0.1,0,0.1,0,0.1l0,0c0,0,0,0.1-0.1,0.1
				c0,0-0.2,0.1-0.4,0.1c-0.1,0-0.2-0.1-0.3-0.2c-0.1-0.1-0.1-0.2-0.1-0.3c-0.1-0.2-0.1-0.4-0.1-0.6S84.7,97.4,84.8,97.5L84.8,97.5
				C84.7,97.5,84.8,97.5,84.8,97.5L84.8,97.5z"/>
		</g>
		<g>
			<path fill="#4D4D4D" d="M80.3,102.4c0,0,0,0.1-0.2,0.3c-0.1,0.1-0.1,0.2-0.2,0.3c-0.1,0.1-0.2,0.2-0.3,0.3
				c-0.1,0.1-0.2,0.2-0.3,0.3c-0.1,0.1-0.3,0.1-0.4,0c-0.2,0-0.4-0.2-0.4-0.2c0,0,0-0.1,0-0.1l0,0c0,0,0-0.1,0.1-0.1
				c0-0.1,0.1-0.2,0.2-0.2c0.1-0.1,0.1-0.2,0.2-0.2c0.1,0,0.2,0,0.4-0.1c0.2-0.1,0.5-0.2,0.7-0.2C80.1,102.4,80.2,102.4,80.3,102.4
				C80.3,102.4,80.3,102.4,80.3,102.4C80.3,102.4,80.3,102.4,80.3,102.4L80.3,102.4z"/>
		</g>
		<g>
			<path fill="#4D4D4D" d="M83,102.4c0,0,0.1,0.1,0.2,0.3c0,0.1,0.1,0.2,0.1,0.4c0,0.1,0.1,0.3,0.1,0.4s0.1,0.3,0,0.5
				c0,0.2-0.1,0.2-0.2,0.3c-0.2,0.2-0.4,0.2-0.4,0.2c0,0-0.1,0-0.1,0l0,0c0,0,0-0.1-0.1-0.1c0-0.1-0.1-0.2-0.1-0.3
				c0-0.1-0.1-0.2,0-0.3c0-0.1,0.1-0.2,0.2-0.3c0.1-0.2,0.2-0.5,0.2-0.7C82.8,102.6,82.9,102.4,83,102.4
				C82.9,102.4,82.9,102.4,83,102.4C83,102.4,83,102.4,83,102.4L83,102.4z"/>
		</g>
		<g>
			<path fill="#4D4D4D" d="M91.3,98.6c0,0,0,0.2,0,0.4c0,0.1,0,0.3-0.1,0.4c0,0.2-0.1,0.3-0.1,0.5c0,0.2,0,0.3-0.1,0.5
				c-0.1,0.1-0.2,0.2-0.3,0.3c-0.2,0.2-0.5,0.2-0.5,0.2c0,0-0.1,0-0.1,0l0,0c0,0,0-0.1-0.1-0.2c0-0.1,0-0.2,0-0.3s0-0.3,0.1-0.4
				s0.2-0.2,0.3-0.3c0.2-0.2,0.4-0.5,0.5-0.7C91.2,98.7,91.2,98.6,91.3,98.6C91.3,98.5,91.3,98.5,91.3,98.6
				C91.3,98.6,91.3,98.6,91.3,98.6z"/>
		</g>
		<g>
			<path fill="#4D4D4D" d="M92.1,88.7c0,0,0.1,0.1,0.2,0.2c0.1,0.1,0.1,0.2,0.2,0.2c0.1,0.1,0.1,0.2,0.2,0.2
				c0.1,0.1,0.2,0.1,0.2,0.2C93,89.8,93,89.9,93,90s0,0.2,0,0.3c0,0.1,0,0.2,0,0.2l0,0c0,0,0,0.1-0.1,0.1c0,0-0.2,0.1-0.5,0
				c-0.1,0-0.2-0.1-0.3-0.2c-0.1-0.1-0.1-0.3-0.1-0.4C92,89.6,92,89.3,92,89.1C92,88.9,92,88.8,92.1,88.7L92.1,88.7
				C92,88.7,92.1,88.7,92.1,88.7C92.1,88.7,92.1,88.7,92.1,88.7z"/>
		</g>
		<g>
			<path fill="#4D4D4D" d="M94.3,82.7c0,0,0.1,0.1,0.2,0.2c0.1,0.1,0.2,0.3,0.4,0.4c0.1,0.1,0.2,0.1,0.2,0.2c0,0.1,0,0.2,0,0.2
				c0,0.1,0,0.2-0.1,0.2c0,0.1-0.1,0.1-0.1,0.1l0,0c0,0,0,0.1-0.1,0.1c0,0-0.2,0-0.4,0c-0.1,0-0.2-0.1-0.2-0.2
				c-0.1-0.1,0-0.2-0.1-0.3c0-0.1,0-0.2,0-0.3c0-0.1,0-0.2,0-0.3c0-0.2,0-0.3,0-0.3l0,0C94.2,82.7,94.2,82.7,94.3,82.7
				C94.3,82.7,94.3,82.7,94.3,82.7z"/>
		</g>
		<g>
			<path fill="#4D4D4D" d="M95.8,75c0,0,0.1,0.1,0.2,0.1c0.1,0,0.2,0.1,0.2,0.2c0.1,0.1,0.2,0.1,0.2,0.2c0.1,0.1,0.2,0.1,0.2,0.2
				c0.1,0.1,0.1,0.2,0,0.2c0,0.1,0,0.2-0.1,0.2c0,0.1-0.1,0.1-0.1,0.1c0,0-0.1,0-0.1,0.1c0,0-0.1,0-0.1,0c-0.1,0-0.2,0-0.3,0
				c-0.1,0-0.2-0.1-0.2-0.1c0-0.1,0-0.2-0.1-0.3s-0.1-0.2-0.1-0.3c0-0.1,0-0.2,0-0.3C95.7,75.2,95.7,75.1,95.8,75
				C95.7,75,95.7,75,95.8,75C95.8,75,95.8,75,95.8,75z"/>
		</g>
		<g>
			<path fill="#4D4D4D" d="M97.2,67.3C97.2,67.3,97.2,67.3,97.2,67.3c0.1,0.1,0.2,0.2,0.2,0.2c0.1,0.1,0.2,0.1,0.2,0.2
				c0.1,0,0.2,0.1,0.2,0.1c0.1,0,0.2,0,0.2,0c0.1,0,0.1,0.1,0.2,0.2c0.1,0.2,0.2,0.3,0.2,0.3c0,0,0,0.1,0,0.1c0,0,0,0.1-0.1,0.1
				c-0.1,0.1-0.2,0.1-0.3,0.2c-0.1,0-0.3,0.1-0.4,0c-0.1-0.1-0.2-0.2-0.3-0.3c-0.2-0.2-0.3-0.5-0.3-0.7c0-0.1,0-0.2,0-0.2
				S97.1,67.3,97.2,67.3C97.1,67.3,97.2,67.3,97.2,67.3C97.2,67.3,97.2,67.3,97.2,67.3z"/>
		</g>
		<g>
			<path fill="#4D4D4D" d="M89.7,56.8c0,0,0.1,0.2,0,0.4c-0.1,0.2-0.1,0.5-0.3,0.8c-0.1,0.1-0.1,0.3-0.2,0.4
				c-0.1,0.1-0.2,0.1-0.4,0.1c-0.2,0-0.5-0.1-0.5-0.1c0,0-0.1-0.1-0.1-0.1l0,0c0,0,0.1-0.1,0.1-0.2c0-0.1,0.1-0.2,0.1-0.3
				s0.1-0.2,0.2-0.2s0.2-0.1,0.3-0.2c0.1-0.1,0.2-0.1,0.3-0.2c0.1-0.1,0.2-0.2,0.3-0.2C89.6,56.8,89.7,56.7,89.7,56.8
				C89.8,56.7,89.7,56.7,89.7,56.8C89.8,56.8,89.7,56.8,89.7,56.8L89.7,56.8z"/>
		</g>
		<g>
			<path fill="#4D4D4D" d="M86.4,52.3c0,0,0,0.2-0.1,0.4c0,0.1-0.1,0.3-0.1,0.4c0,0.1-0.1,0.3-0.1,0.4c0,0.1-0.1,0.3-0.1,0.4
				C86,54,85.9,54,85.8,54.1c-0.1,0.1-0.2,0.1-0.3,0.1c-0.1,0-0.2,0-0.2,0c0,0-0.1,0-0.1,0c0,0,0-0.1-0.1-0.2s-0.1-0.2-0.1-0.3
				s0-0.2,0.1-0.4c0.1-0.1,0.2-0.2,0.3-0.3c0.1-0.1,0.2-0.2,0.3-0.3c0.1-0.1,0.2-0.2,0.3-0.2C86.2,52.3,86.3,52.3,86.4,52.3
				C86.4,52.2,86.4,52.3,86.4,52.3C86.4,52.2,86.4,52.3,86.4,52.3z"/>
		</g>
		<g>
			<path fill="#4D4D4D" d="M79.5,52.3C79.5,52.3,79.5,52.3,79.5,52.3c0,0.2,0,0.3,0,0.4c0,0.2-0.1,0.6-0.2,0.9
				c-0.1,0.2-0.1,0.3-0.2,0.5s-0.3,0.2-0.4,0.2c-0.2,0-0.3,0-0.4,0s-0.2-0.1-0.2-0.1c0,0,0-0.1,0-0.1l0,0c0,0,0-0.1,0-0.2
				c0,0,0-0.1,0-0.1c0,0,0-0.1,0.1-0.2c0-0.1,0.1-0.2,0.2-0.2c0.1-0.1,0.2-0.1,0.3-0.2c0.1-0.1,0.2-0.2,0.3-0.3
				c0.1-0.1,0.2-0.2,0.2-0.3c0.1-0.1,0.1-0.2,0.2-0.2C79.4,52.3,79.4,52.3,79.5,52.3C79.4,52.3,79.4,52.3,79.5,52.3
				C79.5,52.3,79.5,52.3,79.5,52.3z"/>
		</g>
		<g>
			<path fill="#4D4D4D" d="M84.3,86.3c0,0,0,0,0,0.1c0,0.1,0,0.2,0.1,0.3c0,0.2,0,0.6-0.1,1c0,0.1-0.1,0.2-0.1,0.3
				c0,0.1-0.1,0.2-0.1,0.2c-0.1,0.2-0.3,0.2-0.4,0.3s-0.3,0.1-0.4,0c-0.1,0-0.2-0.1-0.2-0.1c0,0-0.1-0.1,0-0.1l0,0c0,0,0-0.1,0-0.2
				c0,0,0-0.1,0-0.2s0-0.1,0-0.2c0-0.1,0.1-0.2,0.2-0.3c0.1-0.1,0.2-0.2,0.3-0.3c0.1-0.1,0.2-0.2,0.2-0.3c0.1-0.1,0.2-0.2,0.2-0.3
				c0.1-0.1,0.1-0.2,0.1-0.3C84.3,86.3,84.3,86.3,84.3,86.3C84.3,86.3,84.3,86.3,84.3,86.3C84.3,86.3,84.3,86.3,84.3,86.3z"/>
		</g>
		<g>
			<path fill="#4D4D4D" d="M88.9,93.6c0,0,0,0.1,0.1,0.3c0,0.2,0,0.5-0.1,0.8c0,0.1,0,0.3-0.1,0.4c-0.1,0.1-0.2,0.2-0.3,0.3
				c-0.2,0.1-0.5,0-0.5,0c0,0-0.1,0-0.1-0.1l0,0c0,0,0-0.1,0-0.2c0-0.1,0-0.2,0-0.3s0-0.2,0.1-0.3c0.1-0.1,0.2-0.1,0.2-0.2
				c0.1-0.1,0.2-0.2,0.2-0.3c0.1-0.1,0.1-0.2,0.2-0.2C88.7,93.8,88.8,93.7,88.9,93.6C88.8,93.6,88.8,93.6,88.9,93.6
				C88.9,93.6,88.9,93.6,88.9,93.6L88.9,93.6z"/>
		</g>
		<g>
			<path fill="#4D4D4D" d="M87.2,104.8c0,0,0,0.2,0,0.4c0,0.2,0,0.5-0.1,0.8c-0.1,0.2-0.1,0.3-0.1,0.4c-0.1,0.1-0.2,0.2-0.3,0.2
				c-0.2,0.1-0.5,0-0.5,0c0,0-0.1,0-0.1-0.1l0,0c0,0,0-0.1,0-0.2c0-0.1,0-0.2,0-0.3c0-0.1,0-0.2,0.1-0.3c0.1-0.1,0.2-0.2,0.3-0.2
				c0.1-0.1,0.2-0.2,0.2-0.3c0.1-0.1,0.2-0.2,0.2-0.3C87,104.9,87.1,104.8,87.2,104.8C87.1,104.7,87.1,104.7,87.2,104.8
				C87.2,104.8,87.2,104.8,87.2,104.8L87.2,104.8z"/>
		</g>
		<g>
			<path fill="#4D4D4D" d="M81,108.9c0,0,0,0.1-0.1,0.2c0,0.1-0.1,0.2-0.1,0.2c0,0.1-0.1,0.2-0.2,0.3c-0.1,0.1-0.1,0.2-0.1,0.3
				s-0.2,0.1-0.2,0.1c-0.1,0-0.2,0-0.3,0c-0.1,0-0.1,0-0.1,0c0,0-0.1,0-0.1-0.1c0,0,0-0.1,0-0.1c0-0.1,0-0.2,0-0.3
				c0-0.1,0-0.2,0.1-0.2c0.1-0.1,0.2-0.1,0.3-0.1c0.1,0,0.2-0.1,0.3-0.1c0.1,0,0.2-0.1,0.2-0.1C80.8,108.9,80.9,108.8,81,108.9
				C81,108.8,81,108.8,81,108.9C81,108.9,81,108.9,81,108.9z"/>
		</g>
		<g>
			<path fill="#4D4D4D" d="M83.7,110.6c0,0-0.1,0.1-0.2,0.3c-0.1,0.1-0.1,0.2-0.2,0.3c-0.1,0.1-0.1,0.2-0.2,0.3
				c-0.1,0.1-0.1,0.2-0.2,0.3c-0.1,0.1-0.2,0.1-0.3,0.1c-0.1,0-0.2,0-0.3,0c-0.1,0-0.2,0-0.2,0c0,0-0.1,0-0.1-0.1c0,0,0-0.1,0-0.2
				c0-0.1,0-0.2,0-0.3c0-0.1,0.1-0.2,0.2-0.3c0.1-0.1,0.2-0.1,0.3-0.2c0.1-0.1,0.2-0.1,0.3-0.2c0.1-0.1,0.2-0.1,0.3-0.1
				C83.5,110.6,83.6,110.6,83.7,110.6C83.6,110.6,83.7,110.6,83.7,110.6L83.7,110.6z"/>
		</g>
		<g>
			<path fill="#4D4D4D" d="M94.7,59.6c0,0,0,0.2,0,0.4c0,0.2-0.1,0.6-0.2,0.9c-0.1,0.2-0.1,0.3-0.2,0.5c-0.1,0.1-0.2,0.2-0.4,0.3
				c-0.3,0.1-0.6,0.1-0.6,0.1c0,0-0.1,0-0.1-0.1l0,0c0,0,0.1-0.1,0.1-0.2c0-0.1,0.1-0.2,0.1-0.3c0-0.1,0.1-0.2,0.2-0.3
				c0.1-0.1,0.2-0.2,0.3-0.3c0.1-0.1,0.2-0.2,0.3-0.3c0.1-0.1,0.2-0.2,0.2-0.3C94.5,59.8,94.6,59.7,94.7,59.6
				C94.6,59.6,94.7,59.6,94.7,59.6C94.7,59.6,94.7,59.6,94.7,59.6L94.7,59.6z"/>
		</g>
		<g>
			<path fill="#4D4D4D" d="M92.9,50.4c0,0,0,0.2,0,0.4c0,0.1,0,0.2,0,0.4c0,0.1,0,0.3-0.1,0.4s0,0.3-0.1,0.4
				c-0.1,0.1-0.2,0.2-0.3,0.3c-0.2,0.1-0.5,0.1-0.5,0.1c0,0-0.1,0-0.1-0.1l0,0c0,0,0-0.1,0-0.2c0-0.1,0-0.2,0-0.3
				c0-0.1,0-0.2,0.1-0.3c0.1-0.1,0.2-0.2,0.3-0.3c0.2-0.2,0.3-0.4,0.5-0.6C92.8,50.4,92.9,50.3,92.9,50.4C93,50.3,93,50.3,92.9,50.4
				C92.9,50.3,92.9,50.3,92.9,50.4L92.9,50.4z"/>
		</g>
		<g>
			<path fill="#4D4D4D" d="M118.1,61.1c0,0,0,0,0,0.1c0,0.1,0.1,0.2,0.1,0.3c0,0.1,0.1,0.2,0.2,0.4c0.1,0.1,0.2,0.3,0.2,0.4
				c0.1,0.1,0.2,0.2,0.3,0.3c0.1,0.1,0.1,0.2,0.1,0.3c0,0.1,0,0.1,0,0.2c0,0.1,0,0.1,0,0.2c0,0.1,0,0.2,0,0.2l0,0c0,0,0,0.1,0,0.1
				c0,0-0.1,0-0.2,0c-0.1,0-0.2,0-0.4-0.1c-0.2-0.1-0.3-0.2-0.4-0.3c-0.1-0.1-0.1-0.2-0.1-0.2c0-0.1,0-0.2-0.1-0.3
				c-0.1-0.4-0.1-0.8,0-1c0-0.1,0-0.2,0.1-0.3c0-0.1,0-0.1,0-0.1C117.9,61.1,117.9,61.1,118.1,61.1C118,61.1,118.1,61.1,118.1,61.1z
				"/>
		</g>
		<g>
			<path fill="#4D4D4D" d="M117.8,72.6c0,0,0.1,0.1,0.2,0.2c0.1,0.1,0.2,0.2,0.2,0.2c0.1,0.1,0.2,0.2,0.2,0.2
				c0.1,0.1,0.2,0.1,0.3,0.2c0.1,0.1,0.1,0.2,0.1,0.2s0.1,0.2,0.1,0.3c0,0.1,0,0.2,0,0.2l0,0c0,0,0,0.1-0.1,0.1c0,0-0.2,0.1-0.5,0.1
				c-0.1,0-0.3-0.1-0.4-0.2C118,74.1,118,74,118,74c0-0.1-0.1-0.2-0.1-0.2c-0.1-0.3-0.2-0.6-0.2-0.8c0-0.1,0-0.2,0-0.2s0-0.1,0-0.1
				C117.7,72.6,117.7,72.6,117.8,72.6C117.8,72.6,117.8,72.6,117.8,72.6z"/>
		</g>
		<g>
			<path fill="#4D4D4D" d="M115.8,79.3c0,0,0,0,0,0.1c0,0.1,0.1,0.2,0.1,0.3s0.1,0.3,0.2,0.4c0.1,0.2,0.2,0.3,0.2,0.4
				c0.1,0.2,0.2,0.2,0.3,0.4c0.1,0.1,0.1,0.3,0.1,0.4c0,0.1,0,0.1,0,0.2c0,0.1,0,0.1,0,0.2c0,0.1,0,0.2,0,0.2c0,0,0,0.1-0.1,0.1
				c0,0-0.1,0-0.2,0c-0.1,0-0.2-0.1-0.4-0.1c-0.2-0.1-0.3-0.2-0.4-0.4c-0.1-0.1-0.1-0.2-0.1-0.3c0-0.1,0-0.2-0.1-0.3
				c-0.1-0.4-0.1-0.8-0.1-1.1c0-0.2,0-0.3,0-0.3c0-0.1,0-0.1,0-0.1C115.6,79.2,115.6,79.2,115.8,79.3
				C115.7,79.2,115.8,79.3,115.8,79.3z"/>
		</g>
		<g>
			<path fill="#4D4D4D" d="M115.6,67.1c0,0,0,0.2,0.1,0.4c0.1,0.2,0.1,0.5,0.2,0.8c0,0.1,0.2,0.2,0.2,0.4s0,0.2,0,0.3
				c0,0.1-0.1,0.2-0.1,0.3c0,0.1-0.1,0.2-0.1,0.2l0,0c0,0-0.1,0-0.1,0c0,0-0.2,0-0.5-0.2c-0.1-0.1-0.2-0.2-0.2-0.4s0-0.3,0-0.5
				s0-0.3,0.1-0.5c0-0.2,0.1-0.3,0.1-0.4C115.4,67.2,115.5,67.1,115.6,67.1L115.6,67.1C115.5,67,115.6,67,115.6,67.1
				C115.6,67.1,115.6,67.1,115.6,67.1z"/>
		</g>
		<g>
			<path fill="#4D4D4D" d="M112.9,69.6c0,0,0.1,0.1,0.3,0.3c0.1,0.1,0.2,0.2,0.3,0.3c0.1,0.1,0.2,0.2,0.3,0.4
				c0.1,0.1,0.2,0.2,0.3,0.4c0.1,0.1,0.1,0.3,0.1,0.4c0,0.1,0,0.2-0.1,0.3s-0.1,0.2-0.1,0.2c0,0-0.1,0.1-0.1,0c0,0-0.1,0-0.2,0
				c-0.1,0-0.2-0.1-0.3-0.2c-0.1-0.1-0.2-0.2-0.3-0.3s-0.1-0.3-0.1-0.5c0-0.2-0.1-0.3-0.1-0.5s-0.1-0.3-0.1-0.4
				C112.8,69.8,112.8,69.7,112.9,69.6C112.8,69.7,112.8,69.6,112.9,69.6C112.9,69.6,112.9,69.6,112.9,69.6z"/>
		</g>
		<g>
			<path fill="#4D4D4D" d="M118.1,52.7c0,0,0.1,0.1,0.1,0.3c0.1,0.2,0.2,0.3,0.3,0.5c0.1,0.1,0.2,0.2,0.2,0.2c0,0.1,0,0.2,0,0.3
				c0,0.1-0.1,0.2-0.1,0.2c0,0.1-0.1,0.1-0.1,0.1l0,0c0,0,0,0.1-0.1,0.1c0,0-0.2,0-0.4-0.1c-0.1-0.1-0.2-0.1-0.2-0.2
				c0-0.1,0-0.3,0-0.4c0-0.1,0-0.2,0-0.4c0-0.1,0-0.2,0.1-0.3c0.1-0.2,0.1-0.3,0.1-0.3l0,0C118,52.7,118,52.7,118.1,52.7L118.1,52.7
				z"/>
		</g>
		<g>
			<path fill="#4D4D4D" d="M118.2,68.4c0,0,0.1,0.2,0.2,0.4c0.1,0.1,0.1,0.2,0.2,0.3c0.1,0.1,0.1,0.3,0.2,0.4
				c0.1,0.1,0.2,0.2,0.3,0.3c0.1,0.1,0.1,0.2,0.1,0.4c0,0.1,0,0.3,0,0.3s0,0.2,0,0.2l0,0c0,0,0,0.1-0.1,0.1c0,0-0.3,0-0.5-0.1
				c-0.1-0.1-0.2-0.2-0.3-0.3c-0.1-0.2-0.1-0.3-0.1-0.5c0-0.2-0.1-0.3-0.1-0.5s0-0.3,0-0.4C118.1,68.6,118.2,68.4,118.2,68.4
				L118.2,68.4C118.1,68.3,118.2,68.3,118.2,68.4C118.2,68.3,118.2,68.3,118.2,68.4z"/>
		</g>
		<g>
			<path fill="#4D4D4D" d="M113.8,58.1C113.8,58.1,113.8,58.1,113.8,58.1c0.1,0.2,0.2,0.2,0.2,0.3c0.1,0.1,0.2,0.2,0.2,0.3
				c0.1,0.1,0.2,0.2,0.3,0.3c0.1,0.1,0.2,0.1,0.3,0.2s0.2,0.2,0.2,0.2c0.2,0.3,0.2,0.4,0.2,0.4c0,0,0,0.1,0,0.1c0,0,0,0.1-0.1,0.1
				c-0.1,0.1-0.2,0.1-0.4,0.1c-0.2,0-0.4-0.1-0.5-0.2s-0.2-0.3-0.3-0.5c-0.1-0.2-0.2-0.3-0.2-0.5c-0.1-0.2-0.1-0.3-0.1-0.5
				c0-0.1,0-0.1,0-0.2s0-0.1,0-0.1c0-0.1,0-0.1,0-0.1C113.7,58,113.7,58,113.8,58.1C113.8,58.1,113.8,58.1,113.8,58.1z"/>
		</g>
		<g>
			<path fill="#4D4D4D" d="M111.8,61.1c0,0,0,0.1,0.1,0.1c0,0.1,0.1,0.2,0.2,0.3c0.1,0.2,0.2,0.3,0.2,0.5c0.1,0.2,0.2,0.3,0.3,0.5
				c0.1,0.2,0.2,0.3,0.3,0.5c0.1,0.2,0.1,0.3,0.2,0.5c0,0.2,0.1,0.3,0.1,0.4s0,0.2,0,0.2c0,0,0,0.1-0.1,0.1c0,0-0.1,0-0.2,0
				s-0.2-0.1-0.4-0.2s-0.3-0.2-0.4-0.4c-0.1-0.1-0.1-0.2-0.1-0.3c0-0.1-0.1-0.2-0.1-0.3c-0.1-0.4-0.2-0.9-0.2-1.2
				C111.6,61.4,111.6,61.3,111.8,61.1C111.7,61.1,111.7,61,111.8,61.1C111.7,61,111.7,61,111.8,61.1
				C111.7,61.1,111.7,61.1,111.8,61.1z"/>
		</g>
		<g>
			<path fill="#4D4D4D" d="M108,62.2c0,0,0,0.1,0,0.2c0,0.1,0,0.3,0,0.4c0,0.3,0.1,0.8,0.2,1.2c0.1,0.2,0.2,0.4,0.3,0.6
				c0.1,0.2,0.1,0.4,0.1,0.5c0,0.1,0,0.2,0,0.3c0,0.1,0,0.2,0,0.2c0,0.1,0,0.2,0,0.2l0,0c0,0-0.1,0.1-0.1,0.1h0c0,0-0.1,0-0.2-0.1
				c-0.1,0-0.3-0.1-0.4-0.3c-0.2-0.1-0.3-0.3-0.4-0.6c0-0.1-0.1-0.2-0.1-0.4s0-0.2,0-0.4c0-0.1,0-0.2,0-0.4s0-0.2,0-0.3
				c0-0.1,0-0.2,0.1-0.3c0-0.1,0-0.2,0.1-0.3c0.1-0.2,0.1-0.3,0.2-0.4C107.8,62.2,107.9,62.2,108,62.2
				C107.9,62.1,107.9,62.1,108,62.2C108,62.2,108,62.2,108,62.2z"/>
		</g>
		<g>
			<path fill="#4D4D4D" d="M109.1,56.4C109.1,56.4,109.1,56.4,109.1,56.4c0.1,0.2,0.1,0.2,0.1,0.3c0,0.1,0.1,0.2,0.2,0.3
				c0.1,0.1,0.1,0.2,0.2,0.2c0.1,0.1,0.2,0.1,0.2,0.2c0.1,0.1,0.1,0.2,0.1,0.2c0,0.1,0,0.1,0,0.2s0,0.1,0,0.1c0,0.1,0,0.2,0,0.2
				c0,0,0,0.1,0,0.1c0,0-0.1,0-0.2,0.1c-0.1,0-0.2,0-0.3,0c-0.1,0-0.3-0.1-0.3-0.2c-0.1-0.1-0.1-0.3-0.1-0.4c-0.1-0.3-0.1-0.6,0-0.8
				c0-0.1,0.1-0.2,0.1-0.2c0-0.1,0-0.1,0-0.1C109,56.3,109,56.3,109.1,56.4C109.1,56.3,109.1,56.4,109.1,56.4z"/>
		</g>
		<g>
			<path fill="#4D4D4D" d="M111.3,51.2c0,0,0.1,0.2,0.2,0.3c0.1,0.2,0.2,0.5,0.4,0.8c0.1,0.1,0.2,0.3,0.2,0.4c0,0.1,0,0.3,0,0.4
				c0,0.1-0.1,0.3-0.1,0.3c0,0.1-0.1,0.2-0.1,0.2c0,0-0.1,0-0.1,0c0,0-0.1,0-0.2-0.1c-0.1,0-0.2-0.1-0.3-0.2
				c-0.1-0.1-0.2-0.2-0.2-0.3c0-0.2,0-0.3,0-0.5c0-0.2,0-0.3,0-0.5s0-0.3,0-0.4C111.2,51.4,111.2,51.2,111.3,51.2
				C111.2,51.2,111.2,51.2,111.3,51.2C111.2,51.2,111.2,51.2,111.3,51.2z"/>
		</g>
		<g>
			<path fill="#4D4D4D" d="M103.9,53.2c0,0,0,0,0,0.1c0,0.1,0,0.2,0.1,0.3c0.1,0.2,0.2,0.5,0.3,0.8c0.1,0.1,0.2,0.2,0.2,0.3
				c0.1,0.1,0.1,0.3,0.1,0.3c0,0.1,0,0.2,0,0.3c0,0.1,0,0.2,0,0.2c0,0,0,0.1-0.1,0.1c0,0-0.1,0-0.2,0c-0.1,0-0.2-0.1-0.3-0.2
				c-0.1-0.1-0.2-0.2-0.3-0.3c-0.1-0.2,0-0.3-0.1-0.5c0-0.2,0-0.3,0-0.5c0-0.2,0-0.3,0.1-0.4c0-0.1,0.1-0.2,0.1-0.3
				C103.9,53.2,103.9,53.2,103.9,53.2C103.9,53.2,103.9,53.2,103.9,53.2C103.9,53.1,103.9,53.2,103.9,53.2z"/>
		</g>
		<g>
			<path fill="#4D4D4D" d="M97.6,52.7c0,0,0.1,0.2,0.3,0.4c0.1,0.1,0.2,0.2,0.3,0.4c0.1,0.2,0.2,0.3,0.3,0.5
				c0.1,0.2,0.2,0.3,0.3,0.5c0.1,0.2,0.1,0.3,0.1,0.5c0,0.2,0,0.3-0.1,0.4c0,0.1-0.1,0.2-0.1,0.2c0,0-0.1,0-0.1,0c0,0-0.1,0-0.2-0.1
				c-0.1-0.1-0.2-0.1-0.3-0.2c-0.1-0.1-0.2-0.2-0.3-0.4c-0.1-0.2-0.1-0.4-0.1-0.5c0-0.2-0.1-0.4-0.1-0.5c0-0.2-0.1-0.3-0.1-0.5
				C97.5,52.9,97.5,52.7,97.6,52.7C97.5,52.7,97.5,52.7,97.6,52.7C97.5,52.6,97.6,52.6,97.6,52.7z"/>
		</g>
		<g>
			<path fill="#4D4D4D" d="M101.2,61.7c0,0,0.1,0.1,0.2,0.3c0.2,0.2,0.3,0.4,0.5,0.7c0.1,0.1,0.2,0.2,0.3,0.3
				c0.1,0.1,0.1,0.3,0.1,0.4c0,0.1,0,0.3-0.1,0.3c0,0.1-0.1,0.2-0.1,0.2c0,0-0.1,0.1-0.1,0c0,0-0.1,0-0.2,0c-0.1,0-0.2-0.1-0.3-0.2
				c-0.1-0.1-0.2-0.2-0.3-0.3s-0.1-0.3-0.1-0.5c0-0.2-0.1-0.3-0.1-0.5c0-0.2,0-0.3-0.1-0.4c0-0.2,0-0.4,0-0.4
				C101.1,61.7,101.1,61.6,101.2,61.7C101.2,61.7,101.2,61.7,101.2,61.7z"/>
		</g>
		<g>
			<path fill="#4D4D4D" d="M105.1,69.4c0,0,0.1,0.2,0.3,0.4c0.1,0.1,0.2,0.2,0.3,0.4s0.2,0.3,0.3,0.4c0.1,0.2,0.3,0.2,0.4,0.4
				c0.1,0.1,0.2,0.3,0.2,0.4c0,0.2,0.2,0.3,0.2,0.4s0.1,0.2,0.1,0.2l0,0c0,0-0.1,0.1-0.1,0.1c0,0-0.3,0-0.6-0.1
				c-0.2-0.1-0.3-0.2-0.4-0.3c-0.1-0.2-0.2-0.4-0.2-0.6c-0.1-0.2-0.2-0.4-0.2-0.6c-0.1-0.2-0.1-0.4-0.1-0.5
				C105.1,69.7,105.1,69.5,105.1,69.4L105.1,69.4C105.1,69.5,105.1,69.4,105.1,69.4C105.1,69.4,105.1,69.4,105.1,69.4z"/>
		</g>
		<g>
			<path fill="#4D4D4D" d="M101,72.8c0,0,0.2,0.1,0.3,0.2c0.2,0.1,0.5,0.2,0.8,0.4c0.1,0.1,0.3,0.1,0.4,0.2c0.1,0.1,0.2,0.2,0.2,0.3
				c0.1,0.1,0.1,0.2,0.1,0.3c0,0.1,0,0.2,0,0.2l0,0c0,0,0,0.1,0,0.1c0,0-0.2,0.1-0.5,0.1c-0.1,0-0.3-0.1-0.4-0.1
				c-0.1-0.1-0.2-0.2-0.3-0.4c-0.1-0.1-0.2-0.2-0.3-0.4c-0.1-0.1-0.2-0.2-0.2-0.4c-0.1-0.2-0.2-0.4-0.2-0.4l0,0
				C100.8,72.8,100.8,72.8,101,72.8C100.9,72.8,100.9,72.8,101,72.8z"/>
		</g>
		<g>
			<path fill="#4D4D4D" d="M99.8,80.2c0,0,0.1,0.2,0.1,0.4c0,0.1,0.1,0.3,0.1,0.4c0,0.2,0,0.3,0,0.5s0.1,0.3,0,0.5s-0.1,0.3-0.2,0.4
				c-0.2,0.2-0.4,0.3-0.4,0.3c0,0-0.1,0-0.1,0l0,0c0,0,0-0.1-0.1-0.1c-0.1-0.1-0.1-0.2-0.1-0.3c0-0.1-0.1-0.3,0-0.4
				c0-0.1,0.1-0.3,0.2-0.4c0.1-0.3,0.2-0.6,0.3-0.8C99.7,80.3,99.7,80.2,99.8,80.2C99.7,80.1,99.8,80.1,99.8,80.2
				C99.8,80.1,99.8,80.1,99.8,80.2L99.8,80.2z"/>
		</g>
		<g>
			<path fill="#4D4D4D" d="M96.9,87.9c0,0,0.1,0.2,0.1,0.5c0,0.3,0,0.7-0.2,1.1c-0.1,0.2-0.1,0.4-0.2,0.6c-0.1,0.2-0.2,0.3-0.4,0.4
				c-0.3,0.2-0.5,0.2-0.5,0.2c0,0,0,0,0-0.1l0,0c0,0-0.1-0.1,0-0.2c0-0.1,0-0.2,0-0.4c0-0.2,0.1-0.3,0.2-0.4
				c0.1-0.1,0.2-0.2,0.3-0.4c0.1-0.2,0.2-0.3,0.3-0.5c0.1-0.2,0.2-0.3,0.2-0.4C96.8,88,96.9,87.8,96.9,87.9
				C96.9,87.8,96.9,87.8,96.9,87.9C96.9,87.8,96.9,87.8,96.9,87.9L96.9,87.9z"/>
		</g>
		<g>
			<path fill="#4D4D4D" d="M95.3,94.9C95.3,94.9,95.3,94.9,95.3,94.9c0.1,0.2,0.1,0.2,0.1,0.4c0,0.2,0.1,0.6,0,0.9
				c0,0.1,0,0.2,0,0.2s0,0.2-0.1,0.2c-0.1,0.2-0.2,0.2-0.3,0.3c-0.1,0.1-0.2,0.1-0.3,0.1c-0.1,0-0.2,0-0.2,0c0,0-0.1,0-0.1-0.1
				c0,0,0-0.1,0-0.2s0-0.2,0-0.3s0-0.2,0.1-0.3c0.1-0.1,0.2-0.2,0.2-0.3c0.1-0.1,0.2-0.2,0.2-0.3c0.1-0.1,0.1-0.2,0.2-0.3
				c0.1-0.1,0.1-0.2,0.1-0.2C95.2,95,95.2,94.9,95.3,94.9C95.2,94.9,95.3,94.9,95.3,94.9L95.3,94.9z"/>
		</g>
		<g>
			<path fill="#4D4D4D" d="M93.5,103.9c0,0,0,0.1-0.1,0.3c0,0.1,0,0.2-0.1,0.3c0,0.1-0.1,0.2-0.1,0.3c0,0.1,0,0.2-0.1,0.3
				c-0.1,0.1-0.2,0.2-0.2,0.2c-0.1,0-0.2,0.1-0.3,0.1c-0.1,0-0.2,0-0.2,0c0,0-0.1,0-0.1-0.1c0,0,0-0.1-0.1-0.1
				c0-0.1-0.1-0.2-0.1-0.3c0-0.1,0-0.2,0.1-0.3c0.1-0.1,0.2-0.1,0.3-0.2c0.1-0.1,0.2-0.2,0.2-0.2c0.1-0.1,0.2-0.1,0.2-0.2
				c0.2-0.1,0.2-0.2,0.2-0.2C93.4,103.9,93.4,103.9,93.5,103.9C93.5,103.9,93.5,103.9,93.5,103.9z"/>
		</g>
		<g>
			<path fill="#4D4D4D" d="M89.3,72.7c0,0,0,0.2,0,0.4c0,0.1,0,0.2,0,0.4c0,0.2-0.1,0.3-0.1,0.5c0,0.2,0,0.3-0.1,0.5
				c-0.1,0.1-0.2,0.2-0.2,0.3c-0.1,0.1-0.2,0.2-0.3,0.2c-0.1,0-0.2,0.1-0.2,0.1c0,0-0.1,0-0.1,0c0,0,0-0.1-0.1-0.2
				c0-0.1-0.1-0.2-0.1-0.3c0-0.1,0-0.3,0-0.4c0.1-0.1,0.2-0.2,0.3-0.4c0.1-0.1,0.2-0.2,0.2-0.4c0.1-0.1,0.2-0.2,0.2-0.3
				C89.2,72.8,89.2,72.7,89.3,72.7C89.3,72.6,89.3,72.6,89.3,72.7C89.3,72.7,89.3,72.7,89.3,72.7z"/>
		</g>
		<g>
			<path fill="#4D4D4D" d="M79.5,81.4C79.5,81.4,79.5,81.5,79.5,81.4c0.1,0.1,0.1,0.2,0.1,0.3c0,0.2,0.1,0.4,0,0.7
				c0,0.1-0.1,0.3-0.1,0.4c-0.1,0.1-0.2,0.2-0.3,0.2s-0.2,0-0.3-0.1s-0.1-0.1-0.1-0.1c0,0,0-0.1,0-0.1l0,0c0,0,0-0.1,0-0.1
				c0,0,0-0.1,0-0.1s0-0.1,0-0.1c0-0.1,0-0.2,0-0.2c0,0,0.2,0,0.2-0.1s0.1-0.1,0.2-0.2s0.1-0.1,0.2-0.2c0-0.1,0.1-0.1,0.1-0.2
				c0,0,0-0.1,0-0.1C79.4,81.4,79.4,81.4,79.5,81.4C79.5,81.4,79.5,81.4,79.5,81.4z"/>
		</g>
		<g>
			<path fill="#4D4D4D" d="M115,48C115,48,115.1,48.1,115,48c0.1,0.2,0.2,0.2,0.2,0.3c0.1,0.1,0.2,0.2,0.2,0.3
				c0.1,0.1,0.2,0.2,0.3,0.3c0.1,0.1,0.2,0.2,0.3,0.2c0.1,0.1,0.1,0.2,0.2,0.3c0,0.1,0,0.2,0.1,0.3c0,0.1,0,0.2,0,0.2l0,0
				c0,0,0,0.1-0.1,0.1c0,0-0.2,0.1-0.5,0c-0.1,0-0.3-0.1-0.4-0.3c-0.1-0.1-0.1-0.2-0.1-0.2s-0.1-0.2-0.1-0.2
				c-0.1-0.3-0.2-0.7-0.2-0.9C114.9,48.3,114.9,48.2,115,48C114.9,48.1,114.9,48,115,48C114.9,48,115,48,115,48
				C115,48,115,48,115,48z"/>
		</g>
		<g>
			<path fill="#4D4D4D" d="M110.1,76.7c0,0,0.1,0.1,0.2,0.2c0.1,0.1,0.3,0.3,0.5,0.4c0.1,0.1,0.2,0.1,0.2,0.2
				c0.1,0.1,0.1,0.2,0.1,0.3c0,0.1,0,0.2,0,0.3c0,0.1,0,0.1,0,0.1l0,0c0,0,0,0.1-0.1,0.1c0,0-0.2,0-0.4,0c-0.1,0-0.2-0.1-0.3-0.2
				c-0.1-0.1-0.1-0.2-0.1-0.4c0-0.1-0.1-0.2-0.1-0.3c0-0.1-0.1-0.2-0.1-0.3c0-0.2,0-0.3,0-0.3l0,0C110,76.7,110,76.7,110.1,76.7
				C110.1,76.7,110.1,76.7,110.1,76.7z"/>
		</g>
		<g>
			<path fill="#4D4D4D" d="M105.1,79.3c0,0,0,0.1,0.1,0.2s0.1,0.2,0.2,0.4c0.1,0.2,0.2,0.3,0.3,0.5c0.1,0.1,0.1,0.2,0.2,0.2
				c0.1,0.1,0.1,0.2,0.2,0.2c0.1,0.2,0.3,0.3,0.4,0.4s0.2,0.3,0.3,0.4c0,0.1,0.1,0.1,0.1,0.2c0,0.1,0.1,0.1,0.1,0.2
				c0.1,0.1,0.1,0.2,0.1,0.2l0,0c0,0,0,0.1,0,0.1l0,0c0,0-0.1,0-0.2,0c-0.1,0-0.3,0-0.5-0.1c-0.2-0.1-0.4-0.2-0.6-0.3
				c-0.1-0.1-0.2-0.2-0.2-0.3c-0.1-0.1-0.1-0.2-0.2-0.3c-0.1-0.2-0.2-0.5-0.2-0.7c-0.1-0.2-0.1-0.4-0.1-0.6c0-0.1,0-0.2,0-0.2
				s0-0.1,0-0.2C105.1,79.3,105.1,79.3,105.1,79.3C105.1,79.2,105.1,79.2,105.1,79.3C105.1,79.2,105.1,79.2,105.1,79.3z"/>
		</g>
		<g>
			<path fill="#4D4D4D" d="M102.6,84.8c0,0,0.1,0.1,0.3,0.3c0.1,0.1,0.2,0.2,0.3,0.3c0.1,0.1,0.2,0.3,0.3,0.4
				c0.1,0.2,0.2,0.3,0.3,0.4c0.1,0.2,0.1,0.3,0.1,0.5s0,0.3-0.1,0.4c0,0.1-0.1,0.2-0.1,0.2c0,0-0.1,0.1-0.1,0c0,0-0.1,0-0.2-0.1
				c-0.1,0-0.2-0.1-0.3-0.2c-0.1-0.1-0.2-0.2-0.3-0.3c-0.1-0.2-0.1-0.3-0.1-0.5c0-0.2-0.1-0.3-0.1-0.5s-0.1-0.3-0.1-0.4
				C102.5,85.1,102.5,84.9,102.6,84.8C102.5,84.9,102.5,84.9,102.6,84.8C102.6,84.8,102.6,84.8,102.6,84.8z"/>
		</g>
		<g>
			<path fill="#4D4D4D" d="M100.1,92.6c0,0,0.2,0.2,0.4,0.5c0.1,0.2,0.3,0.3,0.4,0.5c0.2,0.2,0.3,0.4,0.5,0.6
				c0.2,0.2,0.3,0.4,0.5,0.6c0.1,0.2,0.2,0.4,0.2,0.6c0,0.2,0.1,0.4,0.1,0.5c0,0.1,0,0.2,0,0.2c0,0,0,0.1-0.1,0.1l0,0
				c0,0-0.1,0-0.2-0.1c-0.1-0.1-0.2-0.2-0.4-0.3c-0.2-0.1-0.3-0.3-0.4-0.5c-0.1-0.2-0.2-0.5-0.3-0.7c-0.1-0.2-0.2-0.5-0.3-0.7
				c-0.1-0.2-0.2-0.4-0.2-0.6C100.1,92.8,100,92.6,100.1,92.6C100,92.6,100,92.5,100.1,92.6C100.1,92.6,100.1,92.6,100.1,92.6z"/>
		</g>
		<g>
			<path fill="#4D4D4D" d="M107.1,87.2c0,0,0.1,0.1,0.3,0.2c0.1,0.1,0.2,0.2,0.3,0.2c0.1,0.1,0.2,0.2,0.3,0.3
				c0.1,0.1,0.2,0.2,0.3,0.3c0.1,0.1,0.1,0.2,0.1,0.4s0,0.2,0,0.3c0,0.1,0,0.2,0,0.2c0,0,0,0.1-0.1,0.1c0,0-0.1,0-0.2,0
				c-0.1,0-0.2,0-0.3-0.1c-0.1-0.1-0.2-0.1-0.3-0.2c-0.1-0.1-0.1-0.3-0.2-0.4c-0.1-0.1-0.1-0.3-0.2-0.4c-0.1-0.1-0.1-0.2-0.1-0.4
				C107.1,87.5,107,87.3,107.1,87.2C107,87.3,107,87.2,107.1,87.2C107,87.2,107.1,87.2,107.1,87.2z"/>
		</g>
		<g>
			<path fill="#4D4D4D" d="M112.4,81.2c0,0,0.4,0.5,0.9,1c0.1,0.1,0.2,0.2,0.3,0.3c0.1,0.1,0.1,0.3,0.2,0.4s0,0.3,0,0.4
				c0,0.1,0,0.2,0,0.2l0,0c0,0,0,0.1-0.1,0.1c0,0-0.3,0-0.5-0.2c-0.1-0.1-0.2-0.2-0.3-0.3s-0.1-0.3-0.2-0.5
				c-0.1-0.2-0.1-0.3-0.2-0.5c0-0.2-0.1-0.3-0.2-0.4c-0.1-0.2-0.1-0.4-0.1-0.4l0,0C112.2,81.2,112.2,81.2,112.4,81.2
				C112.3,81.2,112.4,81.2,112.4,81.2z"/>
		</g>
		<g>
			<path fill="#4D4D4D" d="M106.3,92.7c0,0,0.2,0.2,0.4,0.4c0.2,0.2,0.5,0.5,0.8,0.8c0.2,0.2,0.3,0.2,0.5,0.4s0.2,0.3,0.3,0.5
				c0.1,0.2,0.1,0.3,0.2,0.4c0,0.1,0,0.2,0,0.2l0,0c0,0-0.1,0.1-0.1,0.1c0,0-0.3,0-0.6-0.2c-0.2-0.1-0.3-0.2-0.5-0.3
				c-0.1-0.2-0.2-0.4-0.3-0.6c-0.1-0.2-0.2-0.4-0.3-0.6c-0.1-0.2-0.2-0.4-0.2-0.5C106.3,93,106.2,92.8,106.3,92.7L106.3,92.7
				C106.2,92.7,106.2,92.7,106.3,92.7C106.3,92.7,106.3,92.7,106.3,92.7z"/>
		</g>
		<g>
			<path fill="#4D4D4D" d="M111.8,89.6c0,0,0,0.1,0.1,0.1c0,0.1,0.1,0.2,0.2,0.3c0.1,0.1,0.2,0.3,0.2,0.4c0,0.1,0.1,0.2,0.2,0.2
				c0.1,0.1,0.1,0.2,0.2,0.2c0.1,0.2,0.3,0.2,0.4,0.3c0.1,0.1,0.2,0.2,0.2,0.4c0,0.1,0.1,0.1,0.1,0.2c0,0.1,0.1,0.1,0.1,0.2
				c0,0.1,0.1,0.2,0.1,0.2l0,0c0,0,0,0.1,0,0.1c0,0-0.1,0-0.2,0c-0.1,0-0.3,0-0.5,0c-0.2-0.1-0.4-0.2-0.5-0.3
				c-0.1-0.1-0.1-0.2-0.2-0.3c0-0.1-0.1-0.2-0.1-0.3c-0.1-0.2-0.2-0.4-0.2-0.6c0-0.2-0.1-0.4-0.1-0.6s0-0.3,0-0.4
				C111.7,89.7,111.7,89.6,111.8,89.6C111.7,89.6,111.8,89.6,111.8,89.6C111.8,89.5,111.8,89.5,111.8,89.6z"/>
		</g>
		<g>
			<path fill="#4D4D4D" d="M117.7,97.5c0,0,0.1,0.1,0.2,0.2c0.1,0.1,0.2,0.1,0.2,0.2c0.1,0.1,0.2,0.1,0.3,0.2
				c0.1,0.1,0.2,0.1,0.3,0.2c0.1,0.1,0.1,0.2,0.1,0.3c0,0.1,0,0.2-0.1,0.3c0,0.1-0.1,0.1-0.1,0.1c0,0,0,0.1-0.1,0.1c0,0-0.1,0-0.2,0
				c-0.1,0-0.2,0-0.3,0c-0.1,0-0.2-0.1-0.2-0.2c-0.1-0.1-0.1-0.2-0.1-0.3c0-0.1-0.1-0.2-0.1-0.3c0-0.1-0.1-0.2-0.1-0.3
				C117.7,97.7,117.7,97.6,117.7,97.5C117.7,97.5,117.7,97.5,117.7,97.5C117.7,97.5,117.7,97.5,117.7,97.5z"/>
		</g>
		<g>
			<path fill="#4D4D4D" d="M111.9,96.8C111.9,96.8,111.9,96.9,111.9,96.8c0.1,0.2,0.1,0.2,0.2,0.3c0.1,0.1,0.1,0.2,0.2,0.2
				c0.1,0.1,0.2,0.2,0.2,0.2c0.1,0.1,0.2,0.1,0.3,0.1c0.1,0.1,0.1,0.1,0.2,0.2c0,0,0,0.1,0.1,0.1c0,0,0.1,0.1,0.1,0.1
				c0.1,0.1,0.1,0.1,0.1,0.1l0,0c0,0,0,0.1,0,0.1c0,0,0,0.1-0.1,0.1c0,0-0.1,0.1-0.2,0.1c-0.1,0-0.1,0-0.2,0.1c-0.2,0-0.3,0-0.5-0.1
				c-0.1-0.1-0.1-0.1-0.2-0.2c0-0.1-0.1-0.2-0.1-0.2c-0.1-0.2-0.2-0.3-0.2-0.5s0-0.3,0-0.4c0-0.1,0-0.1,0-0.2c0-0.1,0-0.1,0-0.1
				c0-0.1,0-0.1,0-0.1C111.8,96.8,111.8,96.8,111.9,96.8C111.9,96.8,111.9,96.8,111.9,96.8z"/>
		</g>
		<g>
			<path fill="#4D4D4D" d="M114.6,100.9c0,0,0.1,0.2,0.3,0.4s0.4,0.5,0.7,0.8c0.1,0.1,0.3,0.2,0.4,0.4c0.1,0.1,0.2,0.3,0.2,0.4
				c0,0.2,0.1,0.3,0.1,0.4c0,0.1,0,0.2,0,0.2l0,0c0,0,0,0.1-0.1,0.1c0,0-0.3,0-0.6-0.2c-0.1-0.1-0.3-0.2-0.4-0.3
				c-0.1-0.2-0.2-0.4-0.2-0.5c-0.1-0.2-0.2-0.4-0.2-0.5c-0.1-0.2-0.1-0.3-0.2-0.5C114.5,101.2,114.5,101,114.6,100.9L114.6,100.9
				C114.5,101,114.5,100.9,114.6,100.9C114.5,100.9,114.6,100.9,114.6,100.9z"/>
		</g>
		<g>
			<path fill="#4D4D4D" d="M105.2,99.9C105.2,99.9,105.3,99.9,105.2,99.9c0.1,0.2,0.2,0.2,0.3,0.3c0.1,0.1,0.2,0.2,0.3,0.2
				c0.1,0.1,0.2,0.2,0.3,0.2c0.1,0.1,0.2,0.1,0.3,0.1c0.1,0,0.2,0.1,0.2,0.2c0.1,0.1,0.1,0.2,0.2,0.2c0.1,0.1,0.1,0.1,0.1,0.1l0,0
				c0,0,0,0.1,0,0.1c0,0,0,0.1-0.1,0.1c-0.1,0.1-0.2,0.1-0.3,0.2s-0.3,0-0.5-0.1s-0.2-0.2-0.4-0.4c-0.1-0.1-0.2-0.3-0.3-0.4
				c-0.1-0.2-0.1-0.3-0.1-0.4c0-0.1,0-0.2,0-0.3C105.1,99.9,105.1,99.9,105.2,99.9C105.1,99.9,105.2,99.8,105.2,99.9
				C105.2,99.8,105.2,99.8,105.2,99.9z"/>
		</g>
		<g>
			<path fill="#4D4D4D" d="M96.7,99.6c0,0,0.1,0.1,0.3,0.3s0.4,0.4,0.6,0.6c0.1,0.1,0.2,0.2,0.3,0.2c0.1,0.1,0.1,0.2,0.2,0.3
				s0.1,0.2,0.1,0.3s0,0.2,0,0.2l0,0c0,0-0.1,0.1-0.1,0.1c0,0-0.3,0.1-0.5,0c-0.1-0.1-0.3-0.1-0.4-0.2c-0.1-0.1-0.1-0.3-0.2-0.5
				c-0.1-0.2-0.1-0.3-0.2-0.5c-0.1-0.2-0.1-0.3-0.1-0.4c-0.1-0.3-0.1-0.4-0.1-0.4l0,0C96.5,99.6,96.5,99.5,96.7,99.6
				C96.6,99.6,96.7,99.6,96.7,99.6z"/>
		</g>
		<g>
			<path fill="#4D4D4D" d="M97.1,106.5C97.1,106.5,97.2,106.5,97.1,106.5c0.1,0.2,0.2,0.2,0.3,0.3c0.1,0.1,0.2,0.2,0.3,0.3
				c0.1,0.1,0.2,0.2,0.3,0.3c0.1,0.1,0.3,0.2,0.4,0.3c0.1,0.1,0.2,0.2,0.2,0.3c0,0.1,0.1,0.1,0.1,0.2c0,0.1,0,0.1,0.1,0.2
				c0,0.1,0,0.2,0,0.2l0,0c0,0,0,0.1,0,0.1c0,0-0.2,0.1-0.6,0c-0.2,0-0.3-0.1-0.5-0.2c-0.1-0.1-0.1-0.2-0.2-0.2
				c0-0.1-0.1-0.2-0.1-0.3c-0.2-0.3-0.3-0.7-0.3-1c0-0.1,0-0.2,0-0.3S97.1,106.5,97.1,106.5C97.1,106.5,97.1,106.4,97.1,106.5
				C97.1,106.4,97.1,106.4,97.1,106.5z"/>
		</g>
		<g>
			<path fill="#4D4D4D" d="M90.6,109c0,0,0,0.1,0.1,0.2c0.1,0.1,0.1,0.2,0.2,0.4s0.2,0.3,0.3,0.5c0.1,0.2,0.3,0.4,0.4,0.6
				c0.2,0.2,0.3,0.3,0.5,0.5s0.2,0.3,0.3,0.5c0,0.1,0.1,0.2,0.1,0.2c0,0.1,0.1,0.2,0.1,0.2c0,0.1,0.1,0.2,0.1,0.2l0,0
				c0,0,0,0.1,0,0.1l0,0c0,0-0.1,0-0.2,0c-0.1,0-0.3-0.1-0.5-0.2c-0.2-0.1-0.4-0.2-0.6-0.4c-0.1-0.1-0.2-0.2-0.2-0.3
				c-0.1-0.1-0.1-0.2-0.2-0.4c-0.2-0.5-0.4-1-0.5-1.4c0-0.2-0.1-0.4-0.1-0.5C90.5,109,90.5,109,90.6,109
				C90.5,108.9,90.5,108.9,90.6,109C90.5,109,90.5,109,90.6,109z"/>
		</g>
		<g>
			<path fill="#4D4D4D" d="M102.7,103.9C102.7,103.9,102.7,103.9,102.7,103.9c0.1,0.2,0.2,0.2,0.2,0.3c0.1,0.1,0.2,0.2,0.2,0.2
				c0.1,0.1,0.2,0.2,0.3,0.2c0.1,0.1,0.2,0.1,0.3,0.1c0.1,0.1,0.1,0.1,0.2,0.2c0,0,0.1,0.1,0.1,0.1c0,0,0.1,0.1,0.1,0.1
				c0.1,0.1,0.1,0.1,0.1,0.1c0,0,0,0.1,0,0.1c0,0,0,0.1-0.1,0.1c-0.1,0.1-0.2,0.1-0.3,0.1s-0.3,0-0.5-0.1c-0.2-0.1-0.2-0.3-0.3-0.4
				c-0.1-0.2-0.2-0.3-0.2-0.5s-0.1-0.3-0.1-0.4s0-0.2,0-0.3S102.6,103.9,102.7,103.9C102.6,103.9,102.6,103.9,102.7,103.9
				C102.6,103.9,102.7,103.9,102.7,103.9z"/>
		</g>
		<g>
			<path fill="#4D4D4D" d="M108.4,106.2c0,0,0.1,0.1,0.2,0.2c0.1,0.1,0.3,0.2,0.5,0.4c0.1,0.1,0.2,0.1,0.3,0.2
				c0.1,0.1,0.1,0.2,0.1,0.3c0,0.1,0,0.2,0,0.3c0,0.1,0,0.2,0,0.2l0,0c0,0,0,0.1-0.1,0.1c0,0-0.2,0.1-0.5,0c-0.1,0-0.2-0.1-0.3-0.2
				c-0.1-0.1-0.1-0.2-0.2-0.4c-0.1-0.1-0.1-0.2-0.1-0.4c0-0.1,0-0.2,0-0.3C108.3,106.4,108.4,106.2,108.4,106.2L108.4,106.2
				C108.4,106.3,108.4,106.2,108.4,106.2C108.4,106.2,108.4,106.2,108.4,106.2z"/>
		</g>
		<g>
			<path fill="#4D4D4D" d="M112,102.2c0,0,0,0.1,0,0.1c0,0.1,0,0.2,0,0.3c0,0.1,0.1,0.3,0.1,0.4c0.1,0.2,0.1,0.3,0.2,0.5
				c0.1,0.2,0.2,0.3,0.3,0.4c0.1,0.1,0.1,0.2,0.1,0.4c0,0.1,0,0.1,0,0.2s0.1,0.1,0.1,0.2c0,0.1,0.1,0.2,0.1,0.2l0,0
				c0,0-0.1,0.1-0.1,0.1c0,0-0.1,0-0.2,0c-0.1,0-0.3,0-0.4-0.1s-0.3-0.2-0.4-0.4c-0.1-0.1-0.1-0.2-0.1-0.3c0-0.1,0-0.2,0-0.3
				c0-0.2,0-0.4,0-0.6c0-0.2,0.1-0.4,0.1-0.5C111.8,102.4,111.8,102.3,112,102.2c-0.1-0.1,0-0.1,0-0.1c0,0,0,0,0.1,0
				C112,102.2,112,102.2,112,102.2z"/>
		</g>
		<g>
			<path fill="#4D4D4D" d="M104.6,109.1c0,0,0,0,0,0.1c0,0.1,0,0.2,0.1,0.3c0,0.1,0.1,0.2,0.2,0.3c0.1,0.1,0.1,0.2,0.2,0.3
				c0.1,0.1,0.2,0.2,0.3,0.3c0.1,0.1,0.1,0.2,0.1,0.3c0,0.1,0,0.1,0,0.2c0,0.1,0,0.1,0,0.2c0,0.1,0,0.2,0,0.2c0,0,0,0.1,0,0.1
				c0,0-0.1,0-0.2,0.1c-0.1,0-0.1,0-0.2,0c-0.1,0-0.2,0-0.2,0c-0.2-0.1-0.3-0.2-0.4-0.3c-0.1-0.2-0.1-0.4-0.2-0.5
				c0-0.2-0.1-0.4-0.1-0.5s0-0.3,0.1-0.4s0.1-0.2,0.1-0.3C104.5,109.2,104.5,109.1,104.6,109.1C104.5,109.1,104.6,109.1,104.6,109.1
				C104.6,109,104.6,109.1,104.6,109.1z"/>
		</g>
		<g>
			<path fill="#4D4D4D" d="M113.6,109.7c0,0,0.1,0.1,0.3,0.2c0.1,0.1,0.2,0.1,0.3,0.2c0.1,0.1,0.2,0.2,0.3,0.2
				c0.1,0.1,0.2,0.1,0.3,0.2c0.1,0.1,0.1,0.2,0.1,0.3c0,0.1,0,0.2,0,0.3c0,0.1,0,0.2,0,0.2c0,0,0,0.1-0.1,0.1c0,0-0.1,0-0.2,0
				c-0.1,0-0.2,0-0.3,0c-0.1,0-0.2-0.1-0.3-0.2c-0.1-0.1-0.1-0.2-0.2-0.3c-0.1-0.1-0.1-0.2-0.2-0.3c-0.1-0.1-0.1-0.2-0.1-0.3
				C113.6,109.9,113.5,109.8,113.6,109.7C113.5,109.7,113.5,109.7,113.6,109.7C113.6,109.7,113.6,109.7,113.6,109.7z"/>
		</g>
		<g>
			<path fill="#4D4D4D" d="M116.9,108.6C116.9,108.6,116.9,108.6,116.9,108.6c0.2,0.2,0.2,0.2,0.3,0.3c0.1,0.1,0.2,0.2,0.3,0.3
				c0.1,0.1,0.3,0.2,0.4,0.3c0.2,0.1,0.3,0.1,0.4,0.2c0.1,0.1,0.2,0.2,0.3,0.3c0,0.1,0.1,0.1,0.1,0.2c0,0.1,0.1,0.1,0.1,0.2
				c0.1,0.1,0.1,0.2,0.1,0.2l0,0c0,0,0,0.1,0,0.1c0,0-0.1,0-0.2,0.1c-0.1,0-0.2,0.1-0.4,0.1s-0.4-0.1-0.5-0.2
				c-0.1-0.1-0.2-0.1-0.2-0.2c-0.1-0.1-0.1-0.2-0.2-0.2c-0.2-0.3-0.4-0.7-0.5-1c-0.1-0.2-0.1-0.2-0.1-0.3c0-0.1,0-0.1,0-0.1
				C116.9,108.7,116.9,108.7,116.9,108.6C116.9,108.6,116.9,108.6,116.9,108.6z"/>
		</g>
		
			<image overflow="visible" opacity="0.47" width="858" height="1225" xlink:href="../anchor.png"  transform="matrix(3.802245e-02 0 0 3.802245e-02 82.916 52.4672)">
		</image>
	</g>
</g>
</svg>
