<?xml version="1.0" encoding="utf-8"?>
<!-- Generator: Adobe Illustrator 18.0.0, SVG Export Plug-In . SVG Version: 6.00 Build 0)  -->
<!DOCTYPE svg PUBLIC "-//W3C//DTD SVG 1.1//EN" "http://www.w3.org/Graphics/SVG/1.1/DTD/svg11.dtd">
<svg version="1.1" id="Layer_1" xmlns="http://www.w3.org/2000/svg" xmlns:xlink="http://www.w3.org/1999/xlink" x="0px" y="0px"
	 viewBox="142.3 41.3 70.7 200.1" enable-background="new 142.3 41.3 70.7 200.1" xml:space="preserve">
<g>
	<g>
		<path fill="#4D4D4D" d="M150,52.8c0,0,0,0.2-0.2,0.3c0,0.2-0.2,0.3-0.2,0.3c0,0.2-0.2,0.3-0.2,0.3c0,0.2-0.2,0.3-0.2,0.5
			c-0.2,0.2-0.3,0.2-0.3,0.2c-0.2,0-0.3,0-0.3,0h-0.2c0,0-0.2,0-0.2-0.2v-0.2c0-0.2,0-0.3,0-0.3s0-0.3,0.2-0.3
			c0.2-0.2,0.3-0.2,0.5-0.2c0.2,0,0.3-0.2,0.3-0.2c0.2,0,0.3-0.2,0.3-0.2C149.8,52.7,150,52.7,150,52.8
			C149.8,52.7,150,52.7,150,52.8C150,52.7,150,52.8,150,52.8z"/>
	</g>
	<g>
		<path fill="#4D4D4D" d="M145.2,44c0,0,0,0.2,0,0.5s-0.2,0.8-0.5,1.2c-0.2,0.2-0.2,0.5-0.3,0.7c-0.2,0.2-0.3,0.2-0.7,0.2
			s-0.8-0.2-0.8-0.2l-0.2-0.2l0,0c0,0,0.2-0.2,0.2-0.3s0.2-0.3,0.2-0.5c0-0.2,0.2-0.3,0.3-0.3c0.2,0,0.3-0.2,0.5-0.2
			c0.2,0,0.3-0.2,0.5-0.3c0.2-0.2,0.3-0.2,0.3-0.3C144.9,44.2,145.1,44,145.2,44C145.1,43.8,145.1,43.8,145.2,44L145.2,44L145.2,44z
			"/>
	</g>
	<g>
		<path fill="#4D4D4D" d="M157.4,49.1c0,0,0,0.3-0.2,0.7c0,0.2-0.2,0.5-0.2,0.8s-0.2,0.5-0.3,0.8c-0.2,0.3-0.2,0.7-0.3,0.8
			c-0.2,0.2-0.3,0.3-0.7,0.5c-0.5,0.2-1,0.2-1,0.2s-0.2,0-0.2-0.2l0,0c0,0,0-0.2,0-0.3c0-0.2,0-0.3,0.2-0.5c0-0.2,0.2-0.5,0.3-0.7
			c0.2-0.2,0.3-0.3,0.5-0.5c0.2-0.2,0.3-0.3,0.5-0.7c0.2-0.2,0.3-0.3,0.3-0.5c0.3-0.3,0.3-0.7,0.3-0.7
			C157.1,49.1,157.3,49.1,157.4,49.1C157.3,48.9,157.4,49.1,157.4,49.1L157.4,49.1z"/>
	</g>
	<g>
		<path fill="#4D4D4D" d="M151.3,41.8c0,0,0,0.3,0,0.8c0,0.2,0,0.5,0,0.8s-0.2,0.5-0.2,0.8S151,45,151,45.2
			c-0.2,0.3-0.3,0.5-0.5,0.7c-0.3,0.3-0.8,0.3-0.8,0.3s-0.2,0-0.2-0.2l0,0c0,0,0-0.2,0-0.3s0-0.3,0-0.7c0-0.2,0-0.5,0.2-0.7
			c0.2-0.2,0.3-0.3,0.5-0.7c0.3-0.5,0.5-1,0.8-1.4c0.2-0.3,0.3-0.7,0.3-0.7C151.2,41.8,151.2,41.8,151.3,41.8L151.3,41.8L151.3,41.8
			z"/>
	</g>
	<g>
		<path fill="#4D4D4D" d="M191.2,51.1C191.2,51.1,191.3,51.3,191.2,51.1c0.2,0.3,0.3,0.3,0.3,0.5c0.2,0.2,0.3,0.3,0.5,0.5
			c0.2,0.2,0.3,0.3,0.5,0.5c0.2,0.2,0.5,0.3,0.7,0.3c0.2,0.2,0.3,0.3,0.3,0.5c0,0.2,0.2,0.2,0.2,0.3c0,0.2,0.2,0.2,0.2,0.2
			c0.2,0.2,0.2,0.3,0.2,0.3l0,0v0.2c0,0-0.2,0-0.3,0.2c-0.2,0-0.3,0.2-0.7,0.2c-0.3,0-0.7-0.2-0.8-0.3c-0.3-0.2-0.3-0.5-0.5-0.8
			s-0.3-0.5-0.3-0.8c-0.2-0.3-0.2-0.5-0.2-0.8c0-0.2,0-0.2,0-0.3c0-0.2,0-0.2,0-0.3C191.2,51.3,191.2,51.3,191.2,51.1L191.2,51.1
			L191.2,51.1z"/>
	</g>
	<g>
		<path fill="#4D4D4D" d="M180.8,50.1c0,0,0.2,0.2,0.3,0.3c0.3,0.2,0.5,0.5,1,0.8c0.2,0.2,0.3,0.2,0.5,0.3c0.2,0.2,0.2,0.3,0.2,0.5
			c0,0.2,0,0.3,0,0.5c0,0.2,0,0.3,0,0.3l0,0c0,0,0,0.2-0.2,0.2c0,0-0.3,0.2-0.8,0c-0.2,0-0.3-0.2-0.5-0.3c-0.2-0.2-0.2-0.3-0.3-0.7
			c-0.2-0.2-0.2-0.3-0.2-0.7c0-0.2-0.2-0.3-0.2-0.5C180.8,50.6,180.7,50.3,180.8,50.1L180.8,50.1C180.7,50.3,180.8,50.3,180.8,50.1
			L180.8,50.1z"/>
	</g>
	<g>
		<path fill="#4D4D4D" d="M176.4,45.5c0,0,0,0.2,0,0.5c0,0.2,0,0.3,0,0.5c0,0.2,0,0.3-0.2,0.5c0,0.2,0,0.3-0.2,0.7
			c0,0.2-0.2,0.3-0.3,0.3c-0.2,0.2-0.3,0.2-0.5,0.2s-0.3,0-0.3,0h-0.2c0,0,0-0.2-0.2-0.2s-0.2-0.3-0.2-0.5c0-0.2,0-0.3,0-0.5
			c0.2-0.2,0.3-0.3,0.3-0.5c0.2-0.2,0.3-0.3,0.3-0.5c0.2-0.2,0.3-0.3,0.3-0.3C176.1,45.5,176.2,45.4,176.4,45.5
			C176.2,45.4,176.4,45.4,176.4,45.5L176.4,45.5z"/>
	</g>
	<g>
		<path fill="#4D4D4D" d="M166.4,43.7c0,0,0.2,0.3,0.2,0.7c0,0.2,0,0.5,0,0.7c0,0.3,0,0.5-0.2,0.8c0,0.3,0,0.5-0.2,0.8
			s-0.3,0.3-0.5,0.5c-0.3,0.3-0.8,0.3-0.8,0.3s-0.2,0-0.2-0.2l0,0c0,0,0-0.2,0-0.3c0-0.2,0-0.3,0-0.5c0-0.2,0-0.5,0.2-0.7
			c0.2-0.2,0.3-0.3,0.5-0.5c0.3-0.5,0.5-0.8,0.8-1.4C166.2,43.8,166.4,43.7,166.4,43.7S166.4,43.5,166.4,43.7L166.4,43.7L166.4,43.7
			z"/>
	</g>
	<g>
		<path fill="#4D4D4D" d="M196.1,42.8c0,0,0,0.2,0.2,0.3c0,0,0,0.2,0.2,0.3c0.2,0.2,0.2,0.2,0.2,0.3c0,0.2,0.2,0.3,0.2,0.3
			c0.2,0.2,0.2,0.3,0.3,0.3c0.2,0.2,0.2,0.3,0.3,0.3c0.2,0.2,0.2,0.3,0.3,0.3c0.3,0.2,0.5,0.3,0.8,0.5c0.3,0.2,0.3,0.3,0.5,0.5
			c0.2,0.2,0.2,0.2,0.3,0.3c0,0.2,0.2,0.2,0.2,0.2c0.2,0.2,0.2,0.2,0.2,0.2l0,0v0.2l0,0c0,0-0.2,0.2-0.3,0.2c-0.2,0-0.2,0-0.3,0.2
			c-0.2,0-0.3,0-0.5,0c-0.3,0-0.7-0.2-1.2-0.3c-0.2-0.2-0.3-0.3-0.3-0.5c-0.2-0.2-0.3-0.3-0.3-0.5c-0.2-0.3-0.3-0.7-0.5-1.2
			c-0.2-0.3-0.2-0.7-0.2-1c0-0.2,0-0.3,0-0.3c0-0.2,0-0.2,0-0.3C196.1,43,196.1,42.8,196.1,42.8C195.7,42.8,195.9,42.7,196.1,42.8
			L196.1,42.8z"/>
	</g>
	<g>
		<path fill="#4D4D4D" d="M208.6,41.5c0,0,0.2,0.3,0.5,0.8c0.2,0.3,0.3,0.5,0.3,0.8c0.2,0.3,0.3,0.5,0.5,0.8
			c0.2,0.2,0.2,0.2,0.3,0.3c0.2,0,0.3,0.2,0.3,0.3c0.3,0.2,0.5,0.5,0.7,0.7c0.2,0.3,0.3,0.5,0.3,0.7c0,0.2,0.2,0.3,0.2,0.3
			s0,0.2-0.2,0.2l0,0c0,0-0.5,0.2-1.2,0c-0.3-0.2-0.7-0.2-1-0.5c-0.2-0.2-0.3-0.3-0.3-0.5c-0.2-0.2-0.3-0.3-0.3-0.5
			c-0.2-0.3-0.3-0.8-0.3-1.4c0-0.3,0-0.7-0.2-1C208.4,41.8,208.4,41.5,208.6,41.5C208.4,41.5,208.4,41.3,208.6,41.5
			C208.4,41.3,208.6,41.3,208.6,41.5z"/>
	</g>
	<g>
		<g>
			<path fill="#E8BF97" d="M145.2,41.8v154.6c0,0,0,6.8,5.9,6.8c7.1,0,7.1-5.4,7.8-5.6c0.5,0-1.2,9.7,6.9,9.7c6.9,0,6.3-8.1,6.4-8.1
				c0.3,0-0.8,12.7,6.4,12.7c7.3,0,6.3-12.2,6.4-12.2c0.3,0,0,31.5,0,31.5s-0.3,9.3,6.9,9.3c6.9,0,6.4-9.3,6.4-9.3l-0.3-36.9
				c0,0,12-1.5,12-11.2c0-9.7,0-141.2,0-141.2"/>
			<path fill="#4D4D4D" d="M145.1,42l0.3,20.3l0.3,20.3l0.3,20.3v20.3v40.8v20.3v10.2v1.4v0.3v0.2v0.2c0,0.2,0,0.3,0,0.5
				c0.2,0.7,0.3,1.5,0.5,2.2c0.3,0.7,0.7,1.4,1.2,1.7c0.2,0.3,0.5,0.3,0.8,0.5c0.3,0.2,0.5,0.3,1,0.3c0.3,0.2,0.7,0.2,1,0.2h0.2l0,0
				l0,0h0.5c0.2,0,0.3,0,0.5,0c0.7,0,1.5-0.2,2.2-0.5c1.4-0.5,2.4-1.5,3.1-2.9c0.2-0.3,0.3-0.7,0.5-1.2c0,0,0-0.2,0.2-0.2
				c0,0,0,0,0-0.2c0,0,0-0.2,0.2-0.2c0.2,0,0.2-0.2,0.3-0.3c0.5,0,0.5-0.3,1.2,0.2c0.3,0.3,0.3,0.3,0.3,0.5s0,0.2,0,0.2
				c0,0.3,0,0.5,0,0.8c0,0.8,0,1.7,0.2,2.4c0.2,1.5,0.7,3.1,1.7,3.9c1,1,2.4,1.4,3.9,1.4c1.5,0,2.9-0.5,3.7-1.5
				c0.8-1,1.4-2.5,1.5-4.2v-0.7c0-0.2,0-0.3,0.2-0.7v-0.2c0.2,0-0.2-0.2,0.5-0.7c1.7-0.3,1.4,0.7,1.5,0.7c0,0.2,0,0.2,0,0.2
				c0,0.2,0,0.3,0,0.3v0.7c0,0.8,0,1.7,0.2,2.5c0.2,1.7,0.3,3.2,1,4.7c0.5,1.4,1.4,2.7,2.7,3.1c0.5,0.3,1.4,0.3,2,0.3
				s1.4-0.3,1.9-0.7c1.2-0.7,1.9-2,2.2-3.6c0.5-1.5,0.7-3.1,0.7-4.7c0-0.3,0-0.8,0-1.2v-0.7v-0.2v-0.2c0,0,0,0,0-0.3
				c-0.5-1,3.4,0,2,0.2c0,0.2,0,0.2,0,0.2v0.2c0,0.8,0,1.7,0,2.5c0,3.4,0,6.8,0,10.2v10.2v5.1v2.5c0,0.8,0,1.7,0,2.4
				c0.2,1.5,0.5,3.1,1.4,4.4c0.8,1.2,2,2,3.4,2.2c0.3,0,0.7,0,1,0h0.3h0.2h0.2c0.2,0,0.3,0,0.5-0.2c0.7-0.2,1.4-0.3,1.9-0.8
				c1-0.8,1.7-2.2,2-3.7c0.2-0.7,0.3-1.5,0.3-2.4c0-0.3,0-0.8,0-1.2v-1.4v-5.1l-0.2-10.2l-0.2-20.3V193l1-0.2
				c0.7-0.2,1.5-0.3,2.2-0.5c0.7-0.2,1.5-0.5,2.2-0.8c1.4-0.5,2.9-1.4,3.9-2.4c1.2-1,2-2.2,2.4-3.7c0.3-0.7,0.3-1.4,0.3-2.2
				l-0.2-0.5l-0.2-0.7v-1v-19.8v-39.7l0.2-10c0-3.4,0-6.6,0-10l0.3-19.8l0.3-19.8l0.3-19.8l0.3,19.8l0.3,19.8l0.3,19.8
				c0,3.4-0.2,6.6-0.2,10l-0.2,10v39.7V181v1.2l0.2,0.7v0.7c0,0.8-0.2,1.9-0.5,2.7c-0.5,1.7-1.7,3.4-3.1,4.6c-1.4,1.2-2.9,2-4.6,2.9
				c-0.8,0.3-1.7,0.7-2.4,0.8c-0.8,0.3-1.7,0.3-2.5,0.5l0.8-1l0.2,20.3l0.2,10.2v5.1v1.2c0,0.5,0,1,0,1.4c0,0.8-0.2,1.9-0.3,2.7
				c-0.2,0.8-0.5,1.9-1,2.7c-0.3,0.8-1,1.7-1.9,2.4s-1.7,1.2-2.7,1.4c-0.2,0-0.5,0.2-0.7,0.2h-0.2h-0.2h-0.3c-0.5,0-1,0-1.5-0.2
				c-1-0.2-2-0.5-2.9-1c-0.8-0.5-1.5-1.4-2-2c-1-1.7-1.5-3.4-1.7-5.3c0-0.5-0.2-0.8-0.2-1.4s0-0.8,0-1.4v-2.5v-5.1v-10.2
				c0-3.4,0-6.8,0-10.2c0-0.8,0-1.7,0-2.5v-0.2l0,0c-1.4,0.2,2.5,1,2,0.2c0-0.2,0-0.2,0-0.2l0,0v0.2v0.7c0,0.3,0,0.8,0,1.4
				c-0.2,1.7-0.3,3.6-0.8,5.3c-0.3,0.8-0.7,1.7-1.2,2.5s-1.2,1.5-2,2.2c-0.8,0.5-1.9,0.8-2.9,1c-1,0.2-2,0-3.1-0.3
				c-1-0.3-1.9-1-2.4-1.9c-0.7-0.8-1-1.7-1.4-2.5c-0.7-1.7-1-3.6-1.2-5.3c-0.2-0.8-0.2-1.7-0.2-2.5v-0.7c0-0.2,0-0.2,0-0.2l0,0
				c0.3,0-0.2,0.8,1.4,0.5c0.7-0.5,0.3-0.5,0.5-0.5l0,0c0,0.2,0,0.3,0,0.5v0.7c-0.2,1.7-0.7,3.7-2,5.3c-0.7,0.8-1.5,1.4-2.4,1.9
				c-1,0.3-2,0.5-2.9,0.5c-1,0-1.9-0.2-2.9-0.3c-1-0.3-1.9-0.8-2.5-1.5c-0.7-0.7-1.2-1.5-1.5-2.5c-0.3-0.8-0.5-1.9-0.7-2.7
				c-0.2-0.8-0.2-1.9-0.2-2.7c0-0.2,0-0.3,0-0.5l0,0c0,0,0,0,0.3,0.3c0.7,0.3,0.5,0.2,1,0.2c0.3-0.2,0.2-0.2,0.3-0.2l0,0l0,0l0,0
				c-0.2,0.3-0.3,0.8-0.5,1.2c-0.3,0.8-1,1.7-1.7,2.4c-0.7,0.7-1.5,1.2-2.5,1.5c-0.8,0.3-1.9,0.5-2.7,0.7c-0.3,0-0.5,0-0.7,0h-0.3
				h-0.2c-0.2,0,0,0-0.2,0h-0.2c-0.5,0-1,0-1.5-0.2c-0.5-0.2-1-0.3-1.4-0.5c-0.3-0.3-0.8-0.5-1.4-0.8c-0.7-0.7-1.4-1.5-1.7-2.4
				c-0.3-0.8-0.7-1.9-0.7-2.7c0-0.2,0-0.5,0-0.7v-0.2v-0.2V196v-1.4v-10.2v-20.2v-40.7l-0.2-20.3l0.3-20.3l0.3-20.3L145.1,42z"/>
		</g>
		<path fill="#F2DBC9" stroke="#4D4D4D" stroke-width="2" stroke-linecap="round" stroke-miterlimit="10" d="M196.1,233.5
			c0,0-0.5,3.7-4.1,3.7c-3.6,0-3.9-3.7-3.9-3.7s1.4-1.4,4.1-1.4C194.7,232.1,196.1,233.5,196.1,233.5z"/>
		<g>
			<path fill="#4D4D4D" d="M210,123.5c0,0,0.2,0.2,0.5,0.5c0.2,0.2,0.3,0.3,0.5,0.5c0.2,0.2,0.3,0.3,0.5,0.5c0.2,0,0.2,0.2,0.3,0.2
				c0.2,0,0.2,0,0.3,0.2c0.2,0,0.2,0.2,0.2,0.2l0.2,0.2l0.2,0.2l0.2,0.2c0.2,0.2,0.2,0.2,0.2,0.2l0,0v0.2c0,0,0,0.2-0.2,0.2
				c0,0-0.2,0.2-0.3,0.2s-0.3,0-0.3,0.2c-0.2,0-0.3,0-0.3,0c-0.2,0-0.3-0.2-0.3-0.2c-0.3-0.2-0.3-0.5-0.7-0.7
				c-0.2-0.3-0.3-0.5-0.5-0.8c-0.2-0.3-0.2-0.5-0.3-0.7C209.8,123.8,209.8,123.5,210,123.5C209.8,123.5,209.8,123.5,210,123.5
				L210,123.5z"/>
		</g>
		<g>
			<path fill="#4D4D4D" d="M146.4,123.5c0,0,0,0,0,0.2s-0.2,0.3-0.2,0.5c-0.2,0.3-0.5,1-0.8,1.5c-0.2,0.2-0.2,0.3-0.3,0.3
				c-0.2,0-0.2,0.2-0.3,0.3c-0.3,0.2-0.5,0.2-0.8,0.2s-0.5-0.2-0.7-0.2c-0.3,0-0.3-0.2-0.3-0.2V126l0,0c0,0,0-0.2,0.2-0.2l0.2-0.2
				l0.2-0.2c0.2-0.2,0.3-0.3,0.5-0.3c0.2-0.2,0.5-0.2,0.7-0.2c0.2-0.2,0.3-0.3,0.7-0.3c0.2-0.2,0.3-0.3,0.5-0.5
				c0.2-0.2,0.3-0.3,0.3-0.3C146.2,123.7,146.2,123.7,146.4,123.5L146.4,123.5L146.4,123.5z"/>
		</g>
		<g>
			<path fill="#4D4D4D" d="M156.8,126.9c0,0,0.2,0.2,0,0.5c0,0.2,0,0.3,0,0.5c0,0.2-0.2,0.5-0.2,0.5c0,0.2,0,0.5-0.2,0.7
				c-0.2,0.2-0.3,0.3-0.5,0.3c-0.3,0.2-0.7,0-0.7,0s-0.2,0-0.2-0.2l0,0v-0.2c0-0.2,0-0.3,0-0.5c0-0.2,0-0.3,0.2-0.5
				c0.2-0.2,0.3-0.2,0.5-0.3c0.3-0.3,0.5-0.5,0.8-0.7C156.6,126.9,156.8,126.7,156.8,126.9C156.9,126.7,156.8,126.7,156.8,126.9
				C156.9,126.7,156.8,126.7,156.8,126.9L156.8,126.9z"/>
		</g>
		<g>
			<path fill="#4D4D4D" d="M155.2,102.5c0,0,0,0,0,0.2s0,0.3,0,0.5c0,0.2,0,0.3,0.2,0.7c0,0.2,0.2,0.5,0.3,0.7s0.3,0.3,0.3,0.5
				c0.2,0.2,0.2,0.3,0.2,0.5c0,0,0,0.2,0,0.3c0,0,0,0.2,0,0.3s0,0.3,0,0.3l0,0v0.2c0,0-0.2,0-0.3,0.2c-0.2,0-0.2,0-0.3,0
				c-0.2,0-0.3,0-0.3-0.2c-0.3-0.2-0.5-0.3-0.7-0.7c-0.2-0.2-0.2-0.3-0.2-0.5c0-0.2,0-0.3,0-0.5c0-0.3,0-0.7,0-1
				c0-0.2,0-0.3,0.2-0.3c0-0.2,0.2-0.3,0.2-0.3c0.2-0.2,0.2-0.3,0.3-0.5C155.2,102.5,155.2,102.5,155.2,102.5L155.2,102.5
				L155.2,102.5z"/>
		</g>
		<g>
			<path fill="#4D4D4D" d="M151.3,95.2c0,0,0,0.2,0,0.5c0,0.2,0,0.3,0,0.5c0,0.2-0.2,0.3-0.2,0.5c0,0.2-0.2,0.3-0.2,0.5
				c0,0.2-0.3,0.2-0.5,0.2c-0.3,0-0.7-0.2-0.7-0.2s-0.2,0-0.2-0.2l0,0v-0.2c0-0.2,0-0.3,0-0.5c0-0.2,0-0.3,0.2-0.3
				c0.2-0.2,0.3-0.2,0.3-0.2c0.2-0.2,0.3-0.2,0.3-0.3c0.2-0.2,0.3-0.2,0.3-0.3C151,95.4,151.2,95.2,151.3,95.2
				C151.2,95,151.2,95,151.3,95.2L151.3,95.2L151.3,95.2z"/>
		</g>
		<g>
			<path fill="#4D4D4D" d="M151.3,109.8c0,0,0,0.2-0.2,0.5c0,0.2-0.2,0.3-0.2,0.5c0,0.2-0.2,0.5-0.2,0.7c-0.2,0.2-0.2,0.5-0.2,0.7
				c-0.2,0.2-0.3,0.3-0.5,0.3c-0.2,0-0.3,0.2-0.5,0.2s-0.3,0-0.3,0s-0.2,0-0.2-0.2c0,0,0-0.2-0.2-0.3c-0.2-0.2,0-0.3,0-0.5
				s0-0.3,0.2-0.5c0.2-0.2,0.3-0.3,0.5-0.3c0.2-0.2,0.3-0.3,0.5-0.3c0.2-0.2,0.3-0.3,0.5-0.3C151,109.8,151.2,109.6,151.3,109.8
				C151.2,109.6,151.3,109.6,151.3,109.8L151.3,109.8z"/>
		</g>
		<g>
			<path fill="#4D4D4D" d="M165.9,101L165.9,101c0.2,0.3,0.2,0.3,0.3,0.5c0.2,0.2,0.2,0.3,0.3,0.5c0.2,0.2,0.3,0.3,0.3,0.5
				c0.2,0.2,0.3,0.2,0.5,0.3s0.2,0.3,0.2,0.3c0.2,0.3,0.3,0.7,0.3,0.7v0.2c0,0-0.2,0-0.2,0.2c-0.2,0-0.3,0.2-0.7,0.2
				c-0.3,0-0.5-0.2-0.7-0.3c-0.2-0.2-0.3-0.5-0.3-0.8c-0.2-0.3-0.2-0.5-0.2-0.8c0-0.3,0-0.5,0-0.7s0-0.3,0-0.5
				C165.7,101.1,165.7,101,165.9,101C165.7,101,165.7,101,165.9,101L165.9,101z"/>
		</g>
		<g>
			<path fill="#4D4D4D" d="M160,86c0,0,0,0.3-0.2,0.7c0,0.2-0.2,0.3-0.2,0.7c0,0.2-0.2,0.5-0.2,0.7c-0.2,0.2-0.2,0.5-0.2,0.7
				c-0.2,0.2-0.3,0.3-0.5,0.3c-0.2,0.2-0.3,0.2-0.5,0.2c-0.2,0-0.3,0-0.3,0s-0.2,0-0.2-0.2c0,0,0-0.2-0.2-0.3c0-0.2-0.2-0.3-0.2-0.5
				c0-0.2,0-0.3,0.2-0.7c0.2-0.2,0.3-0.3,0.5-0.5c0.2-0.2,0.3-0.3,0.5-0.5c0.2-0.2,0.3-0.3,0.5-0.3c0.3-0.3,0.5-0.3,0.5-0.3
				C159.8,85.9,160,86,160,86L160,86z"/>
		</g>
		<g>
			<path fill="#4D4D4D" d="M167.1,85.7c0,0,0,0,0,0.2V86c0,0,0,0.2,0,0.3c0,0.2,0,0.2,0.2,0.3c0,0.2,0.2,0.2,0.2,0.3
				c0,0.2,0.2,0.2,0.2,0.3c0,0.2,0.2,0.2,0.2,0.3s0.2,0.2,0.3,0.2c0.2,0,0.2,0.2,0.3,0.2l0.2,0.2c0,0,0,0.2,0.2,0.2l0.2,0.2l0.2,0.2
				c0.2,0.2,0.2,0.2,0.2,0.2l0,0v0.2c0,0,0,0.2-0.2,0.3c0,0.2-0.2,0.2-0.3,0.2c-0.2,0-0.3,0.2-0.3,0.2c-0.2,0-0.3,0-0.5,0
				c-0.2,0-0.3-0.2-0.5-0.3c-0.2-0.2-0.3-0.3-0.3-0.5c-0.2-0.2-0.2-0.3-0.2-0.5c0-0.2-0.2-0.3-0.2-0.5c0-0.2,0-0.3,0-0.5
				c0-0.3,0-0.5,0-0.8c0-0.2,0-0.2,0.2-0.3c0.2-0.2,0-0.2,0.2-0.2C167.1,85.9,167.1,85.7,167.1,85.7L167.1,85.7L167.1,85.7z"/>
		</g>
		<g>
			<path fill="#4D4D4D" d="M160.5,112.3c0,0,0.2,0.2,0.5,0.5c0.2,0.2,0.3,0.3,0.3,0.5c0.2,0.2,0.3,0.3,0.5,0.5
				c0.2,0.2,0.3,0.3,0.5,0.5c0.2,0.2,0.2,0.5,0.2,0.7s0,0.3-0.2,0.5c0,0.2-0.2,0.3-0.2,0.3H162c0,0-0.2,0-0.3,0
				c-0.2,0-0.3-0.2-0.5-0.3c-0.2-0.2-0.3-0.3-0.5-0.5c-0.2-0.2-0.2-0.5-0.2-0.7c0-0.3-0.2-0.5-0.2-0.7c0-0.2-0.2-0.5-0.2-0.7
				c0-0.3-0.2-0.7-0.2-0.7C160.3,112.3,160.3,112.3,160.5,112.3L160.5,112.3z"/>
		</g>
		<g>
			<path fill="#4D4D4D" d="M149,134.4c0,0-0.2,0.2-0.2,0.3c-0.2,0.2-0.3,0.5-0.3,0.8c0,0.2-0.2,0.3-0.2,0.5
				c-0.2,0.2-0.3,0.2-0.3,0.2c-0.2,0-0.3,0-0.5,0s-0.2,0-0.2,0l0,0c0,0-0.2,0-0.2-0.2c0,0-0.2-0.3-0.2-0.7c0-0.2,0-0.3,0.2-0.5
				c0.2-0.2,0.3-0.2,0.5-0.3c0.2-0.2,0.3-0.2,0.5-0.3c0.2,0,0.3,0,0.5,0C148.8,134.4,149,134.4,149,134.4L149,134.4
				C149.1,134.4,149.1,134.4,149,134.4L149,134.4z"/>
		</g>
		<g>
			<path fill="#4D4D4D" d="M149.3,82.8c0,0-0.2,0.2-0.2,0.3s-0.2,0.2-0.3,0.3c-0.2,0.2-0.2,0.2-0.3,0.3c-0.2,0.2-0.2,0.3-0.3,0.3
				s-0.3,0-0.3,0c-0.2,0-0.3-0.2-0.3-0.2c-0.2-0.2-0.2-0.2-0.2-0.2v-0.2v-0.2c0,0,0-0.3,0.2-0.3c0-0.2,0.2-0.3,0.3-0.3
				c0.2,0,0.3,0,0.3,0c0.2,0,0.3,0,0.3,0c0.2,0,0.3,0,0.3,0C149.1,82.7,149.3,82.7,149.3,82.8C149.3,82.7,149.3,82.7,149.3,82.8
				L149.3,82.8z"/>
		</g>
		<g>
			<path fill="#4D4D4D" d="M146.6,95.9c0,0,0,0,0,0.2v0.2c0,0.2,0,0.2,0,0.3c0,0.2,0,0.5,0,0.8c0,0.3-0.2,0.5-0.3,0.8
				c0,0.2-0.2,0.3-0.2,0.5c0,0.2-0.2,0.3-0.3,0.5c-0.2,0.2-0.5,0.3-0.8,0.3c-0.2,0-0.3,0-0.3,0s-0.2,0-0.3-0.2
				c-0.2,0-0.3-0.2-0.3-0.2v-0.2c0,0,0-0.2,0.2-0.2c0,0,0-0.2,0.2-0.2c0,0,0-0.2,0.2-0.3s0.2-0.3,0.3-0.5c0.2-0.2,0.3-0.2,0.5-0.3
				c0.2-0.2,0.3-0.3,0.3-0.5c0.2-0.2,0.3-0.3,0.3-0.5c0.2-0.2,0.2-0.3,0.2-0.3V96C146.2,95.9,146.4,95.9,146.6,95.9L146.6,95.9z"/>
		</g>
		<g>
			<path fill="#4D4D4D" d="M145.4,73c0,0,0,0.2-0.2,0.3c0,0.2-0.2,0.2-0.2,0.3c-0.2,0.2-0.2,0.3-0.3,0.3c-0.2,0.2-0.2,0.3-0.3,0.3
				s-0.3,0-0.3,0c-0.2,0-0.3-0.2-0.3-0.2c-0.2,0-0.2-0.2-0.2-0.2s0-0.2-0.2-0.2v-0.2c0-0.2,0-0.3,0-0.3c0-0.2,0.2-0.3,0.2-0.3
				c0.2,0,0.3,0,0.5,0c0.2,0,0.3,0,0.3,0c0.2,0,0.3,0,0.5,0C145.1,72.8,145.2,72.8,145.4,73C145.2,72.8,145.4,73,145.4,73L145.4,73z
				"/>
		</g>
		<g>
			<path fill="#4D4D4D" d="M150,67.6c0,0,0.2,0.3,0,0.7c0,0.2,0,0.3-0.2,0.7c-0.2,0.3-0.2,0.5-0.3,0.7c-0.2,0.3-0.2,0.5-0.3,0.7
				c-0.2,0.2-0.3,0.3-0.7,0.3c-0.3,0.2-1,0-1,0s-0.2,0-0.2-0.2l0,0c0,0,0.2-0.2,0.2-0.3s0.2-0.3,0.2-0.5s0.2-0.3,0.3-0.5
				c0.2-0.2,0.3-0.3,0.7-0.5c0.3-0.3,0.7-0.7,1-1C149.8,67.7,150,67.6,150,67.6C150,67.4,150,67.4,150,67.6L150,67.6L150,67.6z"/>
		</g>
		<g>
			<path fill="#4D4D4D" d="M155.6,72c0,0,0,0.2,0,0.5c0,0.2,0,0.3,0,0.5s-0.2,0.3-0.2,0.7c-0.2,0.2-0.2,0.5-0.2,0.7
				c-0.2,0.2-0.3,0.3-0.5,0.3c-0.3,0.2-0.7,0-0.7,0s-0.2,0-0.2-0.2l0,0c0,0,0-0.2,0-0.3c0-0.2,0-0.3,0-0.5c0-0.2,0-0.3,0.2-0.3
				c0.2,0,0.3-0.2,0.5-0.3c0.2-0.2,0.3-0.2,0.3-0.3c0.2-0.2,0.3-0.2,0.3-0.3C155.4,72.1,155.6,72,155.6,72
				C155.6,71.8,155.6,71.8,155.6,72L155.6,72L155.6,72z"/>
		</g>
		<g>
			<path fill="#4D4D4D" d="M145.1,86.6c0,0,0,0.2-0.2,0.5c-0.2,0.3-0.3,0.7-0.7,1.2c-0.2,0.2-0.3,0.3-0.5,0.5
				c-0.2,0.2-0.5,0.2-0.7,0c-0.3,0-0.7-0.3-0.7-0.3v-0.2l0,0c0,0,0-0.2,0.2-0.2c0-0.2,0.2-0.3,0.2-0.3c0.2-0.2,0.2-0.3,0.3-0.3
				c0.2,0,0.3,0,0.5-0.2c0.2,0,0.3-0.2,0.5-0.2c0.2-0.2,0.3-0.2,0.5-0.2C144.9,86.7,145.1,86.6,145.1,86.6
				C144.9,86.4,144.9,86.4,145.1,86.6C145.1,86.4,145.1,86.4,145.1,86.6L145.1,86.6z"/>
		</g>
		<g>
			<path fill="#4D4D4D" d="M157.9,76.7c0,0,0,0.2,0,0.5c0,0.2,0,0.3-0.2,0.5c-0.2,0.2-0.2,0.3-0.2,0.7c0,0.2,0,0.5-0.2,0.7
				c-0.2,0.2-0.3,0.3-0.5,0.3c-0.2,0.2-0.3,0.2-0.5,0.2c-0.2,0-0.3,0-0.3,0s-0.2,0-0.2-0.2c0,0,0-0.2-0.2-0.2c0-0.2,0-0.3-0.2-0.5
				c0-0.2,0-0.3,0.2-0.5s0.3-0.3,0.5-0.3c0.3-0.3,0.5-0.7,0.8-0.8c0.2-0.3,0.3-0.3,0.3-0.3C157.6,76.6,157.8,76.6,157.9,76.7
				C157.8,76.7,157.9,76.7,157.9,76.7L157.9,76.7z"/>
		</g>
		<g>
			<path fill="#4D4D4D" d="M154.4,136.6c0,0,0.2,0.2,0.3,0.3c0.2,0.2,0.2,0.2,0.3,0.3c0.2,0.2,0.2,0.2,0.3,0.3
				c0.2,0.2,0.3,0.2,0.3,0.2c0.2,0.2,0.2,0.3,0.2,0.3c0,0.2,0,0.3,0,0.3c0,0.2,0,0.2,0,0.2l0,0c0,0,0,0.2-0.2,0.2
				c0,0-0.3,0.2-0.7,0.2c-0.2,0-0.3-0.2-0.5-0.3c-0.2-0.2-0.2-0.3-0.2-0.5c-0.2-0.3-0.2-0.7-0.2-1S154.2,136.4,154.4,136.6
				L154.4,136.6C154.2,136.6,154.4,136.6,154.4,136.6L154.4,136.6z"/>
		</g>
		<g>
			<path fill="#4D4D4D" d="M146.8,144.9c0,0,0,0.2-0.3,0.5c-0.2,0.2-0.2,0.3-0.3,0.5c-0.2,0.2-0.3,0.3-0.5,0.5
				c-0.2,0.2-0.3,0.3-0.5,0.5c-0.2,0.2-0.5,0.2-0.7,0c-0.3,0-0.7-0.3-0.7-0.3v-0.2l0,0c0,0,0-0.2,0.2-0.2c0-0.2,0.2-0.3,0.3-0.3
				c0.2-0.2,0.2-0.3,0.3-0.3c0.2,0,0.3,0,0.7-0.2c0.3-0.2,0.8-0.3,1.2-0.3C146.4,144.9,146.6,144.9,146.8,144.9L146.8,144.9
				L146.8,144.9L146.8,144.9z"/>
		</g>
		<g>
			<path fill="#4D4D4D" d="M151.3,144.9c0,0,0.2,0.2,0.3,0.5c0,0.2,0.2,0.3,0.2,0.7c0,0.2,0.2,0.5,0.2,0.7c0,0.2,0.2,0.5,0,0.8
				c0,0.3-0.2,0.3-0.3,0.5c-0.3,0.3-0.7,0.3-0.7,0.3h-0.2l0,0c0,0,0-0.2-0.2-0.2c0-0.2-0.2-0.3-0.2-0.5c0-0.2-0.2-0.3,0-0.5
				c0-0.2,0.2-0.3,0.3-0.5c0.2-0.3,0.3-0.8,0.3-1.2C151,145.2,151.2,144.9,151.3,144.9C151.2,144.9,151.2,144.9,151.3,144.9
				L151.3,144.9L151.3,144.9z"/>
		</g>
		<g>
			<path fill="#4D4D4D" d="M165.4,138.4c0,0,0,0.3,0,0.7c0,0.2,0,0.5-0.2,0.7c0,0.3-0.2,0.5-0.2,0.8s0,0.5-0.2,0.8
				c-0.2,0.2-0.3,0.3-0.5,0.5c-0.3,0.3-0.8,0.3-0.8,0.3h-0.2l0,0c0,0,0-0.2-0.2-0.3c0-0.2,0-0.3,0-0.5c0-0.2,0-0.5,0.2-0.7
				c0.2-0.2,0.3-0.3,0.5-0.5c0.3-0.3,0.7-0.8,0.8-1.2C165.2,138.6,165.2,138.4,165.4,138.4C165.4,138.2,165.4,138.2,165.4,138.4
				L165.4,138.4z"/>
		</g>
		<g>
			<path fill="#4D4D4D" d="M166.8,121.6c0,0,0.2,0.2,0.3,0.3c0.2,0.2,0.2,0.3,0.3,0.3c0.2,0.2,0.2,0.3,0.3,0.3
				c0.2,0.2,0.3,0.2,0.3,0.3c0.2,0.5,0.2,0.7,0.2,0.8c0,0.2,0,0.3,0,0.5c0,0.2,0,0.3,0,0.3l0,0c0,0,0,0.2-0.2,0.2c0,0-0.3,0.2-0.8,0
				c-0.2,0-0.3-0.2-0.5-0.3s-0.2-0.5-0.2-0.7c0-0.7,0-1.2,0-1.5C166.6,122,166.6,121.8,166.8,121.6L166.8,121.6
				C166.6,121.6,166.8,121.6,166.8,121.6L166.8,121.6z"/>
		</g>
		<g>
			<path fill="#4D4D4D" d="M170.5,111.5c0,0,0.2,0.2,0.3,0.3c0.2,0.2,0.3,0.5,0.7,0.7c0.2,0.2,0.3,0.2,0.3,0.3s0,0.3,0,0.3
				c0,0.2,0,0.3-0.2,0.3c0,0.2-0.2,0.2-0.2,0.2l0,0c0,0,0,0.2-0.2,0.2c0,0-0.3,0-0.7,0c-0.2,0-0.3-0.2-0.3-0.3
				c-0.2-0.2,0-0.3-0.2-0.5c0-0.2,0-0.3,0-0.5c0-0.2,0-0.3,0-0.5c0-0.3,0-0.5,0-0.5l0,0C170.3,111.5,170.3,111.5,170.5,111.5
				L170.5,111.5z"/>
		</g>
		<g>
			<path fill="#4D4D4D" d="M173,98.4c0,0,0.2,0.2,0.3,0.2c0.2,0,0.3,0.2,0.3,0.3c0.2,0.2,0.3,0.2,0.3,0.3c0.2,0.2,0.3,0.2,0.3,0.3
				c0.2,0.2,0.2,0.3,0,0.3c0,0.2,0,0.3-0.2,0.3c0,0.2-0.2,0.2-0.2,0.2s-0.2,0-0.2,0.2h-0.2c-0.2,0-0.3,0-0.5,0s-0.3-0.2-0.3-0.2
				c0-0.2,0-0.3-0.2-0.5c-0.2-0.2-0.2-0.3-0.2-0.5c0-0.2,0-0.3,0-0.5C172.9,98.8,172.9,98.6,173,98.4
				C172.9,98.4,172.9,98.4,173,98.4L173,98.4z"/>
		</g>
		<g>
			<path fill="#4D4D4D" d="M175.4,85.4L175.4,85.4c0.2,0.2,0.3,0.3,0.3,0.3c0.2,0.2,0.3,0.2,0.3,0.3c0.2,0,0.3,0.2,0.3,0.2
				c0.2,0,0.3,0,0.3,0c0.2,0,0.2,0.2,0.3,0.3c0.2,0.3,0.3,0.5,0.3,0.5v0.2c0,0,0,0.2-0.2,0.2c-0.2,0.2-0.3,0.2-0.5,0.3
				c-0.2,0-0.5,0.2-0.7,0c-0.2-0.2-0.3-0.3-0.5-0.5c-0.3-0.3-0.5-0.8-0.5-1.2c0-0.2,0-0.3,0-0.3S175.2,85.4,175.4,85.4
				C175.2,85.4,175.4,85.4,175.4,85.4L175.4,85.4z"/>
		</g>
		<g>
			<path fill="#4D4D4D" d="M162.7,67.6c0,0,0.2,0.3,0,0.7c-0.2,0.3-0.2,0.8-0.5,1.4c-0.2,0.2-0.2,0.5-0.3,0.7
				c-0.2,0.2-0.3,0.2-0.7,0.2c-0.3,0-0.8-0.2-0.8-0.2l-0.2-0.2l0,0c0,0,0.2-0.2,0.2-0.3c0-0.2,0.2-0.3,0.2-0.5s0.2-0.3,0.3-0.3
				c0.2,0,0.3-0.2,0.5-0.3c0.2-0.2,0.3-0.2,0.5-0.3c0.2-0.2,0.3-0.3,0.5-0.3C162.5,67.6,162.7,67.4,162.7,67.6
				C162.9,67.4,162.7,67.4,162.7,67.6C162.9,67.6,162.7,67.6,162.7,67.6L162.7,67.6z"/>
		</g>
		<g>
			<path fill="#4D4D4D" d="M157.1,59.9c0,0,0,0.3-0.2,0.7c0,0.2-0.2,0.5-0.2,0.7c0,0.2-0.2,0.5-0.2,0.7c0,0.2-0.2,0.5-0.2,0.7
				c0,0.2-0.2,0.2-0.3,0.3c-0.2,0.2-0.3,0.2-0.5,0.2c-0.2,0-0.3,0-0.3,0h-0.2c0,0,0-0.2-0.2-0.3c-0.2-0.2-0.2-0.3-0.2-0.5
				c0-0.2,0-0.3,0.2-0.7c0.2-0.2,0.3-0.3,0.5-0.5c0.2-0.2,0.3-0.3,0.5-0.5c0.2-0.2,0.3-0.3,0.5-0.3
				C156.8,59.9,156.9,59.9,157.1,59.9C157.1,59.8,157.1,59.9,157.1,59.9C157.1,59.8,157.1,59.9,157.1,59.9z"/>
		</g>
		<g>
			<path fill="#4D4D4D" d="M145.4,59.9L145.4,59.9c0,0.3,0,0.5,0,0.7c0,0.3-0.2,1-0.3,1.5c-0.2,0.3-0.2,0.5-0.3,0.8
				c-0.2,0.3-0.5,0.3-0.7,0.3c-0.3,0-0.5,0-0.7,0c-0.2,0-0.3-0.2-0.3-0.2V63l0,0c0,0,0-0.2,0-0.3v-0.2c0,0,0-0.2,0.2-0.3
				c0-0.2,0.2-0.3,0.3-0.3c0.2-0.2,0.3-0.2,0.5-0.3c0.2-0.2,0.3-0.3,0.5-0.5c0.2-0.2,0.3-0.3,0.3-0.5c0.2-0.2,0.2-0.3,0.3-0.3
				C145.2,59.9,145.2,59.9,145.4,59.9C145.2,59.9,145.2,59.9,145.4,59.9L145.4,59.9z"/>
		</g>
		<g>
			<path fill="#4D4D4D" d="M153.5,117.6c0,0,0,0,0,0.2c0,0.2,0,0.3,0.2,0.5c0,0.3,0,1-0.2,1.7c0,0.2-0.2,0.3-0.2,0.5
				c0,0.2-0.2,0.3-0.2,0.3c-0.2,0.3-0.5,0.3-0.7,0.5c-0.2,0.2-0.5,0.2-0.7,0c-0.2,0-0.3-0.2-0.3-0.2s-0.2-0.2,0-0.2l0,0
				c0,0,0-0.2,0-0.3c0,0,0-0.2,0-0.3c0-0.2,0-0.2,0-0.3s0.2-0.3,0.3-0.5c0.2-0.2,0.3-0.3,0.5-0.5c0.2-0.2,0.3-0.3,0.3-0.5
				c0.2-0.2,0.3-0.3,0.3-0.5c0.2-0.2,0.2-0.3,0.2-0.5C153.5,117.6,153.5,117.6,153.5,117.6L153.5,117.6L153.5,117.6z"/>
		</g>
		<g>
			<path fill="#4D4D4D" d="M161.3,129.9c0,0,0,0.2,0.2,0.5c0,0.3,0,0.8-0.2,1.4c0,0.2,0,0.5-0.2,0.7c-0.2,0.2-0.3,0.3-0.5,0.5
				c-0.3,0.2-0.8,0-0.8,0s-0.2,0-0.2-0.2l0,0c0,0,0-0.2,0-0.3c0-0.2,0-0.3,0-0.5c0-0.2,0-0.3,0.2-0.5c0.2-0.2,0.3-0.2,0.3-0.3
				c0.2-0.2,0.3-0.3,0.3-0.5c0.2-0.2,0.2-0.3,0.3-0.3C161,130.3,161.2,130.1,161.3,129.9C161.2,129.9,161.2,129.9,161.3,129.9
				L161.3,129.9L161.3,129.9z"/>
		</g>
		<g>
			<path fill="#4D4D4D" d="M158.4,148.9c0,0,0,0.3,0,0.7c0,0.3,0,0.8-0.2,1.4c-0.2,0.3-0.2,0.5-0.2,0.7c-0.2,0.2-0.3,0.3-0.5,0.3
				c-0.3,0.2-0.8,0-0.8,0s-0.2,0-0.2-0.2l0,0c0,0,0-0.2,0-0.3c0-0.2,0-0.3,0-0.5c0-0.2,0-0.3,0.2-0.5c0.2-0.2,0.3-0.3,0.5-0.3
				c0.2-0.2,0.3-0.3,0.3-0.5c0.2-0.2,0.3-0.3,0.3-0.5C158.1,149.1,158.3,148.9,158.4,148.9C158.3,148.8,158.3,148.8,158.4,148.9
				L158.4,148.9L158.4,148.9z"/>
		</g>
		<g>
			<path fill="#4D4D4D" d="M147.9,155.9c0,0,0,0.2-0.2,0.3c0,0.2-0.2,0.3-0.2,0.3c0,0.2-0.2,0.3-0.3,0.5s-0.2,0.3-0.2,0.5
				c0,0.2-0.3,0.2-0.3,0.2c-0.2,0-0.3,0-0.5,0s-0.2,0-0.2,0s-0.2,0-0.2-0.2v-0.2c0-0.2,0-0.3,0-0.5s0-0.3,0.2-0.3
				c0.2-0.2,0.3-0.2,0.5-0.2c0.2,0,0.3-0.2,0.5-0.2s0.3-0.2,0.3-0.2C147.6,155.9,147.8,155.7,147.9,155.9
				C147.9,155.7,147.9,155.7,147.9,155.9L147.9,155.9z"/>
		</g>
		<g>
			<path fill="#4D4D4D" d="M152.5,158.8c0,0-0.2,0.2-0.3,0.5c-0.2,0.2-0.2,0.3-0.3,0.5c-0.2,0.2-0.2,0.3-0.3,0.5s-0.2,0.3-0.3,0.5
				c-0.2,0.2-0.3,0.2-0.5,0.2c-0.2,0-0.3,0-0.5,0c-0.2,0-0.3,0-0.3,0s-0.2,0-0.2-0.2c0,0,0-0.2,0-0.3c0-0.2,0-0.3,0-0.5
				c0-0.2,0.2-0.3,0.3-0.5c0.2-0.2,0.3-0.2,0.5-0.3s0.3-0.2,0.5-0.3c0.2-0.2,0.3-0.2,0.5-0.2C152.2,158.8,152.3,158.8,152.5,158.8
				C152.3,158.8,152.5,158.8,152.5,158.8L152.5,158.8z"/>
		</g>
		<g>
			<path fill="#4D4D4D" d="M171.2,72.3c0,0,0,0.3,0,0.7c0,0.3-0.2,1-0.3,1.5c-0.2,0.3-0.2,0.5-0.3,0.8c-0.2,0.2-0.3,0.3-0.7,0.5
				c-0.5,0.2-1,0.2-1,0.2s-0.2,0-0.2-0.2l0,0c0,0,0.2-0.2,0.2-0.3c0-0.2,0.2-0.3,0.2-0.5c0-0.2,0.2-0.3,0.3-0.5s0.3-0.3,0.5-0.5
				c0.2-0.2,0.3-0.3,0.5-0.5c0.2-0.2,0.3-0.3,0.3-0.5C170.8,72.7,171,72.5,171.2,72.3C171,72.3,171.2,72.3,171.2,72.3L171.2,72.3
				L171.2,72.3z"/>
		</g>
		<g>
			<path fill="#4D4D4D" d="M168.1,56.7c0,0,0,0.3,0,0.7c0,0.2,0,0.3,0,0.7c0,0.2,0,0.5-0.2,0.7c-0.2,0.2,0,0.5-0.2,0.7
				c-0.2,0.2-0.3,0.3-0.5,0.5c-0.3,0.2-0.8,0.2-0.8,0.2s-0.2,0-0.2-0.2l0,0c0,0,0-0.2,0-0.3c0-0.2,0-0.3,0-0.5c0-0.2,0-0.3,0.2-0.5
				c0.2-0.2,0.3-0.3,0.5-0.5c0.3-0.3,0.5-0.7,0.8-1C167.9,56.7,168.1,56.6,168.1,56.7C168.3,56.6,168.3,56.6,168.1,56.7
				C168.1,56.6,168.1,56.6,168.1,56.7L168.1,56.7z"/>
		</g>
		<g>
			<path fill="#4D4D4D" d="M210.8,74.9c0,0,0,0,0,0.2c0,0.2,0.2,0.3,0.2,0.5s0.2,0.3,0.3,0.7c0.2,0.2,0.3,0.5,0.3,0.7
				c0.2,0.2,0.3,0.3,0.5,0.5c0.2,0.2,0.2,0.3,0.2,0.5s0,0.2,0,0.3c0,0.2,0,0.2,0,0.3c0,0.2,0,0.3,0,0.3l0,0v0.2c0,0-0.2,0-0.3,0
				c-0.2,0-0.3,0-0.7-0.2c-0.3-0.2-0.5-0.3-0.7-0.5c-0.2-0.2-0.2-0.3-0.2-0.3c0-0.2,0-0.3-0.2-0.5c-0.2-0.7-0.2-1.4,0-1.7
				c0-0.2,0-0.3,0.2-0.5c0-0.2,0-0.2,0-0.2C210.5,74.9,210.5,74.9,210.8,74.9C210.7,74.9,210.8,74.9,210.8,74.9z"/>
		</g>
		<g>
			<path fill="#4D4D4D" d="M210.3,94.4c0,0,0.2,0.2,0.3,0.3c0.2,0.2,0.3,0.3,0.3,0.3c0.2,0.2,0.3,0.3,0.3,0.3
				c0.2,0.2,0.3,0.2,0.5,0.3C212,95.9,212,96,212,96s0.2,0.3,0.2,0.5c0,0.2,0,0.3,0,0.3l0,0c0,0,0,0.2-0.2,0.2c0,0-0.3,0.2-0.8,0.2
				c-0.2,0-0.5-0.2-0.7-0.3c0.2,0,0.2-0.2,0.2-0.2c0-0.2-0.2-0.3-0.2-0.3c-0.2-0.5-0.3-1-0.3-1.4c0-0.2,0-0.3,0-0.3v-0.2
				C210.1,94.4,210.1,94.4,210.3,94.4L210.3,94.4z"/>
		</g>
		<g>
			<path fill="#4D4D4D" d="M206.9,105.7c0,0,0,0,0,0.2c0,0.2,0.2,0.3,0.2,0.5s0.2,0.5,0.3,0.7c0.2,0.3,0.3,0.5,0.3,0.7
				c0.2,0.3,0.3,0.3,0.5,0.7c0.2,0.2,0.2,0.5,0.2,0.7s0,0.2,0,0.3c0,0.2,0,0.2,0,0.3s0,0.3,0,0.3s0,0.2-0.2,0.2c0,0-0.2,0-0.3,0
				s-0.3-0.2-0.7-0.2c-0.3-0.2-0.5-0.3-0.7-0.7c-0.2-0.2-0.2-0.3-0.2-0.5c0-0.2,0-0.3-0.2-0.5c-0.2-0.7-0.2-1.4-0.2-1.9
				c0-0.3,0-0.5,0-0.5c0-0.2,0-0.2,0-0.2C206.6,105.5,206.6,105.5,206.9,105.7C206.8,105.5,206.9,105.7,206.9,105.7z"/>
		</g>
		<g>
			<path fill="#4D4D4D" d="M206.6,85c0,0,0,0.3,0.2,0.7c0.2,0.3,0.2,0.8,0.3,1.4c0,0.2,0.3,0.3,0.3,0.7s0,0.3,0,0.5
				c0,0.2-0.2,0.3-0.2,0.5c0,0.2-0.2,0.3-0.2,0.3l0,0h-0.2c0,0-0.3,0-0.8-0.3c-0.2-0.2-0.3-0.3-0.3-0.7s0-0.5,0-0.8
				c0-0.3,0-0.5,0.2-0.8c0-0.3,0.2-0.5,0.2-0.7C206.2,85.2,206.4,85,206.6,85L206.6,85C206.4,84.9,206.6,84.9,206.6,85L206.6,85z"/>
		</g>
		<g>
			<path fill="#4D4D4D" d="M202,89.3c0,0,0.2,0.2,0.5,0.5c0.2,0.2,0.3,0.3,0.5,0.5c0.2,0.2,0.3,0.3,0.5,0.7c0.2,0.2,0.3,0.3,0.5,0.7
				c0.2,0.2,0.2,0.5,0.2,0.7s0,0.3-0.2,0.5s-0.2,0.3-0.2,0.3s-0.2,0.2-0.2,0c0,0-0.2,0-0.3,0c-0.2,0-0.3-0.2-0.5-0.3
				c-0.2-0.2-0.3-0.3-0.5-0.5c-0.2-0.2-0.2-0.5-0.2-0.8c0-0.3-0.2-0.5-0.2-0.8c0-0.3-0.2-0.5-0.2-0.7
				C201.8,89.6,201.8,89.4,202,89.3C201.8,89.4,201.8,89.3,202,89.3L202,89.3z"/>
		</g>
		<g>
			<path fill="#4D4D4D" d="M210.8,60.6c0,0,0.2,0.2,0.2,0.5c0.2,0.3,0.3,0.5,0.5,0.8c0.2,0.2,0.3,0.3,0.3,0.3c0,0.2,0,0.3,0,0.5
				c0,0.2-0.2,0.3-0.2,0.3c0,0.2-0.2,0.2-0.2,0.2l0,0c0,0,0,0.2-0.2,0.2c0,0-0.3,0-0.7-0.2c-0.2-0.2-0.3-0.2-0.3-0.3
				c0-0.2,0-0.5,0-0.7c0-0.2,0-0.3,0-0.7c0-0.2,0-0.3,0.2-0.5c0.2-0.3,0.2-0.5,0.2-0.5l0,0C210.7,60.6,210.7,60.6,210.8,60.6
				L210.8,60.6z"/>
		</g>
		<g>
			<path fill="#4D4D4D" d="M211,87.2c0,0,0.2,0.3,0.3,0.7c0.2,0.2,0.2,0.3,0.3,0.5c0.2,0.2,0.2,0.5,0.3,0.7c0.2,0.2,0.3,0.3,0.5,0.5
				c0.2,0.2,0.2,0.3,0.2,0.7c0,0.2,0,0.5,0,0.5v0.3l0,0c0,0,0,0.2-0.2,0.2c0,0-0.5,0-0.8-0.2c-0.2-0.2-0.3-0.3-0.5-0.5
				c-0.2-0.3-0.2-0.5-0.2-0.8c0-0.3-0.2-0.5-0.2-0.8c0-0.3,0-0.5,0-0.7C210.8,87.6,211,87.2,211,87.2L211,87.2
				C210.8,87.1,211,87.1,211,87.2C211,87.1,211,87.1,211,87.2z"/>
		</g>
		<g>
			<path fill="#4D4D4D" d="M203.5,69.8L203.5,69.8c0.2,0.3,0.3,0.3,0.3,0.5c0.2,0.2,0.3,0.3,0.3,0.5c0.2,0.2,0.3,0.3,0.5,0.5
				c0.2,0.2,0.3,0.2,0.5,0.3c0.2,0.2,0.3,0.3,0.3,0.3c0.3,0.5,0.3,0.7,0.3,0.7v0.2c0,0,0,0.2-0.2,0.2c-0.2,0.2-0.3,0.2-0.7,0.2
				c-0.3,0-0.7-0.2-0.8-0.3c-0.2-0.2-0.3-0.5-0.5-0.8c-0.2-0.3-0.3-0.5-0.3-0.8c-0.2-0.3-0.2-0.5-0.2-0.8c0-0.2,0-0.2,0-0.3
				s0-0.2,0-0.2c0-0.2,0-0.2,0-0.2C203.4,69.6,203.4,69.6,203.5,69.8L203.5,69.8z"/>
		</g>
		<g>
			<path fill="#4D4D4D" d="M200.1,74.9c0,0,0,0.2,0.2,0.2c0,0.2,0.2,0.3,0.3,0.5c0.2,0.3,0.3,0.5,0.3,0.8c0.2,0.3,0.3,0.5,0.5,0.8
				c0.2,0.3,0.3,0.5,0.5,0.8s0.2,0.5,0.3,0.8c0,0.3,0.2,0.5,0.2,0.7s0,0.3,0,0.3s0,0.2-0.2,0.2c0,0-0.2,0-0.3,0s-0.3-0.2-0.7-0.3
				s-0.5-0.3-0.7-0.7c-0.2-0.2-0.2-0.3-0.2-0.5c0-0.2-0.2-0.3-0.2-0.5c-0.2-0.7-0.3-1.5-0.3-2C199.8,75.4,199.8,75.2,200.1,74.9
				C200,74.9,200,74.7,200.1,74.9C200,74.7,200,74.7,200.1,74.9C200,74.9,200,74.9,200.1,74.9z"/>
		</g>
		<g>
			<path fill="#4D4D4D" d="M193.7,76.7c0,0,0,0.2,0,0.3c0,0.2,0,0.5,0,0.7c0,0.5,0.2,1.4,0.3,2c0.2,0.3,0.3,0.7,0.5,1
				c0.2,0.3,0.2,0.7,0.2,0.8s0,0.3,0,0.5c0,0.2,0,0.3,0,0.3c0,0.2,0,0.3,0,0.3l0,0l-0.2,0.2l0,0c0,0-0.2,0-0.3-0.2
				c-0.2,0-0.5-0.2-0.7-0.5c-0.3-0.2-0.5-0.5-0.7-1c0-0.2-0.2-0.3-0.2-0.7s0-0.3,0-0.7c0-0.2,0-0.3,0-0.7c0-0.3,0-0.3,0-0.5
				s0-0.3,0.2-0.5c0-0.2,0-0.3,0.2-0.5c0.2-0.3,0.2-0.5,0.3-0.7C193.4,76.7,193.5,76.7,193.7,76.7C193.5,76.6,193.5,76.6,193.7,76.7
				L193.7,76.7z"/>
		</g>
		<g>
			<path fill="#4D4D4D" d="M195.6,66.9L195.6,66.9c0.2,0.3,0.2,0.3,0.2,0.5c0,0.2,0.2,0.3,0.3,0.5c0.2,0.2,0.2,0.3,0.3,0.3
				c0.2,0.2,0.3,0.2,0.3,0.3c0.2,0.2,0.2,0.3,0.2,0.3c0,0.2,0,0.2,0,0.3s0,0.2,0,0.2c0,0.2,0,0.3,0,0.3v0.2c0,0-0.2,0-0.3,0.2
				c-0.2,0-0.3,0-0.5,0c-0.2,0-0.5-0.2-0.5-0.3c-0.2-0.2-0.2-0.5-0.2-0.7c-0.2-0.5-0.2-1,0-1.4c0-0.2,0.2-0.3,0.2-0.3
				c0-0.2,0-0.2,0-0.2C195.4,66.7,195.4,66.7,195.6,66.9C195.6,66.7,195.6,66.9,195.6,66.9z"/>
		</g>
		<g>
			<path fill="#4D4D4D" d="M199.3,58.1c0,0,0.2,0.3,0.3,0.5c0.2,0.3,0.3,0.8,0.7,1.4c0.2,0.2,0.3,0.5,0.3,0.7c0,0.2,0,0.5,0,0.7
				c0,0.2-0.2,0.5-0.2,0.5c0,0.2-0.2,0.3-0.2,0.3h-0.2c0,0-0.2,0-0.3-0.2c-0.2,0-0.3-0.2-0.5-0.3c-0.2-0.2-0.3-0.3-0.3-0.5
				c0-0.3,0-0.5,0-0.8s0-0.5,0-0.8s0-0.5,0-0.7C199.1,58.4,199.1,58.1,199.3,58.1C199.1,58.1,199.1,58.1,199.3,58.1
				C199.1,58.1,199.1,58.1,199.3,58.1z"/>
		</g>
		<g>
			<path fill="#4D4D4D" d="M186.8,61.5c0,0,0,0,0,0.2c0,0.2,0,0.3,0.2,0.5c0.2,0.3,0.3,0.8,0.5,1.4c0.2,0.2,0.3,0.3,0.3,0.5
				c0.2,0.2,0.2,0.5,0.2,0.5c0,0.2,0,0.3,0,0.5c0,0.2,0,0.3,0,0.3s0,0.2-0.2,0.2c0,0-0.2,0-0.3,0c-0.2,0-0.3-0.2-0.5-0.3
				s-0.3-0.3-0.5-0.5c-0.2-0.3,0-0.5-0.2-0.8c0-0.3,0-0.5,0-0.8s0-0.5,0.2-0.7c0-0.2,0.2-0.3,0.2-0.5
				C186.8,61.5,186.8,61.5,186.8,61.5L186.8,61.5C186.8,61.3,186.8,61.5,186.8,61.5z"/>
		</g>
		<g>
			<path fill="#4D4D4D" d="M176.1,60.6c0,0,0.2,0.3,0.5,0.7c0.2,0.2,0.3,0.3,0.5,0.7s0.3,0.5,0.5,0.8c0.2,0.3,0.3,0.5,0.5,0.8
				c0.2,0.3,0.2,0.5,0.2,0.8c0,0.3,0,0.5-0.2,0.7c0,0.2-0.2,0.3-0.2,0.3h-0.2c0,0-0.2,0-0.3-0.2c-0.2-0.2-0.3-0.2-0.5-0.3
				c-0.2-0.2-0.3-0.3-0.5-0.7s-0.2-0.7-0.2-0.8c0-0.3-0.2-0.7-0.2-0.8c0-0.3-0.2-0.5-0.2-0.8C175.9,61,175.9,60.6,176.1,60.6
				C175.9,60.6,175.9,60.6,176.1,60.6C175.9,60.5,176.1,60.5,176.1,60.6z"/>
		</g>
		<g>
			<path fill="#4D4D4D" d="M182.2,75.9c0,0,0.2,0.2,0.3,0.5c0.3,0.3,0.5,0.7,0.8,1.2c0.2,0.2,0.3,0.3,0.5,0.5s0.2,0.5,0.2,0.7
				c0,0.2,0,0.5-0.2,0.5c0,0.2-0.2,0.3-0.2,0.3s-0.2,0.2-0.2,0c0,0-0.2,0-0.3,0c-0.2,0-0.3-0.2-0.5-0.3c-0.2-0.2-0.3-0.3-0.5-0.5
				c-0.2-0.2-0.2-0.5-0.2-0.8c0-0.3-0.2-0.5-0.2-0.8c0-0.3,0-0.5-0.2-0.7c0-0.3,0-0.7,0-0.7C182,75.9,182,75.7,182.2,75.9
				L182.2,75.9z"/>
		</g>
		<g>
			<path fill="#4D4D4D" d="M188.8,88.9c0,0,0.2,0.3,0.5,0.7c0.2,0.2,0.3,0.3,0.5,0.7c0.2,0.3,0.3,0.5,0.5,0.7
				c0.2,0.3,0.5,0.3,0.7,0.7c0.2,0.2,0.3,0.5,0.3,0.7c0,0.3,0.3,0.5,0.3,0.7c0,0.2,0.2,0.3,0.2,0.3l0,0l-0.2,0.2c0,0-0.5,0-1-0.2
				c-0.3-0.2-0.5-0.3-0.7-0.5c-0.2-0.3-0.3-0.7-0.3-1c-0.2-0.3-0.3-0.7-0.3-1c-0.2-0.3-0.2-0.7-0.2-0.8
				C188.8,89.4,188.8,89.1,188.8,88.9L188.8,88.9C188.8,89.1,188.8,88.9,188.8,88.9L188.8,88.9z"/>
		</g>
		<g>
			<path fill="#4D4D4D" d="M181.8,94.7c0,0,0.3,0.2,0.5,0.3c0.3,0.2,0.8,0.3,1.4,0.7c0.2,0.2,0.5,0.2,0.7,0.3
				c0.2,0.2,0.3,0.3,0.3,0.5c0.2,0.2,0.2,0.3,0.2,0.5c0,0.2,0,0.3,0,0.3l0,0v0.2c0,0-0.3,0.2-0.8,0.2c-0.2,0-0.5-0.2-0.7-0.2
				c-0.2-0.2-0.3-0.3-0.5-0.7c-0.2-0.2-0.3-0.3-0.5-0.7c-0.2-0.2-0.3-0.3-0.3-0.7c-0.2-0.3-0.3-0.7-0.3-0.7l0,0
				C181.5,94.7,181.5,94.7,181.8,94.7C181.7,94.7,181.7,94.7,181.8,94.7z"/>
		</g>
		<g>
			<path fill="#4D4D4D" d="M179.8,107.2c0,0,0.2,0.3,0.2,0.7c0,0.2,0.2,0.5,0.2,0.7c0,0.3,0,0.5,0,0.8c0,0.3,0.2,0.5,0,0.8
				c-0.2,0.3-0.2,0.5-0.3,0.7c-0.3,0.3-0.7,0.5-0.7,0.5H179l0,0c0,0,0-0.2-0.2-0.2c-0.2-0.2-0.2-0.3-0.2-0.5c0-0.2-0.2-0.5,0-0.7
				c0-0.2,0.2-0.5,0.3-0.7c0.2-0.5,0.3-1,0.5-1.4C179.6,107.4,179.6,107.2,179.8,107.2C179.6,107.1,179.8,107.1,179.8,107.2
				C179.8,107.1,179.8,107.1,179.8,107.2L179.8,107.2z"/>
		</g>
		<g>
			<path fill="#4D4D4D" d="M174.9,120.3c0,0,0.2,0.3,0.2,0.8c0,0.5,0,1.2-0.3,1.9c-0.2,0.3-0.2,0.7-0.3,1c-0.2,0.3-0.3,0.5-0.7,0.7
				c-0.5,0.3-0.8,0.3-0.8,0.3s0,0,0-0.2l0,0c0,0-0.2-0.2,0-0.3c0-0.2,0-0.3,0-0.7c0-0.3,0.2-0.5,0.3-0.7c0.2-0.2,0.3-0.3,0.5-0.7
				c0.2-0.3,0.3-0.5,0.5-0.8c0.2-0.3,0.3-0.5,0.3-0.7C174.7,120.5,174.9,120.1,174.9,120.3C174.9,120.1,174.9,120.1,174.9,120.3
				C174.9,120.1,174.9,120.1,174.9,120.3L174.9,120.3z"/>
		</g>
		<g>
			<path fill="#4D4D4D" d="M172.2,132.1L172.2,132.1c0.2,0.3,0.2,0.3,0.2,0.7c0,0.3,0.2,1,0,1.5c0,0.2,0,0.3,0,0.3s0,0.3-0.2,0.3
				c-0.2,0.3-0.3,0.3-0.5,0.5c-0.2,0.2-0.3,0.2-0.5,0.2c-0.2,0-0.3,0-0.3,0s-0.2,0-0.2-0.2c0,0,0-0.2,0-0.3s0-0.3,0-0.5
				c0-0.2,0-0.3,0.2-0.5c0.2-0.2,0.3-0.3,0.3-0.5c0.2-0.2,0.3-0.3,0.3-0.5c0.2-0.2,0.2-0.3,0.3-0.5c0.2-0.2,0.2-0.3,0.2-0.3
				C172,132.3,172,132.1,172.2,132.1C172,132.1,172.2,132.1,172.2,132.1L172.2,132.1z"/>
		</g>
		<g>
			<path fill="#4D4D4D" d="M169.1,147.4c0,0,0,0.2-0.2,0.5c0,0.2,0,0.3-0.2,0.5c0,0.2-0.2,0.3-0.2,0.5s0,0.3-0.2,0.5
				c-0.2,0.2-0.3,0.3-0.3,0.3c-0.2,0-0.3,0.2-0.5,0.2s-0.3,0-0.3,0s-0.2,0-0.2-0.2c0,0,0-0.2-0.2-0.2c0-0.2-0.2-0.3-0.2-0.5
				s0-0.3,0.2-0.5c0.2-0.2,0.3-0.2,0.5-0.3c0.2-0.2,0.3-0.3,0.3-0.3c0.2-0.2,0.3-0.2,0.3-0.3c0.3-0.2,0.3-0.3,0.3-0.3
				C169,147.4,169,147.4,169.1,147.4L169.1,147.4z"/>
		</g>
		<g>
			<path fill="#4D4D4D" d="M162,94.5c0,0,0,0.3,0,0.7c0,0.2,0,0.3,0,0.7c0,0.3-0.2,0.5-0.2,0.8c0,0.3,0,0.5-0.2,0.8
				c-0.2,0.2-0.3,0.3-0.3,0.5c-0.2,0.2-0.3,0.3-0.5,0.3s-0.3,0.2-0.3,0.2h-0.2c0,0,0-0.2-0.2-0.3c0-0.2-0.2-0.3-0.2-0.5s0-0.5,0-0.7
				c0.2-0.2,0.3-0.3,0.5-0.7c0.2-0.2,0.3-0.3,0.3-0.7c0.2-0.2,0.3-0.3,0.3-0.5C161.8,94.7,161.8,94.5,162,94.5
				C162,94.4,162,94.4,162,94.5L162,94.5z"/>
		</g>
		<g>
			<path fill="#4D4D4D" d="M145.4,109.3C145.4,109.3,145.4,109.4,145.4,109.3c0.2,0.2,0.2,0.3,0.2,0.5c0,0.3,0.2,0.7,0,1.2
				c0,0.2-0.2,0.5-0.2,0.7c-0.2,0.2-0.3,0.3-0.5,0.3c-0.2,0-0.3,0-0.5-0.2c-0.2-0.2-0.2-0.2-0.2-0.2v-0.2l0,0v-0.2v-0.2V111
				c0-0.2,0-0.3,0-0.3s0.3,0,0.3-0.2c0-0.2,0.2-0.2,0.3-0.3s0.2-0.2,0.3-0.3c0-0.2,0.2-0.2,0.2-0.3L145.4,109.3
				C145.2,109.3,145.2,109.3,145.4,109.3L145.4,109.3z"/>
		</g>
		<g>
			<path fill="#4D4D4D" d="M205.6,52.7C205.6,52.7,205.7,52.8,205.6,52.7c0.2,0.3,0.3,0.3,0.3,0.5c0.2,0.2,0.3,0.3,0.3,0.5
				c0.2,0.2,0.3,0.3,0.5,0.5c0.2,0.2,0.3,0.3,0.5,0.3c0.2,0.2,0.2,0.3,0.3,0.5c0,0.2,0,0.3,0.2,0.5c0,0.2,0,0.3,0,0.3l0,0
				c0,0,0,0.2-0.2,0.2c0,0-0.3,0.2-0.8,0c-0.2,0-0.5-0.2-0.7-0.5c-0.2-0.2-0.2-0.3-0.2-0.3l-0.2-0.3c-0.2-0.5-0.3-1.2-0.3-1.5
				C205.4,53.2,205.4,53,205.6,52.7C205.4,52.8,205.4,52.7,205.6,52.7C205.4,52.7,205.6,52.7,205.6,52.7L205.6,52.7z"/>
		</g>
		<g>
			<path fill="#4D4D4D" d="M197.3,101.3c0,0,0.2,0.2,0.3,0.3c0.2,0.2,0.5,0.5,0.8,0.7c0.2,0.2,0.3,0.2,0.3,0.3
				c0.2,0.2,0.2,0.3,0.2,0.5c0,0.2,0,0.3,0,0.5c0,0.2,0,0.2,0,0.2l0,0c0,0,0,0.2-0.2,0.2c0,0-0.3,0-0.7,0c-0.2,0-0.3-0.2-0.5-0.3
				c-0.2-0.2-0.2-0.3-0.2-0.7c0-0.2-0.2-0.3-0.2-0.5c0-0.2-0.2-0.3-0.2-0.5c0-0.3,0-0.5,0-0.5l0,0
				C197.1,101.3,197.1,101.3,197.3,101.3L197.3,101.3z"/>
		</g>
		<g>
			<path fill="#4D4D4D" d="M188.8,105.7c0,0,0,0.2,0.2,0.3c0.2,0.2,0.2,0.3,0.3,0.7c0.2,0.3,0.3,0.5,0.5,0.8
				c0.2,0.2,0.2,0.3,0.3,0.3c0.2,0.2,0.2,0.3,0.3,0.3c0.2,0.3,0.5,0.5,0.7,0.7c0.2,0.2,0.3,0.5,0.5,0.7c0,0.2,0.2,0.2,0.2,0.3
				c0,0.2,0.2,0.2,0.2,0.3c0.2,0.2,0.2,0.3,0.2,0.3l0,0v0.2l0,0c0,0-0.2,0-0.3,0c-0.2,0-0.5,0-0.8-0.2c-0.3-0.2-0.7-0.3-1-0.5
				c-0.2-0.2-0.3-0.3-0.3-0.5c-0.2-0.2-0.2-0.3-0.3-0.5c-0.2-0.3-0.3-0.8-0.3-1.2c-0.2-0.3-0.2-0.7-0.2-1c0-0.2,0-0.3,0-0.3
				s0-0.2,0-0.3C188.8,105.7,188.8,105.7,188.8,105.7C188.8,105.5,188.8,105.5,188.8,105.7C188.8,105.5,188.8,105.5,188.8,105.7z"/>
		</g>
		<g>
			<path fill="#4D4D4D" d="M184.5,115c0,0,0.2,0.2,0.5,0.5c0.2,0.2,0.3,0.3,0.5,0.5c0.2,0.2,0.3,0.5,0.5,0.7
				c0.2,0.3,0.3,0.5,0.5,0.7c0.2,0.3,0.2,0.5,0.2,0.8c0,0.3,0,0.5-0.2,0.7c0,0.2-0.2,0.3-0.2,0.3s-0.2,0.2-0.2,0c0,0-0.2,0-0.3-0.2
				c-0.2,0-0.3-0.2-0.5-0.3c-0.2-0.2-0.3-0.3-0.5-0.5c-0.2-0.3-0.2-0.5-0.2-0.8c0-0.3-0.2-0.5-0.2-0.8c0-0.3-0.2-0.5-0.2-0.7
				C184.4,115.5,184.4,115.2,184.5,115C184.4,115.2,184.4,115.2,184.5,115L184.5,115z"/>
		</g>
		<g>
			<path fill="#4D4D4D" d="M180.3,128.2c0,0,0.3,0.3,0.7,0.8c0.2,0.3,0.5,0.5,0.7,0.8c0.3,0.3,0.5,0.7,0.8,1c0.3,0.3,0.5,0.7,0.8,1
				c0.2,0.3,0.3,0.7,0.3,1c0,0.3,0.2,0.7,0.2,0.8c0,0.2,0,0.3,0,0.3s0,0.2-0.2,0.2l0,0c0,0-0.2,0-0.3-0.2c-0.2-0.2-0.3-0.3-0.7-0.5
				c-0.3-0.2-0.5-0.5-0.7-0.8c-0.2-0.3-0.3-0.8-0.5-1.2s-0.3-0.8-0.5-1.2c-0.2-0.3-0.3-0.7-0.3-1
				C180.3,128.6,180.1,128.2,180.3,128.2C180.1,128.2,180.1,128.1,180.3,128.2L180.3,128.2z"/>
		</g>
		<g>
			<path fill="#4D4D4D" d="M192.2,119.1c0,0,0.2,0.2,0.5,0.3c0.2,0.2,0.3,0.3,0.5,0.3c0.2,0.2,0.3,0.3,0.5,0.5
				c0.2,0.2,0.3,0.3,0.5,0.5c0.2,0.2,0.2,0.3,0.2,0.7c0,0.3,0,0.3,0,0.5c0,0.2,0,0.3,0,0.3s0,0.2-0.2,0.2c0,0-0.2,0-0.3,0
				s-0.3,0-0.5-0.2c-0.2-0.2-0.3-0.2-0.5-0.3s-0.2-0.5-0.3-0.7c-0.2-0.2-0.2-0.5-0.3-0.7c-0.2-0.2-0.2-0.3-0.2-0.7
				C192.2,119.6,192,119.3,192.2,119.1C192,119.3,192,119.1,192.2,119.1C192,119.1,192.2,119.1,192.2,119.1z"/>
		</g>
		<g>
			<path fill="#4D4D4D" d="M201.2,108.9c0,0,0.7,0.8,1.5,1.7c0.2,0.2,0.3,0.3,0.5,0.5c0.2,0.2,0.2,0.5,0.3,0.7c0.2,0.2,0,0.5,0,0.7
				s0,0.3,0,0.3l0,0c0,0,0,0.2-0.2,0.2c0,0-0.5,0-0.8-0.3c-0.2-0.2-0.3-0.3-0.5-0.5s-0.2-0.5-0.3-0.8c-0.2-0.3-0.2-0.5-0.3-0.8
				c0-0.3-0.2-0.5-0.3-0.7c-0.2-0.3-0.2-0.7-0.2-0.7l0,0C200.8,108.9,200.8,108.9,201.2,108.9C201,108.9,201.2,108.9,201.2,108.9z"
				/>
		</g>
		<g>
			<path fill="#4D4D4D" d="M190.8,128.4c0,0,0.3,0.3,0.7,0.7c0.3,0.3,0.8,0.8,1.4,1.4c0.3,0.3,0.5,0.3,0.8,0.7
				c0.3,0.3,0.3,0.5,0.5,0.8c0.2,0.3,0.2,0.5,0.3,0.7c0,0.2,0,0.3,0,0.3l0,0l-0.2,0.2c0,0-0.5,0-1-0.3c-0.3-0.2-0.5-0.3-0.8-0.5
				c-0.2-0.3-0.3-0.7-0.5-1c-0.2-0.3-0.3-0.7-0.5-1s-0.3-0.7-0.3-0.8C190.8,128.9,190.7,128.6,190.8,128.4L190.8,128.4
				C190.7,128.4,190.7,128.4,190.8,128.4L190.8,128.4z"/>
		</g>
		<g>
			<path fill="#4D4D4D" d="M200.1,123.2c0,0,0,0.2,0.2,0.2c0,0.2,0.2,0.3,0.3,0.5c0.2,0.2,0.3,0.5,0.3,0.7s0.2,0.3,0.3,0.3
				c0.2,0.2,0.2,0.3,0.3,0.3c0.2,0.3,0.5,0.3,0.7,0.5c0.2,0.2,0.3,0.3,0.3,0.7c0,0.2,0.2,0.2,0.2,0.3c0,0.2,0.2,0.2,0.2,0.3
				s0.2,0.3,0.2,0.3l0,0v0.2c0,0-0.2,0-0.3,0c-0.2,0-0.5,0-0.8,0c-0.3-0.2-0.7-0.3-0.8-0.5c-0.2-0.2-0.2-0.3-0.3-0.5
				c0-0.2-0.2-0.3-0.2-0.5c-0.2-0.3-0.3-0.7-0.3-1c0-0.3-0.2-0.7-0.2-1c0-0.3,0-0.5,0-0.7C200,123.3,200,123.2,200.1,123.2
				C200,123.2,200.1,123.2,200.1,123.2C200.1,123,200.1,123,200.1,123.2z"/>
		</g>
		<g>
			<path fill="#4D4D4D" d="M210.1,136.6c0,0,0.2,0.2,0.3,0.3c0.2,0.2,0.3,0.2,0.3,0.3c0.2,0.2,0.3,0.2,0.5,0.3
				c0.2,0.2,0.3,0.2,0.5,0.3c0.2,0.2,0.2,0.3,0.2,0.5c0,0.2,0,0.3-0.2,0.5c0,0.2-0.2,0.2-0.2,0.2s0,0.2-0.2,0.2c0,0-0.2,0-0.3,0
				c-0.2,0-0.3,0-0.5,0c-0.2,0-0.3-0.2-0.3-0.3c-0.2-0.2-0.2-0.3-0.2-0.5s-0.2-0.3-0.2-0.5s-0.2-0.3-0.2-0.5
				C210.1,136.9,210.1,136.7,210.1,136.6L210.1,136.6L210.1,136.6z"/>
		</g>
		<g>
			<path fill="#4D4D4D" d="M200.3,135.4C200.3,135.4,200.3,135.5,200.3,135.4c0.2,0.3,0.2,0.3,0.3,0.5c0.2,0.2,0.2,0.3,0.3,0.3
				c0.2,0.2,0.3,0.3,0.3,0.3c0.2,0.2,0.3,0.2,0.5,0.2c0.2,0.2,0.2,0.2,0.3,0.3c0,0,0,0.2,0.2,0.2l0.2,0.2c0.2,0.2,0.2,0.2,0.2,0.2
				l0,0v0.2c0,0,0,0.2-0.2,0.2c0,0-0.2,0.2-0.3,0.2c-0.2,0-0.2,0-0.3,0.2c-0.3,0-0.5,0-0.8-0.2c-0.2-0.2-0.2-0.2-0.3-0.3
				c0-0.2-0.2-0.3-0.2-0.3c-0.2-0.3-0.3-0.5-0.3-0.8s0-0.5,0-0.7c0-0.2,0-0.2,0-0.3c0-0.2,0-0.2,0-0.2c0-0.2,0-0.2,0-0.2
				C200.1,135.4,200.1,135.4,200.3,135.4L200.3,135.4z"/>
		</g>
		<g>
			<path fill="#4D4D4D" d="M204.9,142.3c0,0,0.2,0.3,0.5,0.7c0.3,0.3,0.7,0.8,1.2,1.4c0.2,0.2,0.5,0.3,0.7,0.7
				c0.2,0.2,0.3,0.5,0.3,0.7c0,0.3,0.2,0.5,0.2,0.7c0,0.2,0,0.3,0,0.3l0,0c0,0,0,0.2-0.2,0.2c0,0-0.5,0-1-0.3
				c-0.2-0.2-0.5-0.3-0.7-0.5c-0.2-0.3-0.3-0.7-0.3-0.8c-0.2-0.3-0.3-0.7-0.3-0.8c-0.2-0.3-0.2-0.5-0.3-0.8
				C204.7,142.8,204.7,142.5,204.9,142.3L204.9,142.3C204.7,142.5,204.7,142.3,204.9,142.3C204.7,142.3,204.9,142.3,204.9,142.3z"/>
		</g>
		<g>
			<path fill="#4D4D4D" d="M189,140.6C189,140.6,189.1,140.6,189,140.6c0.2,0.3,0.3,0.3,0.5,0.5c0.2,0.2,0.3,0.3,0.5,0.3
				c0.2,0.2,0.3,0.3,0.5,0.3c0.2,0.2,0.3,0.2,0.5,0.2s0.3,0.2,0.3,0.3c0.2,0.2,0.2,0.3,0.3,0.3c0.2,0.2,0.2,0.2,0.2,0.2l0,0v0.2
				c0,0,0,0.2-0.2,0.2c-0.2,0.2-0.3,0.2-0.5,0.3c-0.2,0.2-0.5,0-0.8-0.2s-0.3-0.3-0.7-0.7c-0.2-0.2-0.3-0.5-0.5-0.7
				c-0.2-0.3-0.2-0.5-0.2-0.7s0-0.3,0-0.5C188.8,140.6,188.8,140.6,189,140.6C188.8,140.6,189,140.5,189,140.6
				C189,140.5,189,140.5,189,140.6z"/>
		</g>
		<g>
			<path fill="#4D4D4D" d="M174.5,140.1c0,0,0.2,0.2,0.5,0.5s0.7,0.7,1,1c0.2,0.2,0.3,0.3,0.5,0.3c0.2,0.2,0.2,0.3,0.3,0.5
				c0.2,0.2,0.2,0.3,0.2,0.5c0,0.2,0,0.3,0,0.3l0,0l-0.2,0.2c0,0-0.5,0.2-0.8,0c-0.2-0.2-0.5-0.2-0.7-0.3c-0.2-0.2-0.2-0.5-0.3-0.8
				c-0.2-0.3-0.2-0.5-0.3-0.8s-0.2-0.5-0.2-0.7c-0.2-0.5-0.2-0.7-0.2-0.7l0,0C174.2,140.1,174.2,139.9,174.5,140.1
				C174.4,140.1,174.5,140.1,174.5,140.1z"/>
		</g>
		<g>
			<path fill="#4D4D4D" d="M175.2,151.8C175.2,151.8,175.4,151.8,175.2,151.8c0.2,0.3,0.3,0.3,0.5,0.5s0.3,0.3,0.5,0.5
				s0.3,0.3,0.5,0.5c0.2,0.2,0.5,0.3,0.7,0.5c0.2,0.2,0.3,0.3,0.3,0.5s0.2,0.2,0.2,0.3c0,0.2,0,0.2,0.2,0.3c0,0.2,0,0.3,0,0.3l0,0
				v0.2c0,0-0.3,0.2-1,0c-0.3,0-0.5-0.2-0.8-0.3c-0.2-0.2-0.2-0.3-0.3-0.3c0-0.2-0.2-0.3-0.2-0.5c-0.3-0.5-0.5-1.2-0.5-1.7
				c0-0.2,0-0.3,0-0.5C175.2,152,175.2,151.8,175.2,151.8S175.2,151.6,175.2,151.8C175.2,151.6,175.2,151.6,175.2,151.8z"/>
		</g>
		<g>
			<path fill="#4D4D4D" d="M164.2,156c0,0,0,0.2,0.2,0.3c0.2,0.2,0.2,0.3,0.3,0.7c0.2,0.3,0.3,0.5,0.5,0.8c0.2,0.3,0.5,0.7,0.7,1
				c0.3,0.3,0.5,0.5,0.8,0.8c0.3,0.3,0.3,0.5,0.5,0.8c0,0.2,0.2,0.3,0.2,0.3c0,0.2,0.2,0.3,0.2,0.3c0,0.2,0.2,0.3,0.2,0.3l0,0v0.2
				l0,0c0,0-0.2,0-0.3,0c-0.2,0-0.5-0.2-0.8-0.3c-0.3-0.2-0.7-0.3-1-0.7c-0.2-0.2-0.3-0.3-0.3-0.5c-0.2-0.2-0.2-0.3-0.3-0.7
				c-0.3-0.8-0.7-1.7-0.8-2.4c0-0.3-0.2-0.7-0.2-0.8C164,156,164,156,164.2,156C164,155.9,164,155.9,164.2,156
				C164,156,164,156,164.2,156z"/>
		</g>
		<g>
			<path fill="#4D4D4D" d="M184.7,147.4L184.7,147.4c0.2,0.3,0.3,0.3,0.3,0.5c0.2,0.2,0.3,0.3,0.3,0.3c0.2,0.2,0.3,0.3,0.5,0.3
				c0.2,0.2,0.3,0.2,0.5,0.2c0.2,0.2,0.2,0.2,0.3,0.3l0.2,0.2l0.2,0.2c0.2,0.2,0.2,0.2,0.2,0.2v0.2c0,0,0,0.2-0.2,0.2
				c-0.2,0.2-0.3,0.2-0.5,0.2c-0.2,0-0.5,0-0.8-0.2c-0.3-0.2-0.3-0.5-0.5-0.7c-0.2-0.3-0.3-0.5-0.3-0.8s-0.2-0.5-0.2-0.7
				c0-0.2,0-0.3,0-0.5C184.7,147.1,184.5,147.4,184.7,147.4C184.5,147.4,184.5,147.4,184.7,147.4
				C184.5,147.4,184.7,147.4,184.7,147.4z"/>
		</g>
		<g>
			<path fill="#4D4D4D" d="M194.4,151.3c0,0,0.2,0.2,0.3,0.3c0.2,0.2,0.5,0.3,0.8,0.7c0.2,0.2,0.3,0.2,0.5,0.3
				c0.2,0.2,0.2,0.3,0.2,0.5c0,0.2,0,0.3,0,0.5s0,0.3,0,0.3l0,0c0,0,0,0.2-0.2,0.2c0,0-0.3,0.2-0.8,0c-0.2,0-0.3-0.2-0.5-0.3
				c-0.2-0.2-0.2-0.3-0.3-0.7c-0.2-0.2-0.2-0.3-0.2-0.7c0-0.2,0-0.3,0-0.5C194.2,151.6,194.4,151.3,194.4,151.3L194.4,151.3
				C194.4,151.5,194.4,151.3,194.4,151.3L194.4,151.3z"/>
		</g>
		<g>
			<path fill="#4D4D4D" d="M200.5,144.5v0.2c0,0.2,0,0.3,0,0.5s0.2,0.5,0.2,0.7c0.2,0.3,0.2,0.5,0.3,0.8c0.2,0.3,0.3,0.5,0.5,0.7
				s0.2,0.3,0.2,0.7c0,0.2,0,0.2,0,0.3c0,0.2,0.2,0.2,0.2,0.3s0.2,0.3,0.2,0.3l0,0l-0.2,0.2c0,0-0.2,0-0.3,0c-0.2,0-0.5,0-0.7-0.2
				c-0.2-0.2-0.5-0.3-0.7-0.7c-0.2-0.2-0.2-0.3-0.2-0.5c0-0.2,0-0.3,0-0.5c0-0.3,0-0.7,0-1s0.2-0.7,0.2-0.8
				C200.1,144.9,200.1,144.7,200.5,144.5c-0.2-0.2,0-0.2,0-0.2s0,0,0.2,0C200.5,144.5,200.5,144.5,200.5,144.5z"/>
		</g>
		<g>
			<path fill="#4D4D4D" d="M187.9,156.2c0,0,0,0,0,0.2c0,0.2,0,0.3,0.2,0.5c0,0.2,0.2,0.3,0.3,0.5c0.2,0.2,0.2,0.3,0.3,0.5
				c0.2,0.2,0.3,0.3,0.5,0.5c0.2,0.2,0.2,0.3,0.2,0.5s0,0.2,0,0.3c0,0.2,0,0.2,0,0.3s0,0.3,0,0.3v0.2c0,0-0.2,0-0.3,0.2
				c-0.2,0-0.2,0-0.3,0c-0.2,0-0.3,0-0.3,0c-0.3-0.2-0.5-0.3-0.7-0.5c-0.2-0.3-0.2-0.7-0.3-0.8c0-0.3-0.2-0.7-0.2-0.8
				c0-0.2,0-0.5,0.2-0.7c0.2-0.2,0.2-0.3,0.2-0.5C187.8,156.4,187.8,156.2,187.9,156.2C187.8,156.2,187.9,156.2,187.9,156.2
				C187.9,156,187.9,156.2,187.9,156.2z"/>
		</g>
		<g>
			<path fill="#4D4D4D" d="M203.2,157.2c0,0,0.2,0.2,0.5,0.3c0.2,0.2,0.3,0.2,0.5,0.3c0.2,0.2,0.3,0.3,0.5,0.3
				c0.2,0.2,0.3,0.2,0.5,0.3c0.2,0.2,0.2,0.3,0.2,0.5c0,0.2,0,0.3,0,0.5s0,0.3,0,0.3s0,0.2-0.2,0.2c0,0-0.2,0-0.3,0s-0.3,0-0.5,0
				c-0.2,0-0.3-0.2-0.5-0.3c-0.2-0.2-0.2-0.3-0.3-0.5c-0.2-0.2-0.2-0.3-0.3-0.5c-0.2-0.2-0.2-0.3-0.2-0.5
				C203.2,157.6,203,157.4,203.2,157.2C203,157.2,203,157.2,203.2,157.2L203.2,157.2z"/>
		</g>
		<g>
			<path fill="#4D4D4D" d="M208.8,155.4L208.8,155.4c0.3,0.3,0.3,0.3,0.5,0.5c0.2,0.2,0.3,0.3,0.5,0.5c0.2,0.2,0.5,0.3,0.7,0.5
				c0.3,0.2,0.5,0.2,0.7,0.3c0.2,0.2,0.3,0.3,0.5,0.5c0,0.2,0.2,0.2,0.2,0.3c0,0.2,0.2,0.2,0.2,0.3c0.2,0.2,0.2,0.3,0.2,0.3l0,0v0.2
				c0,0-0.2,0-0.3,0.2c-0.2,0-0.3,0.2-0.7,0.2s-0.7-0.2-0.8-0.3c-0.2-0.2-0.3-0.2-0.3-0.3c-0.2-0.2-0.2-0.3-0.3-0.3
				c-0.3-0.5-0.7-1.2-0.8-1.7c-0.2-0.3-0.2-0.3-0.2-0.5s0-0.2,0-0.2C208.8,155.5,208.8,155.5,208.8,155.4L208.8,155.4z"/>
		</g>
		
			<image overflow="visible" opacity="0.47" enable-background="new    " width="858" height="1225" xlink:href="../anchor.png"  transform="matrix(6.444483e-02 0 0 6.444483e-02 151.1864 60.2275)">
		</image>
	</g>
</g>
</svg>
