<?xml version="1.0" encoding="utf-8"?>
<!-- Generator: Adobe Illustrator 18.0.0, SVG Export Plug-In . SVG Version: 6.00 Build 0)  -->
<!DOCTYPE svg PUBLIC "-//W3C//DTD SVG 1.1//EN" "http://www.w3.org/Graphics/SVG/1.1/DTD/svg11.dtd">
<svg version="1.1" id="Layer_1" xmlns="http://www.w3.org/2000/svg" xmlns:xlink="http://www.w3.org/1999/xlink" x="0px" y="0px"
	 viewBox="206.3 41.3 71.5 200.2" enable-background="new 206.3 41.3 71.5 200.2" xml:space="preserve">
<g>
	<g>
		<path fill="#4D4D4D" d="M214.7,52.8c0,0,0,0.2-0.2,0.3c0,0.2-0.2,0.3-0.2,0.3c0,0.2-0.2,0.3-0.2,0.3c0,0.2-0.2,0.3-0.2,0.5
			c-0.2,0.2-0.3,0.2-0.3,0.2c-0.2,0-0.3,0-0.3,0h-0.2c0,0-0.2,0-0.2-0.2V54c0-0.2,0-0.3,0-0.3s0-0.3,0.2-0.3
			c0.2-0.2,0.3-0.2,0.5-0.2c0.2,0,0.3-0.2,0.3-0.2c0.2,0,0.3-0.2,0.3-0.2C214.5,52.7,214.7,52.7,214.7,52.8
			C214.5,52.7,214.7,52.7,214.7,52.8C214.7,52.7,214.7,52.8,214.7,52.8z"/>
	</g>
	<g>
		<path fill="#4D4D4D" d="M209.9,44c0,0,0,0.2,0,0.5s-0.2,0.8-0.5,1.2c-0.2,0.2-0.2,0.5-0.3,0.7c-0.2,0.2-0.3,0.2-0.7,0.2
			s-0.8-0.2-0.8-0.2l-0.2-0.2l0,0c0,0,0.2-0.2,0.2-0.3s0.2-0.3,0.2-0.5s0.2-0.3,0.3-0.3c0.2,0,0.3-0.2,0.5-0.2
			c0.2,0,0.3-0.2,0.5-0.3c0.2-0.2,0.3-0.2,0.3-0.3C209.6,44.2,209.8,44,209.9,44C209.8,43.8,209.8,43.8,209.9,44L209.9,44L209.9,44z
			"/>
	</g>
	<g>
		<path fill="#4D4D4D" d="M222.1,49.1c0,0,0,0.3-0.2,0.7c0,0.2-0.2,0.5-0.2,0.8s-0.2,0.5-0.3,0.8c-0.2,0.3-0.2,0.7-0.3,0.8
			c-0.2,0.2-0.3,0.3-0.7,0.5c-0.5,0.2-1,0.2-1,0.2s-0.2,0-0.2-0.2l0,0c0,0,0-0.2,0-0.3c0-0.2,0-0.3,0.2-0.5c0-0.2,0.2-0.5,0.3-0.7
			c0.2-0.2,0.3-0.3,0.5-0.5c0.2-0.2,0.3-0.3,0.5-0.7c0.2-0.2,0.3-0.3,0.3-0.5c0.3-0.3,0.3-0.7,0.3-0.7
			C221.8,49.1,222,49.1,222.1,49.1C222,48.9,222.1,49.1,222.1,49.1L222.1,49.1z"/>
	</g>
	<g>
		<path fill="#4D4D4D" d="M216,41.8c0,0,0,0.3,0,0.8c0,0.2,0,0.5,0,0.8s-0.2,0.5-0.2,0.8c0,0.3-0.1,0.8-0.1,1
			c-0.2,0.3-0.3,0.5-0.5,0.7c-0.3,0.3-0.8,0.3-0.8,0.3s-0.2,0-0.2-0.2l0,0c0,0,0-0.2,0-0.3s0-0.3,0-0.7c0-0.2,0-0.5,0.2-0.7
			c0.2-0.2,0.3-0.3,0.5-0.7c0.3-0.5,0.5-1,0.8-1.4c0.2-0.3,0.3-0.7,0.3-0.7C215.9,41.8,215.9,41.8,216,41.8L216,41.8L216,41.8z"/>
	</g>
	<g>
		<path fill="#4D4D4D" d="M255.8,51.1C255.8,51.1,255.9,51.3,255.8,51.1c0.2,0.3,0.3,0.3,0.3,0.5c0.2,0.2,0.3,0.3,0.5,0.5
			c0.2,0.2,0.3,0.3,0.5,0.5s0.5,0.3,0.7,0.3c0.2,0.2,0.3,0.3,0.3,0.5s0.2,0.2,0.2,0.3c0,0.2,0.2,0.2,0.2,0.2
			c0.2,0.2,0.2,0.3,0.2,0.3l0,0v0.2c0,0-0.2,0-0.3,0.2c-0.2,0-0.3,0.2-0.7,0.2c-0.3,0-0.7-0.2-0.8-0.3c-0.3-0.2-0.3-0.5-0.5-0.8
			c-0.2-0.3-0.3-0.5-0.3-0.8c-0.2-0.3-0.2-0.5-0.2-0.8c0-0.2,0-0.2,0-0.3c0-0.2,0-0.2,0-0.3C255.8,51.3,255.8,51.3,255.8,51.1
			L255.8,51.1L255.8,51.1z"/>
	</g>
	<g>
		<path fill="#4D4D4D" d="M245.4,50.1c0,0,0.2,0.2,0.3,0.3c0.3,0.2,0.5,0.5,1,0.8c0.2,0.2,0.3,0.2,0.5,0.3c0.2,0.2,0.2,0.3,0.2,0.5
			c0,0.2,0,0.3,0,0.5s0,0.3,0,0.3l0,0c0,0,0,0.2-0.2,0.2c0,0-0.3,0.2-0.8,0c-0.2,0-0.3-0.2-0.5-0.3c-0.2-0.2-0.2-0.3-0.3-0.7
			c-0.2-0.2-0.2-0.3-0.2-0.7c0-0.2-0.2-0.3-0.2-0.5C245.4,50.6,245.3,50.3,245.4,50.1L245.4,50.1C245.3,50.3,245.4,50.3,245.4,50.1
			L245.4,50.1z"/>
	</g>
	<g>
		<path fill="#4D4D4D" d="M241.1,45.5c0,0,0,0.2,0,0.5c0,0.2,0,0.3,0,0.5s0,0.3-0.2,0.5c0,0.2,0,0.3-0.2,0.7c0,0.2-0.2,0.3-0.3,0.3
			c-0.2,0.2-0.3,0.2-0.5,0.2c-0.2,0-0.3,0-0.3,0h-0.2c0,0,0-0.2-0.2-0.2c-0.2,0-0.2-0.3-0.2-0.5s0-0.3,0-0.5
			c0.2-0.2,0.3-0.3,0.3-0.5c0.2-0.2,0.3-0.3,0.3-0.5c0.2-0.2,0.3-0.3,0.3-0.3C240.8,45.5,240.9,45.4,241.1,45.5
			C240.9,45.4,241.1,45.4,241.1,45.5L241.1,45.5z"/>
	</g>
	<g>
		<path fill="#4D4D4D" d="M231.1,43.7c0,0,0.2,0.3,0.2,0.7c0,0.2,0,0.5,0,0.7c0,0.3,0,0.5-0.2,0.8c0,0.3,0,0.5-0.2,0.8
			c-0.2,0.3-0.3,0.3-0.5,0.5c-0.3,0.3-0.8,0.3-0.8,0.3s-0.2,0-0.2-0.2l0,0c0,0,0-0.2,0-0.3c0-0.2,0-0.3,0-0.5s0-0.5,0.2-0.7
			c0.2-0.2,0.3-0.3,0.5-0.5c0.3-0.5,0.5-0.8,0.8-1.4C230.9,43.8,231.1,43.7,231.1,43.7S231.1,43.5,231.1,43.7L231.1,43.7L231.1,43.7
			z"/>
	</g>
	<g>
		<path fill="#4D4D4D" d="M260.7,42.8c0,0,0,0.2,0.2,0.3c0,0,0,0.2,0.2,0.3c0.2,0.2,0.2,0.2,0.2,0.3c0,0.2,0.2,0.3,0.2,0.3
			c0.2,0.2,0.2,0.3,0.3,0.3c0.2,0.2,0.2,0.3,0.3,0.3c0.2,0.2,0.2,0.3,0.3,0.3c0.3,0.2,0.5,0.3,0.8,0.5s0.3,0.3,0.5,0.5
			c0.2,0.2,0.2,0.2,0.3,0.3c0,0.2,0.2,0.2,0.2,0.2c0.2,0.2,0.2,0.2,0.2,0.2l0,0v0.2l0,0c0,0-0.2,0.2-0.3,0.2c-0.2,0-0.2,0-0.3,0.2
			c-0.2,0-0.3,0-0.5,0c-0.3,0-0.7-0.2-1.2-0.3c-0.2-0.2-0.3-0.3-0.3-0.5c-0.2-0.2-0.3-0.3-0.3-0.5c-0.2-0.3-0.3-0.7-0.5-1.2
			c-0.2-0.3-0.2-0.7-0.2-1c0-0.2,0-0.3,0-0.3c0-0.2,0-0.2,0-0.3C260.7,43,260.7,42.8,260.7,42.8C260.3,42.8,260.5,42.7,260.7,42.8
			L260.7,42.8z"/>
	</g>
	<g>
		<path fill="#4D4D4D" d="M273.2,41.5c0,0,0.2,0.3,0.5,0.8c0.2,0.3,0.3,0.5,0.3,0.8c0.2,0.3,0.3,0.5,0.5,0.8
			c0.2,0.2,0.2,0.2,0.3,0.3c0.2,0,0.3,0.2,0.3,0.3c0.3,0.2,0.5,0.5,0.7,0.7c0.2,0.3,0.3,0.5,0.3,0.7c0,0.2,0.2,0.3,0.2,0.3
			s0,0.2-0.2,0.2l0,0c0,0-0.5,0.2-1.2,0c-0.3-0.2-0.7-0.2-1-0.5c-0.2-0.2-0.3-0.3-0.3-0.5c-0.2-0.2-0.3-0.3-0.3-0.5
			c-0.2-0.3-0.3-0.8-0.3-1.4c0-0.3,0-0.7-0.2-1C273,41.8,273,41.5,273.2,41.5C273,41.5,273,41.3,273.2,41.5
			C273,41.3,273.2,41.3,273.2,41.5z"/>
	</g>
	<g>
		<g>
			<path fill="#E8BF97" d="M209.9,41.8v154.5c0,0,0,6.8,5.9,6.8c7.1,0,7.1-5.4,7.8-5.6c0.5,0-1.2,9.7,6.9,9.7c6.9,0,6.3-8.1,6.4-8.1
				c0.3,0-0.8,12.7,6.4,12.7c7.3,0,6.3-12.2,6.4-12.2c0.3,0,0,31.5,0,31.5s-0.3,9.3,6.9,9.3c6.9,0,6.4-9.3,6.4-9.3l-0.3-36.9
				c0,0,12-1.5,12-11.2s0-141.1,0-141.1"/>
			<path fill="#4D4D4D" d="M209.8,42l0.3,20.3l0.3,20.3l0.3,20.3v20.3v40.8v20.3v10.2v1.4v0.3v0.2v0.2c0,0.2,0,0.3,0,0.5
				c0.2,0.7,0.3,1.5,0.5,2.2c0.3,0.7,0.7,1.4,1.2,1.7c0.2,0.3,0.5,0.3,0.8,0.5c0.3,0.2,0.5,0.3,1,0.3c0.3,0.2,0.7,0.2,1,0.2h0.2l0,0
				l0,0h0.5c0.2,0,0.3,0,0.5,0c0.7,0,1.5-0.2,2.2-0.5c1.4-0.5,2.4-1.5,3.1-2.9c0.2-0.3,0.3-0.7,0.5-1.2c0,0,0-0.2,0.2-0.2
				c0,0,0,0,0-0.2c0,0,0-0.2,0.2-0.2c0.2,0,0.2-0.2,0.3-0.3c0.5,0,0.5-0.3,1.2,0.2c0.3,0.3,0.3,0.3,0.3,0.5s0,0.2,0,0.2
				c0,0.3,0,0.5,0,0.8c0,0.8,0,1.7,0.2,2.4c0.2,1.5,0.7,3.1,1.7,3.9c1,1,2.4,1.4,3.9,1.4s2.9-0.5,3.7-1.5s1.4-2.5,1.5-4.2v-0.7
				c0-0.2,0-0.3,0.2-0.7v-0.2c0.2,0-0.2-0.2,0.5-0.7c1.7-0.3,1.4,0.7,1.5,0.7c0,0.2,0,0.2,0,0.2c0,0.2,0,0.3,0,0.3v0.7
				c0,0.8,0,1.7,0.2,2.5c0.2,1.7,0.3,3.2,1,4.7c0.5,1.4,1.4,2.7,2.7,3.1c0.5,0.3,1.4,0.3,2,0.3c0.6,0,1.4-0.3,1.9-0.7
				c1.2-0.7,1.9-2,2.2-3.6c0.5-1.5,0.7-3.1,0.7-4.7c0-0.3,0-0.8,0-1.2v-0.7v-0.2V199c0,0,0,0,0-0.3c-0.5-1,3.4,0,2,0.2
				c0,0.2,0,0.2,0,0.2v0.2c0,0.8,0,1.7,0,2.5c0,3.4,0,6.8,0,10.2v10.2v5.1v2.5c0,0.8,0,1.7,0,2.4c0.2,1.5,0.5,3.1,1.4,4.4
				c0.8,1.2,2,2,3.4,2.2c0.3,0,0.7,0,1,0h0.3h0.2h0.2c0.2,0,0.3,0,0.5-0.2c0.7-0.2,1.4-0.3,1.9-0.8c1-0.8,1.7-2.2,2-3.7
				c0.2-0.7,0.3-1.5,0.3-2.4c0-0.3,0-0.8,0-1.2v-1.4V224l-0.2-10.2l-0.2-20.3v-0.6l1-0.2c0.7-0.2,1.5-0.3,2.2-0.5
				c0.7-0.2,1.5-0.5,2.2-0.8c1.4-0.5,2.9-1.4,3.9-2.4c1.2-1,2-2.2,2.4-3.7c0.3-0.7,0.3-1.4,0.3-2.2l-0.2-0.5l-0.2-0.7v-1v-19.8
				v-39.7l0.2-10c0-3.4,0-6.6,0-10l0.3-19.8l0.3-19.8l0.3-19.8l0.3,19.8l0.3,19.8l0.3,19.8c0,3.4-0.2,6.6-0.2,10l-0.2,10v39.7v19.8
				v1.2l0.2,0.7v0.7c0,0.8-0.2,1.9-0.5,2.7c-0.5,1.7-1.7,3.4-3.1,4.6c-1.4,1.2-2.9,2-4.6,2.9c-0.8,0.3-1.7,0.7-2.4,0.8
				c-0.8,0.3-1.7,0.3-2.5,0.5l0.8-1l0.2,20.3l0.2,10.2v5.1v1.2c0,0.5,0,1,0,1.4c0,0.8-0.2,1.9-0.3,2.7c-0.2,0.8-0.5,1.9-1,2.7
				c-0.3,0.8-1,1.7-1.9,2.4c-0.9,0.7-1.7,1.2-2.7,1.4c-0.2,0-0.5,0.2-0.7,0.2h-0.2h-0.2h-0.3c-0.5,0-1,0-1.5-0.2c-1-0.2-2-0.5-2.9-1
				c-0.8-0.5-1.5-1.4-2-2c-1-1.7-1.5-3.4-1.7-5.3c0-0.5-0.2-0.8-0.2-1.4c0-0.6,0-0.8,0-1.4v-2.5v-5.1v-10.2c0-3.4,0-6.8,0-10.2
				c0-0.8,0-1.7,0-2.5v-0.2l0,0c-1.4,0.2,2.5,1,2,0.2c0-0.2,0-0.2,0-0.2l0,0v0.2v0.7c0,0.3,0,0.8,0,1.4c-0.2,1.7-0.3,3.6-0.8,5.3
				c-0.3,0.8-0.7,1.7-1.2,2.5s-1.2,1.5-2,2.2c-0.8,0.5-1.9,0.8-2.9,1c-1,0.2-2,0-3.1-0.3c-1-0.3-1.9-1-2.4-1.9
				c-0.7-0.8-1-1.7-1.4-2.5c-0.7-1.7-1-3.6-1.2-5.3c-0.2-0.8-0.2-1.7-0.2-2.5v-0.7c0-0.2,0-0.2,0-0.2l0,0c0.3,0-0.2,0.8,1.4,0.5
				c0.7-0.5,0.3-0.5,0.5-0.5l0,0c0,0.2,0,0.3,0,0.5v0.7c-0.2,1.7-0.7,3.7-2,5.3c-0.7,0.8-1.5,1.4-2.4,1.9c-1,0.3-2,0.5-2.9,0.5
				c-1,0-1.9-0.2-2.9-0.3c-1-0.3-1.9-0.8-2.5-1.5c-0.7-0.7-1.2-1.5-1.5-2.5c-0.3-0.8-0.5-1.9-0.7-2.7c-0.2-0.8-0.2-1.9-0.2-2.7
				c0-0.2,0-0.3,0-0.5l0,0c0,0,0,0,0.3,0.3c0.7,0.3,0.5,0.2,1,0.2c0.3-0.2,0.2-0.2,0.3-0.2l0,0l0,0l0,0c-0.2,0.3-0.3,0.8-0.5,1.2
				c-0.3,0.8-1,1.7-1.7,2.4s-1.5,1.2-2.5,1.5c-0.8,0.3-1.9,0.5-2.7,0.7c-0.3,0-0.5,0-0.7,0h-0.3h-0.2c-0.2,0,0,0-0.2,0h-0.2
				c-0.5,0-1,0-1.5-0.2c-0.5-0.2-1-0.3-1.4-0.5c-0.3-0.3-0.8-0.5-1.4-0.8c-0.7-0.7-1.4-1.5-1.7-2.4c-0.3-0.8-0.7-1.9-0.7-2.7
				c0-0.2,0-0.5,0-0.7v-0.2v-0.2v-0.7v-1.4v-10.2v-20.2v-40.7l-0.2-20.3l0.3-20.3l0.3-20.3L209.8,42z"/>
		</g>
		<path fill="#F2DBC9" stroke="#4D4D4D" stroke-width="2" stroke-linecap="round" stroke-miterlimit="10" d="M260.7,233.4
			c0,0-0.5,3.7-4.1,3.7s-3.9-3.7-3.9-3.7s1.4-1.4,4.1-1.4C259.3,232,260.7,233.4,260.7,233.4z"/>
		<g>
			<path fill="#4D4D4D" d="M274.6,123.5c0,0,0.2,0.2,0.5,0.5c0.2,0.2,0.3,0.3,0.5,0.5c0.2,0.2,0.3,0.3,0.5,0.5
				c0.2,0,0.2,0.2,0.3,0.2c0.2,0,0.2,0,0.3,0.2c0.2,0,0.2,0.2,0.2,0.2l0.2,0.2l0.2,0.2l0.2,0.2c0.2,0.2,0.2,0.2,0.2,0.2l0,0v0.2
				c0,0,0,0.2-0.2,0.2c0,0-0.2,0.2-0.3,0.2c-0.1,0-0.3,0-0.3,0.2c-0.2,0-0.3,0-0.3,0c-0.2,0-0.3-0.2-0.3-0.2
				c-0.3-0.2-0.3-0.5-0.7-0.7c-0.2-0.3-0.3-0.5-0.5-0.8c-0.2-0.3-0.2-0.5-0.3-0.7C274.4,123.8,274.4,123.5,274.6,123.5
				C274.4,123.5,274.4,123.5,274.6,123.5L274.6,123.5z"/>
		</g>
		<g>
			<path fill="#4D4D4D" d="M211.1,123.5c0,0,0,0,0,0.2s-0.2,0.3-0.2,0.5c-0.2,0.3-0.5,1-0.8,1.5c-0.2,0.2-0.2,0.3-0.3,0.3
				c-0.2,0-0.2,0.2-0.3,0.3c-0.3,0.2-0.5,0.2-0.8,0.2c-0.3,0-0.5-0.2-0.7-0.2c-0.3,0-0.3-0.2-0.3-0.2V126l0,0c0,0,0-0.2,0.2-0.2
				l0.2-0.2l0.2-0.2c0.2-0.2,0.3-0.3,0.5-0.3c0.2-0.2,0.5-0.2,0.7-0.2c0.2-0.2,0.3-0.3,0.7-0.3c0.2-0.2,0.3-0.3,0.5-0.5
				c0.2-0.2,0.3-0.3,0.3-0.3C210.9,123.7,210.9,123.7,211.1,123.5L211.1,123.5L211.1,123.5z"/>
		</g>
		<g>
			<path fill="#4D4D4D" d="M221.5,126.9c0,0,0.2,0.2,0,0.5c0,0.2,0,0.3,0,0.5s-0.2,0.5-0.2,0.5c0,0.2,0,0.5-0.2,0.7
				c-0.2,0.2-0.3,0.3-0.5,0.3c-0.3,0.2-0.7,0-0.7,0s-0.2,0-0.2-0.2l0,0V129c0-0.2,0-0.3,0-0.5c0-0.2,0-0.3,0.2-0.5
				c0.2-0.2,0.3-0.2,0.5-0.3c0.3-0.3,0.5-0.5,0.8-0.7C221.3,126.9,221.5,126.7,221.5,126.9C221.6,126.7,221.5,126.7,221.5,126.9
				C221.6,126.7,221.5,126.7,221.5,126.9L221.5,126.9z"/>
		</g>
		<g>
			<path fill="#4D4D4D" d="M219.9,102.5c0,0,0,0,0,0.2c0,0.2,0,0.3,0,0.5s0,0.3,0.2,0.7c0,0.2,0.2,0.5,0.3,0.7s0.3,0.3,0.3,0.5
				c0.2,0.2,0.2,0.3,0.2,0.5c0,0,0,0.2,0,0.3c0,0,0,0.2,0,0.3c0,0.1,0,0.3,0,0.3l0,0v0.2c0,0-0.2,0-0.3,0.2c-0.2,0-0.2,0-0.3,0
				c-0.2,0-0.3,0-0.3-0.2c-0.3-0.2-0.5-0.3-0.7-0.7c-0.2-0.2-0.2-0.3-0.2-0.5s0-0.3,0-0.5c0-0.3,0-0.7,0-1c0-0.2,0-0.3,0.2-0.3
				c0-0.2,0.2-0.3,0.2-0.3c0.2-0.2,0.2-0.3,0.3-0.5C219.9,102.5,219.9,102.5,219.9,102.5L219.9,102.5L219.9,102.5z"/>
		</g>
		<g>
			<path fill="#4D4D4D" d="M216,95.2c0,0,0,0.2,0,0.5c0,0.2,0,0.3,0,0.5s-0.2,0.3-0.2,0.5c0,0.2-0.2,0.3-0.2,0.5s-0.3,0.2-0.5,0.2
				c-0.3,0-0.7-0.2-0.7-0.2s-0.2,0-0.2-0.2l0,0v-0.2c0-0.2,0-0.3,0-0.5s0-0.3,0.2-0.3c0.2-0.2,0.3-0.2,0.3-0.2
				c0.2-0.2,0.3-0.2,0.3-0.3c0.2-0.2,0.3-0.2,0.3-0.3C215.7,95.4,215.9,95.2,216,95.2C215.9,95,215.9,95,216,95.2L216,95.2L216,95.2
				z"/>
		</g>
		<g>
			<path fill="#4D4D4D" d="M216,109.8c0,0,0,0.2-0.2,0.5c0,0.2-0.2,0.3-0.2,0.5s-0.2,0.5-0.2,0.7c-0.2,0.2-0.2,0.5-0.2,0.7
				c-0.2,0.2-0.3,0.3-0.5,0.3c-0.2,0-0.3,0.2-0.5,0.2c-0.2,0-0.3,0-0.3,0s-0.2,0-0.2-0.2c0,0,0-0.2-0.2-0.3c-0.2-0.2,0-0.3,0-0.5
				s0-0.3,0.2-0.5c0.2-0.2,0.3-0.3,0.5-0.3c0.2-0.2,0.3-0.3,0.5-0.3c0.2-0.2,0.3-0.3,0.5-0.3C215.7,109.8,215.9,109.6,216,109.8
				C215.9,109.6,216,109.6,216,109.8L216,109.8z"/>
		</g>
		<g>
			<path fill="#4D4D4D" d="M230.6,101L230.6,101c0.2,0.3,0.2,0.3,0.3,0.5c0.2,0.2,0.2,0.3,0.3,0.5c0.2,0.2,0.3,0.3,0.3,0.5
				c0.2,0.2,0.3,0.2,0.5,0.3c0.2,0.1,0.2,0.3,0.2,0.3c0.2,0.3,0.3,0.7,0.3,0.7v0.2c0,0-0.2,0-0.2,0.2c-0.2,0-0.3,0.2-0.7,0.2
				c-0.3,0-0.5-0.2-0.7-0.3c-0.2-0.2-0.3-0.5-0.3-0.8c-0.2-0.3-0.2-0.5-0.2-0.8c0-0.3,0-0.5,0-0.7c0-0.2,0-0.3,0-0.5
				C230.4,101.1,230.4,101,230.6,101C230.4,101,230.4,101,230.6,101L230.6,101z"/>
		</g>
		<g>
			<path fill="#4D4D4D" d="M224.7,86c0,0,0,0.3-0.2,0.7c0,0.2-0.2,0.3-0.2,0.7c0,0.2-0.2,0.5-0.2,0.7c-0.2,0.2-0.2,0.5-0.2,0.7
				c-0.2,0.2-0.3,0.3-0.5,0.3c-0.2,0.2-0.3,0.2-0.5,0.2c-0.2,0-0.3,0-0.3,0s-0.2,0-0.2-0.2c0,0,0-0.2-0.2-0.3c0-0.2-0.2-0.3-0.2-0.5
				s0-0.3,0.2-0.7c0.2-0.2,0.3-0.3,0.5-0.5c0.2-0.2,0.3-0.3,0.5-0.5c0.2-0.2,0.3-0.3,0.5-0.3c0.3-0.3,0.5-0.3,0.5-0.3
				C224.5,85.9,224.7,86,224.7,86L224.7,86z"/>
		</g>
		<g>
			<path fill="#4D4D4D" d="M231.8,85.7c0,0,0,0,0,0.2V86c0,0,0,0.2,0,0.3c0,0.2,0,0.2,0.2,0.3c0,0.2,0.2,0.2,0.2,0.3
				c0,0.2,0.2,0.2,0.2,0.3c0,0.2,0.2,0.2,0.2,0.3c0,0.1,0.2,0.2,0.3,0.2c0.2,0,0.2,0.2,0.3,0.2l0.2,0.2c0,0,0,0.2,0.2,0.2l0.2,0.2
				l0.2,0.2c0.2,0.2,0.2,0.2,0.2,0.2l0,0v0.2c0,0,0,0.2-0.2,0.3c0,0.2-0.2,0.2-0.3,0.2c-0.2,0-0.3,0.2-0.3,0.2c-0.2,0-0.3,0-0.5,0
				c-0.2,0-0.3-0.2-0.5-0.3c-0.2-0.2-0.3-0.3-0.3-0.5c-0.2-0.2-0.2-0.3-0.2-0.5s-0.2-0.3-0.2-0.5c0-0.2,0-0.3,0-0.5
				c0-0.3,0-0.5,0-0.8c0-0.2,0-0.2,0.2-0.3c0.2-0.2,0-0.2,0.2-0.2C231.8,85.9,231.8,85.7,231.8,85.7L231.8,85.7L231.8,85.7z"/>
		</g>
		<g>
			<path fill="#4D4D4D" d="M225.2,112.3c0,0,0.2,0.2,0.5,0.5c0.2,0.2,0.3,0.3,0.3,0.5c0.2,0.2,0.3,0.3,0.5,0.5
				c0.2,0.2,0.3,0.3,0.5,0.5c0.2,0.2,0.2,0.5,0.2,0.7s0,0.3-0.2,0.5c0,0.2-0.2,0.3-0.2,0.3h-0.1c0,0-0.2,0-0.3,0
				c-0.2,0-0.3-0.2-0.5-0.3c-0.2-0.2-0.3-0.3-0.5-0.5c-0.2-0.2-0.2-0.5-0.2-0.7c0-0.3-0.2-0.5-0.2-0.7c0-0.2-0.2-0.5-0.2-0.7
				c0-0.3-0.2-0.7-0.2-0.7C225,112.3,225,112.3,225.2,112.3L225.2,112.3z"/>
		</g>
		<g>
			<path fill="#4D4D4D" d="M213.7,134.4c0,0-0.2,0.2-0.2,0.3c-0.2,0.2-0.3,0.5-0.3,0.8c0,0.2-0.2,0.3-0.2,0.5
				c-0.2,0.2-0.3,0.2-0.3,0.2c-0.2,0-0.3,0-0.5,0c-0.2,0-0.2,0-0.2,0l0,0c0,0-0.2,0-0.2-0.2c0,0-0.2-0.3-0.2-0.7
				c0-0.2,0-0.3,0.2-0.5c0.2-0.2,0.3-0.2,0.5-0.3c0.2-0.2,0.3-0.2,0.5-0.3c0.2,0,0.3,0,0.5,0C213.5,134.4,213.7,134.4,213.7,134.4
				L213.7,134.4C213.8,134.4,213.8,134.4,213.7,134.4L213.7,134.4z"/>
		</g>
		<g>
			<path fill="#4D4D4D" d="M214,82.8c0,0-0.2,0.2-0.2,0.3c0,0.1-0.2,0.2-0.3,0.3c-0.2,0.2-0.2,0.2-0.3,0.3c-0.2,0.2-0.2,0.3-0.3,0.3
				s-0.3,0-0.3,0c-0.2,0-0.3-0.2-0.3-0.2c-0.2-0.2-0.2-0.2-0.2-0.2v-0.2v-0.2c0,0,0-0.3,0.2-0.3c0-0.2,0.2-0.3,0.3-0.3
				c0.2,0,0.3,0,0.3,0c0.2,0,0.3,0,0.3,0c0.2,0,0.3,0,0.3,0C213.8,82.7,214,82.7,214,82.8C214,82.7,214,82.7,214,82.8L214,82.8z"/>
		</g>
		<g>
			<path fill="#4D4D4D" d="M211.3,95.9c0,0,0,0,0,0.2v0.2c0,0.2,0,0.2,0,0.3c0,0.2,0,0.5,0,0.8c0,0.3-0.2,0.5-0.3,0.8
				c0,0.2-0.2,0.3-0.2,0.5c0,0.2-0.2,0.3-0.3,0.5c-0.2,0.2-0.5,0.3-0.8,0.3c-0.2,0-0.3,0-0.3,0s-0.2,0-0.3-0.2
				c-0.2,0-0.3-0.2-0.3-0.2v-0.2c0,0,0-0.2,0.2-0.2c0,0,0-0.2,0.2-0.2c0,0,0-0.2,0.2-0.3c0.2-0.1,0.2-0.3,0.3-0.5
				c0.2-0.2,0.3-0.2,0.5-0.3c0.2-0.2,0.3-0.3,0.3-0.5c0.2-0.2,0.3-0.3,0.3-0.5c0.2-0.2,0.2-0.3,0.2-0.3V96
				C210.9,95.9,211.1,95.9,211.3,95.9L211.3,95.9z"/>
		</g>
		<g>
			<path fill="#4D4D4D" d="M210.1,73c0,0,0,0.2-0.2,0.3c0,0.2-0.2,0.2-0.2,0.3c-0.2,0.2-0.2,0.3-0.3,0.3c-0.2,0.2-0.2,0.3-0.3,0.3
				c-0.1,0-0.3,0-0.3,0c-0.2,0-0.3-0.2-0.3-0.2c-0.2,0-0.2-0.2-0.2-0.2s0-0.2-0.2-0.2v-0.2c0-0.2,0-0.3,0-0.3c0-0.2,0.2-0.3,0.2-0.3
				c0.2,0,0.3,0,0.5,0c0.2,0,0.3,0,0.3,0c0.2,0,0.3,0,0.5,0C209.8,72.8,209.9,72.8,210.1,73C209.9,72.8,210.1,73,210.1,73L210.1,73z
				"/>
		</g>
		<g>
			<path fill="#4D4D4D" d="M214.7,67.6c0,0,0.2,0.3,0,0.7c0,0.2,0,0.3-0.2,0.7c-0.2,0.3-0.2,0.5-0.3,0.7c-0.2,0.3-0.2,0.5-0.3,0.7
				c-0.2,0.2-0.3,0.3-0.7,0.3c-0.3,0.2-1,0-1,0s-0.2,0-0.2-0.2l0,0c0,0,0.2-0.2,0.2-0.3c0-0.1,0.2-0.3,0.2-0.5s0.2-0.3,0.3-0.5
				c0.2-0.2,0.3-0.3,0.7-0.5c0.3-0.3,0.7-0.7,1-1C214.5,67.7,214.7,67.6,214.7,67.6C214.7,67.4,214.7,67.4,214.7,67.6L214.7,67.6
				L214.7,67.6z"/>
		</g>
		<g>
			<path fill="#4D4D4D" d="M220.3,72c0,0,0,0.2,0,0.5c0,0.2,0,0.3,0,0.5s-0.2,0.3-0.2,0.7c-0.2,0.2-0.2,0.5-0.2,0.7
				c-0.2,0.2-0.3,0.3-0.5,0.3c-0.3,0.2-0.7,0-0.7,0s-0.2,0-0.2-0.2l0,0c0,0,0-0.2,0-0.3c0-0.2,0-0.3,0-0.5s0-0.3,0.2-0.3
				c0.2,0,0.3-0.2,0.5-0.3c0.2-0.2,0.3-0.2,0.3-0.3c0.2-0.2,0.3-0.2,0.3-0.3C220.1,72.1,220.3,72,220.3,72
				C220.3,71.8,220.3,71.8,220.3,72L220.3,72L220.3,72z"/>
		</g>
		<g>
			<path fill="#4D4D4D" d="M209.8,86.6c0,0,0,0.2-0.2,0.5c-0.2,0.3-0.3,0.7-0.7,1.2c-0.2,0.2-0.3,0.3-0.5,0.5
				c-0.2,0.2-0.5,0.2-0.7,0c-0.3,0-0.7-0.3-0.7-0.3v-0.2l0,0c0,0,0-0.2,0.2-0.2c0-0.2,0.2-0.3,0.2-0.3c0.2-0.2,0.2-0.3,0.3-0.3
				c0.2,0,0.3,0,0.5-0.2c0.2,0,0.3-0.2,0.5-0.2c0.2-0.2,0.3-0.2,0.5-0.2C209.6,86.7,209.8,86.6,209.8,86.6
				C209.6,86.4,209.6,86.4,209.8,86.6C209.8,86.4,209.8,86.4,209.8,86.6L209.8,86.6z"/>
		</g>
		<g>
			<path fill="#4D4D4D" d="M222.6,76.7c0,0,0,0.2,0,0.5c0,0.2,0,0.3-0.2,0.5c-0.2,0.2-0.2,0.3-0.2,0.7c0,0.2,0,0.5-0.2,0.7
				c-0.2,0.2-0.3,0.3-0.5,0.3c-0.2,0.2-0.3,0.2-0.5,0.2c-0.2,0-0.3,0-0.3,0s-0.2,0-0.2-0.2c0,0,0-0.2-0.2-0.2c0-0.2,0-0.3-0.2-0.5
				c0-0.2,0-0.3,0.2-0.5c0.2-0.2,0.3-0.3,0.5-0.3c0.3-0.3,0.5-0.7,0.8-0.8c0.2-0.3,0.3-0.3,0.3-0.3
				C222.3,76.6,222.5,76.6,222.6,76.7C222.5,76.7,222.6,76.7,222.6,76.7L222.6,76.7z"/>
		</g>
		<g>
			<path fill="#4D4D4D" d="M219.1,136.6c0,0,0.2,0.2,0.3,0.3c0.2,0.2,0.2,0.2,0.3,0.3c0.2,0.2,0.2,0.2,0.3,0.3
				c0.2,0.2,0.3,0.2,0.3,0.2c0.2,0.2,0.2,0.3,0.2,0.3c0,0.2,0,0.3,0,0.3c0,0.2,0,0.2,0,0.2l0,0c0,0,0,0.2-0.2,0.2
				c0,0-0.3,0.2-0.7,0.2c-0.2,0-0.3-0.2-0.5-0.3c-0.2-0.2-0.2-0.3-0.2-0.5c-0.2-0.3-0.2-0.7-0.2-1
				C218.7,136.8,218.9,136.4,219.1,136.6L219.1,136.6C218.9,136.6,219.1,136.6,219.1,136.6L219.1,136.6z"/>
		</g>
		<g>
			<path fill="#4D4D4D" d="M211.5,144.8c0,0,0,0.2-0.3,0.5c-0.2,0.2-0.2,0.3-0.3,0.5c-0.2,0.2-0.3,0.3-0.5,0.5
				c-0.2,0.2-0.3,0.3-0.5,0.5c-0.2,0.2-0.5,0.2-0.7,0c-0.3,0-0.7-0.3-0.7-0.3v-0.2l0,0c0,0,0-0.2,0.2-0.2c0-0.2,0.2-0.3,0.3-0.3
				c0.2-0.2,0.2-0.3,0.3-0.3c0.2,0,0.3,0,0.7-0.2c0.3-0.2,0.8-0.3,1.2-0.3C211.1,144.8,211.3,144.8,211.5,144.8L211.5,144.8
				L211.5,144.8L211.5,144.8z"/>
		</g>
		<g>
			<path fill="#4D4D4D" d="M216,144.8c0,0,0.2,0.2,0.3,0.5c0,0.2,0.2,0.3,0.2,0.7c0,0.2,0.2,0.5,0.2,0.7c0,0.2,0.2,0.5,0,0.8
				c0,0.3-0.2,0.3-0.3,0.5c-0.3,0.3-0.7,0.3-0.7,0.3h-0.2l0,0c0,0,0-0.2-0.2-0.2c0-0.2-0.2-0.3-0.2-0.5c0-0.2-0.2-0.3,0-0.5
				c0-0.2,0.2-0.3,0.3-0.5c0.2-0.3,0.3-0.8,0.3-1.2C215.7,145.1,215.9,144.8,216,144.8C215.9,144.8,215.9,144.8,216,144.8L216,144.8
				L216,144.8z"/>
		</g>
		<g>
			<path fill="#4D4D4D" d="M230.1,138.4c0,0,0,0.3,0,0.7c0,0.2,0,0.5-0.2,0.7c0,0.3-0.2,0.5-0.2,0.8s0,0.5-0.2,0.8
				c-0.2,0.2-0.3,0.3-0.5,0.5c-0.3,0.3-0.8,0.3-0.8,0.3H228l0,0c0,0,0-0.2-0.2-0.3c0-0.2,0-0.3,0-0.5c0-0.2,0-0.5,0.2-0.7
				c0.2-0.2,0.3-0.3,0.5-0.5c0.3-0.3,0.7-0.8,0.8-1.2C229.9,138.6,229.9,138.4,230.1,138.4C230.1,138.2,230.1,138.2,230.1,138.4
				L230.1,138.4z"/>
		</g>
		<g>
			<path fill="#4D4D4D" d="M231.5,121.6c0,0,0.2,0.2,0.3,0.3c0.2,0.2,0.2,0.3,0.3,0.3c0.2,0.2,0.2,0.3,0.3,0.3
				c0.2,0.2,0.3,0.2,0.3,0.3c0.2,0.5,0.2,0.7,0.2,0.8c0,0.2,0,0.3,0,0.5s0,0.3,0,0.3l0,0c0,0,0,0.2-0.2,0.2c0,0-0.3,0.2-0.8,0
				c-0.2,0-0.3-0.2-0.5-0.3c-0.2-0.1-0.2-0.5-0.2-0.7c0-0.7,0-1.2,0-1.5C231.3,122,231.3,121.8,231.5,121.6L231.5,121.6
				C231.3,121.6,231.5,121.6,231.5,121.6L231.5,121.6z"/>
		</g>
		<g>
			<path fill="#4D4D4D" d="M235.2,111.5c0,0,0.2,0.2,0.3,0.3c0.2,0.2,0.3,0.5,0.7,0.7c0.2,0.2,0.3,0.2,0.3,0.3c0,0.1,0,0.3,0,0.3
				c0,0.2,0,0.3-0.2,0.3c0,0.2-0.2,0.2-0.2,0.2l0,0c0,0,0,0.2-0.2,0.2c0,0-0.3,0-0.7,0c-0.2,0-0.3-0.2-0.3-0.3
				c-0.2-0.2,0-0.3-0.2-0.5c0-0.2,0-0.3,0-0.5c0-0.2,0-0.3,0-0.5c0-0.3,0-0.5,0-0.5l0,0C235,111.5,235,111.5,235.2,111.5
				L235.2,111.5z"/>
		</g>
		<g>
			<path fill="#4D4D4D" d="M237.7,98.4c0,0,0.2,0.2,0.3,0.2c0.2,0,0.3,0.2,0.3,0.3c0.2,0.2,0.3,0.2,0.3,0.3c0.2,0.2,0.3,0.2,0.3,0.3
				c0.2,0.2,0.2,0.3,0,0.3c0,0.2,0,0.3-0.2,0.3c0,0.2-0.2,0.2-0.2,0.2s-0.2,0-0.2,0.2h-0.2c-0.2,0-0.3,0-0.5,0
				c-0.2,0-0.3-0.2-0.3-0.2c0-0.2,0-0.3-0.2-0.5c-0.2-0.2-0.2-0.3-0.2-0.5s0-0.3,0-0.5C237.6,98.8,237.6,98.6,237.7,98.4
				C237.6,98.4,237.6,98.4,237.7,98.4L237.7,98.4z"/>
		</g>
		<g>
			<path fill="#4D4D4D" d="M240.1,85.4L240.1,85.4c0.2,0.2,0.3,0.3,0.3,0.3c0.2,0.2,0.3,0.2,0.3,0.3c0.2,0,0.3,0.2,0.3,0.2
				c0.2,0,0.3,0,0.3,0c0.2,0,0.2,0.2,0.3,0.3c0.2,0.3,0.3,0.5,0.3,0.5v0.2c0,0,0,0.2-0.2,0.2c-0.2,0.2-0.3,0.2-0.5,0.3
				c-0.2,0-0.5,0.2-0.7,0c-0.2-0.2-0.3-0.3-0.5-0.5c-0.3-0.3-0.5-0.8-0.5-1.2c0-0.2,0-0.3,0-0.3S239.9,85.4,240.1,85.4
				C239.9,85.4,240.1,85.4,240.1,85.4L240.1,85.4z"/>
		</g>
		<g>
			<path fill="#4D4D4D" d="M227.4,67.6c0,0,0.2,0.3,0,0.7c-0.2,0.3-0.2,0.8-0.5,1.4c-0.2,0.2-0.2,0.5-0.3,0.7
				c-0.2,0.2-0.3,0.2-0.7,0.2c-0.3,0-0.8-0.2-0.8-0.2l-0.2-0.2l0,0c0,0,0.2-0.2,0.2-0.3c0-0.2,0.2-0.3,0.2-0.5s0.2-0.3,0.3-0.3
				c0.2,0,0.3-0.2,0.5-0.3c0.2-0.2,0.3-0.2,0.5-0.3c0.2-0.2,0.3-0.3,0.5-0.3C227.2,67.6,227.4,67.4,227.4,67.6
				C227.6,67.4,227.4,67.4,227.4,67.6C227.6,67.6,227.4,67.6,227.4,67.6L227.4,67.6z"/>
		</g>
		<g>
			<path fill="#4D4D4D" d="M221.8,59.9c0,0,0,0.3-0.2,0.7c0,0.2-0.2,0.5-0.2,0.7s-0.2,0.5-0.2,0.7s-0.2,0.5-0.2,0.7
				c0,0.2-0.2,0.2-0.3,0.3c-0.2,0.2-0.3,0.2-0.5,0.2c-0.2,0-0.3,0-0.3,0h-0.2c0,0,0-0.2-0.2-0.3c-0.2-0.2-0.2-0.3-0.2-0.5
				s0-0.3,0.2-0.7c0.2-0.2,0.3-0.3,0.5-0.5c0.2-0.2,0.3-0.3,0.5-0.5c0.2-0.2,0.3-0.3,0.5-0.3C221.5,59.9,221.6,59.9,221.8,59.9
				C221.8,59.8,221.8,59.9,221.8,59.9C221.8,59.8,221.8,59.9,221.8,59.9z"/>
		</g>
		<g>
			<path fill="#4D4D4D" d="M210.1,59.9L210.1,59.9c0,0.3,0,0.5,0,0.7c0,0.3-0.2,1-0.3,1.5c-0.2,0.3-0.2,0.5-0.3,0.8
				c-0.2,0.3-0.5,0.3-0.7,0.3c-0.3,0-0.5,0-0.7,0s-0.3-0.2-0.3-0.2l0,0l0,0c0,0,0-0.2,0-0.3v-0.2c0,0,0-0.2,0.2-0.3
				c0-0.2,0.2-0.3,0.3-0.3c0.2-0.2,0.3-0.2,0.5-0.3c0.2-0.2,0.3-0.3,0.5-0.5c0.2-0.2,0.3-0.3,0.3-0.5c0.2-0.2,0.2-0.3,0.3-0.3
				C209.9,59.9,209.9,59.9,210.1,59.9C209.9,59.9,209.9,59.9,210.1,59.9L210.1,59.9z"/>
		</g>
		<g>
			<path fill="#4D4D4D" d="M218.2,117.6c0,0,0,0,0,0.2s0,0.3,0.2,0.5c0,0.3,0,1-0.2,1.7c0,0.2-0.2,0.3-0.2,0.5
				c0,0.2-0.2,0.3-0.2,0.3c-0.2,0.3-0.5,0.3-0.7,0.5c-0.2,0.2-0.5,0.2-0.7,0c-0.2,0-0.3-0.2-0.3-0.2s-0.2-0.2,0-0.2l0,0
				c0,0,0-0.2,0-0.3c0,0,0-0.2,0-0.3c0-0.2,0-0.2,0-0.3c0-0.1,0.2-0.3,0.3-0.5c0.2-0.2,0.3-0.3,0.5-0.5c0.2-0.2,0.3-0.3,0.3-0.5
				c0.2-0.2,0.3-0.3,0.3-0.5c0.2-0.2,0.2-0.3,0.2-0.5C218.2,117.6,218.2,117.6,218.2,117.6L218.2,117.6L218.2,117.6z"/>
		</g>
		<g>
			<path fill="#4D4D4D" d="M226,129.9c0,0,0,0.2,0.2,0.5c0,0.3,0,0.8-0.2,1.4c0,0.2,0,0.5-0.2,0.7c-0.2,0.2-0.3,0.3-0.5,0.5
				c-0.3,0.2-0.8,0-0.8,0s-0.2,0-0.2-0.2l0,0c0,0,0-0.2,0-0.3c0-0.2,0-0.3,0-0.5c0-0.2,0-0.3,0.2-0.5c0.2-0.2,0.3-0.2,0.3-0.3
				c0.2-0.2,0.3-0.3,0.3-0.5c0.2-0.2,0.2-0.3,0.3-0.3C225.7,130.3,225.9,130.1,226,129.9C225.9,129.9,225.9,129.9,226,129.9
				L226,129.9L226,129.9z"/>
		</g>
		<g>
			<path fill="#4D4D4D" d="M223.1,148.8c0,0,0,0.3,0,0.7c0,0.3,0,0.8-0.2,1.4c-0.2,0.3-0.2,0.5-0.2,0.7c-0.2,0.2-0.3,0.3-0.5,0.3
				c-0.3,0.2-0.8,0-0.8,0s-0.2,0-0.2-0.2l0,0c0,0,0-0.2,0-0.3c0-0.2,0-0.3,0-0.5c0-0.2,0-0.3,0.2-0.5c0.2-0.2,0.3-0.3,0.5-0.3
				c0.2-0.2,0.3-0.3,0.3-0.5c0.2-0.2,0.3-0.3,0.3-0.5C222.8,149,223,148.8,223.1,148.8C223,148.7,223,148.7,223.1,148.8L223.1,148.8
				L223.1,148.8z"/>
		</g>
		<g>
			<path fill="#4D4D4D" d="M212.6,155.8c0,0,0,0.2-0.2,0.3c0,0.2-0.2,0.3-0.2,0.3c0,0.2-0.2,0.3-0.3,0.5c-0.1,0.2-0.2,0.3-0.2,0.5
				c0,0.2-0.3,0.2-0.3,0.2c-0.2,0-0.3,0-0.5,0c-0.2,0-0.2,0-0.2,0s-0.2,0-0.2-0.2v-0.2c0-0.2,0-0.3,0-0.5c0-0.2,0-0.3,0.2-0.3
				c0.2-0.2,0.3-0.2,0.5-0.2c0.2,0,0.3-0.2,0.5-0.2c0.2,0,0.3-0.2,0.3-0.2C212.3,155.8,212.5,155.6,212.6,155.8
				C212.6,155.6,212.6,155.6,212.6,155.8L212.6,155.8z"/>
		</g>
		<g>
			<path fill="#4D4D4D" d="M217.2,158.7c0,0-0.2,0.2-0.3,0.5c-0.2,0.2-0.2,0.3-0.3,0.5c-0.2,0.2-0.2,0.3-0.3,0.5
				c-0.1,0.2-0.2,0.3-0.3,0.5c-0.2,0.2-0.3,0.2-0.5,0.2c-0.2,0-0.3,0-0.5,0s-0.3,0-0.3,0s-0.2,0-0.2-0.2c0,0,0-0.2,0-0.3
				c0-0.2,0-0.3,0-0.5c0-0.2,0.2-0.3,0.3-0.5c0.2-0.2,0.3-0.2,0.5-0.3c0.2-0.1,0.3-0.2,0.5-0.3c0.2-0.2,0.3-0.2,0.5-0.2
				C216.9,158.7,217,158.7,217.2,158.7C217,158.7,217.2,158.7,217.2,158.7L217.2,158.7z"/>
		</g>
		<g>
			<path fill="#4D4D4D" d="M235.9,72.3c0,0,0,0.3,0,0.7c0,0.3-0.2,1-0.3,1.5c-0.2,0.3-0.2,0.5-0.3,0.8c-0.2,0.2-0.3,0.3-0.7,0.5
				c-0.5,0.2-1,0.2-1,0.2s-0.2,0-0.2-0.2l0,0c0,0,0.2-0.2,0.2-0.3c0-0.2,0.2-0.3,0.2-0.5s0.2-0.3,0.3-0.5c0.1-0.2,0.3-0.3,0.5-0.5
				c0.2-0.2,0.3-0.3,0.5-0.5c0.2-0.2,0.3-0.3,0.3-0.5C235.5,72.7,235.7,72.5,235.9,72.3C235.7,72.3,235.9,72.3,235.9,72.3
				L235.9,72.3L235.9,72.3z"/>
		</g>
		<g>
			<path fill="#4D4D4D" d="M232.8,56.7c0,0,0,0.3,0,0.7c0,0.2,0,0.3,0,0.7c0,0.2,0,0.5-0.2,0.7c-0.2,0.2,0,0.5-0.2,0.7
				c-0.2,0.2-0.3,0.3-0.5,0.5c-0.3,0.2-0.8,0.2-0.8,0.2s-0.2,0-0.2-0.2l0,0c0,0,0-0.2,0-0.3c0-0.2,0-0.3,0-0.5s0-0.3,0.2-0.5
				c0.2-0.2,0.3-0.3,0.5-0.5c0.3-0.3,0.5-0.7,0.8-1C232.6,56.7,232.8,56.6,232.8,56.7C233,56.6,233,56.6,232.8,56.7
				C232.8,56.6,232.8,56.6,232.8,56.7L232.8,56.7z"/>
		</g>
		<g>
			<path fill="#4D4D4D" d="M275.4,74.9c0,0,0,0,0,0.2c0,0.2,0.2,0.3,0.2,0.5s0.2,0.3,0.3,0.7c0.2,0.2,0.3,0.5,0.3,0.7
				c0.2,0.2,0.3,0.3,0.5,0.5s0.2,0.3,0.2,0.5c0,0.2,0,0.2,0,0.3c0,0.2,0,0.2,0,0.3c0,0.2,0,0.3,0,0.3l0,0v0.2c0,0-0.2,0-0.3,0
				c-0.2,0-0.3,0-0.7-0.2c-0.3-0.2-0.5-0.3-0.7-0.5c-0.2-0.2-0.2-0.3-0.2-0.3c0-0.2,0-0.3-0.2-0.5c-0.2-0.7-0.2-1.4,0-1.7
				c0-0.2,0-0.3,0.2-0.5c0-0.2,0-0.2,0-0.2C275.1,74.9,275.1,74.9,275.4,74.9C275.3,74.9,275.4,74.9,275.4,74.9z"/>
		</g>
		<g>
			<path fill="#4D4D4D" d="M274.9,94.4c0,0,0.2,0.2,0.3,0.3c0.2,0.2,0.3,0.3,0.3,0.3c0.2,0.2,0.3,0.3,0.3,0.3
				c0.2,0.2,0.3,0.2,0.5,0.3c0.3,0.3,0.3,0.4,0.3,0.4s0.2,0.3,0.2,0.5s0,0.3,0,0.3l0,0c0,0,0,0.2-0.2,0.2c0,0-0.3,0.2-0.8,0.2
				c-0.2,0-0.5-0.2-0.7-0.3c0.2,0,0.2-0.2,0.2-0.2c0-0.2-0.2-0.3-0.2-0.3c-0.2-0.5-0.3-1-0.3-1.4c0-0.2,0-0.3,0-0.3L274.9,94.4
				C274.7,94.4,274.7,94.4,274.9,94.4L274.9,94.4z"/>
		</g>
		<g>
			<path fill="#4D4D4D" d="M271.5,105.7c0,0,0,0,0,0.2s0.2,0.3,0.2,0.5s0.2,0.5,0.3,0.7c0.2,0.3,0.3,0.5,0.3,0.7
				c0.2,0.3,0.3,0.3,0.5,0.7c0.2,0.2,0.2,0.5,0.2,0.7s0,0.2,0,0.3c0,0.2,0,0.2,0,0.3c0,0.1,0,0.3,0,0.3s0,0.2-0.2,0.2
				c0,0-0.2,0-0.3,0c-0.1,0-0.3-0.2-0.7-0.2c-0.3-0.2-0.5-0.3-0.7-0.7c-0.2-0.2-0.2-0.3-0.2-0.5s0-0.3-0.2-0.5
				c-0.2-0.7-0.2-1.4-0.2-1.9c0-0.3,0-0.5,0-0.5c0-0.2,0-0.2,0-0.2C271.2,105.5,271.2,105.5,271.5,105.7
				C271.4,105.5,271.5,105.7,271.5,105.7z"/>
		</g>
		<g>
			<path fill="#4D4D4D" d="M271.2,85c0,0,0,0.3,0.2,0.7c0.2,0.3,0.2,0.8,0.3,1.4c0,0.2,0.3,0.3,0.3,0.7c0,0.4,0,0.3,0,0.5
				s-0.2,0.3-0.2,0.5s-0.2,0.3-0.2,0.3l0,0h-0.2c0,0-0.3,0-0.8-0.3c-0.2-0.2-0.3-0.3-0.3-0.7s0-0.5,0-0.8c0-0.3,0-0.5,0.2-0.8
				c0-0.3,0.2-0.5,0.2-0.7C270.8,85.2,271,85,271.2,85L271.2,85C271,84.9,271.2,84.9,271.2,85L271.2,85z"/>
		</g>
		<g>
			<path fill="#4D4D4D" d="M266.6,89.3c0,0,0.2,0.2,0.5,0.5c0.2,0.2,0.3,0.3,0.5,0.5s0.3,0.3,0.5,0.7c0.2,0.2,0.3,0.3,0.5,0.7
				c0.2,0.2,0.2,0.5,0.2,0.7s0,0.3-0.2,0.5c-0.2,0.2-0.2,0.3-0.2,0.3s-0.2,0.2-0.2,0c0,0-0.2,0-0.3,0c-0.2,0-0.3-0.2-0.5-0.3
				c-0.2-0.2-0.3-0.3-0.5-0.5s-0.2-0.5-0.2-0.8c0-0.3-0.2-0.5-0.2-0.8s-0.2-0.5-0.2-0.7C266.4,89.6,266.4,89.4,266.6,89.3
				C266.4,89.4,266.4,89.3,266.6,89.3L266.6,89.3z"/>
		</g>
		<g>
			<path fill="#4D4D4D" d="M275.4,60.6c0,0,0.2,0.2,0.2,0.5c0.2,0.3,0.3,0.5,0.5,0.8c0.2,0.2,0.3,0.3,0.3,0.3c0,0.2,0,0.3,0,0.5
				c0,0.2-0.2,0.3-0.2,0.3c0,0.2-0.2,0.2-0.2,0.2l0,0c0,0,0,0.2-0.2,0.2c0,0-0.3,0-0.7-0.2c-0.2-0.2-0.3-0.2-0.3-0.3
				c0-0.2,0-0.5,0-0.7s0-0.3,0-0.7c0-0.2,0-0.3,0.2-0.5c0.2-0.3,0.2-0.5,0.2-0.5l0,0C275.3,60.6,275.3,60.6,275.4,60.6L275.4,60.6z"
				/>
		</g>
		<g>
			<path fill="#4D4D4D" d="M275.6,87.2c0,0,0.2,0.3,0.3,0.7c0.2,0.2,0.2,0.3,0.3,0.5c0.2,0.2,0.2,0.5,0.3,0.7
				c0.2,0.2,0.3,0.3,0.5,0.5c0.2,0.2,0.2,0.3,0.2,0.7c0,0.2,0,0.5,0,0.5v0.3l0,0c0,0,0,0.2-0.2,0.2c0,0-0.5,0-0.8-0.2
				c-0.2-0.2-0.3-0.3-0.5-0.5c-0.2-0.3-0.2-0.5-0.2-0.8c0-0.3-0.2-0.5-0.2-0.8s0-0.5,0-0.7C275.4,87.6,275.6,87.2,275.6,87.2
				L275.6,87.2C275.4,87.1,275.6,87.1,275.6,87.2C275.6,87.1,275.6,87.1,275.6,87.2z"/>
		</g>
		<g>
			<path fill="#4D4D4D" d="M268.1,69.8L268.1,69.8c0.2,0.3,0.3,0.3,0.3,0.5c0.2,0.2,0.3,0.3,0.3,0.5c0.2,0.2,0.3,0.3,0.5,0.5
				c0.2,0.2,0.3,0.2,0.5,0.3c0.2,0.2,0.3,0.3,0.3,0.3c0.3,0.5,0.3,0.7,0.3,0.7v0.2c0,0,0,0.2-0.2,0.2c-0.2,0.2-0.3,0.2-0.7,0.2
				c-0.3,0-0.7-0.2-0.8-0.3c-0.2-0.2-0.3-0.5-0.5-0.8s-0.3-0.5-0.3-0.8c-0.2-0.3-0.2-0.5-0.2-0.8c0-0.2,0-0.2,0-0.3
				c0-0.1,0-0.2,0-0.2c0-0.2,0-0.2,0-0.2C268,69.6,268,69.6,268.1,69.8L268.1,69.8z"/>
		</g>
		<g>
			<path fill="#4D4D4D" d="M264.7,74.9c0,0,0,0.2,0.2,0.2c0,0.2,0.2,0.3,0.3,0.5c0.2,0.3,0.3,0.5,0.3,0.8c0.2,0.3,0.3,0.5,0.5,0.8
				c0.2,0.3,0.3,0.5,0.5,0.8c0.2,0.3,0.2,0.5,0.3,0.8c0,0.3,0.2,0.5,0.2,0.7s0,0.3,0,0.3s0,0.2-0.2,0.2c0,0-0.2,0-0.3,0
				c-0.1,0-0.3-0.2-0.7-0.3c-0.4-0.1-0.5-0.3-0.7-0.7c-0.2-0.2-0.2-0.3-0.2-0.5s-0.2-0.3-0.2-0.5c-0.2-0.7-0.3-1.5-0.3-2
				C264.4,75.4,264.4,75.2,264.7,74.9C264.6,74.9,264.6,74.7,264.7,74.9C264.6,74.7,264.6,74.7,264.7,74.9
				C264.6,74.9,264.6,74.9,264.7,74.9z"/>
		</g>
		<g>
			<path fill="#4D4D4D" d="M258.3,76.7c0,0,0,0.2,0,0.3c0,0.2,0,0.5,0,0.7c0,0.5,0.2,1.4,0.3,2c0.2,0.3,0.3,0.7,0.5,1
				c0.2,0.3,0.2,0.7,0.2,0.8c0,0.1,0,0.3,0,0.5c0,0.2,0,0.3,0,0.3c0,0.2,0,0.3,0,0.3l0,0l-0.2,0.2l0,0c0,0-0.2,0-0.3-0.2
				c-0.2,0-0.5-0.2-0.7-0.5c-0.3-0.2-0.5-0.5-0.7-1c0-0.2-0.2-0.3-0.2-0.7s0-0.3,0-0.7c0-0.2,0-0.3,0-0.7c0-0.3,0-0.3,0-0.5
				s0-0.3,0.2-0.5c0-0.2,0-0.3,0.2-0.5c0.2-0.3,0.2-0.5,0.3-0.7C258,76.7,258.1,76.7,258.3,76.7C258.1,76.6,258.1,76.6,258.3,76.7
				L258.3,76.7z"/>
		</g>
		<g>
			<path fill="#4D4D4D" d="M260.2,66.9L260.2,66.9c0.2,0.3,0.2,0.3,0.2,0.5s0.2,0.3,0.3,0.5c0.2,0.2,0.2,0.3,0.3,0.3
				c0.2,0.2,0.3,0.2,0.3,0.3c0.2,0.2,0.2,0.3,0.2,0.3c0,0.2,0,0.2,0,0.3c0,0.1,0,0.2,0,0.2c0,0.2,0,0.3,0,0.3v0.2c0,0-0.2,0-0.3,0.2
				c-0.2,0-0.3,0-0.5,0s-0.5-0.2-0.5-0.3c-0.2-0.2-0.2-0.5-0.2-0.7c-0.2-0.5-0.2-1,0-1.4c0-0.2,0.2-0.3,0.2-0.3c0-0.2,0-0.2,0-0.2
				C260,66.7,260,66.7,260.2,66.9C260.2,66.7,260.2,66.9,260.2,66.9z"/>
		</g>
		<g>
			<path fill="#4D4D4D" d="M263.9,58.1c0,0,0.2,0.3,0.3,0.5c0.2,0.3,0.3,0.8,0.7,1.4c0.2,0.2,0.3,0.5,0.3,0.7c0,0.2,0,0.5,0,0.7
				s-0.2,0.5-0.2,0.5c0,0.2-0.2,0.3-0.2,0.3h-0.2c0,0-0.2,0-0.3-0.2c-0.2,0-0.3-0.2-0.5-0.3c-0.2-0.2-0.3-0.3-0.3-0.5
				c0-0.3,0-0.5,0-0.8s0-0.5,0-0.8c0-0.3,0-0.5,0-0.7C263.7,58.4,263.7,58.1,263.9,58.1C263.7,58.1,263.7,58.1,263.9,58.1
				C263.7,58.1,263.7,58.1,263.9,58.1z"/>
		</g>
		<g>
			<path fill="#4D4D4D" d="M251.4,61.5c0,0,0,0,0,0.2c0,0.2,0,0.3,0.2,0.5c0.2,0.3,0.3,0.8,0.5,1.4c0.2,0.2,0.3,0.3,0.3,0.5
				c0.2,0.2,0.2,0.5,0.2,0.5c0,0.2,0,0.3,0,0.5c0,0.2,0,0.3,0,0.3s0,0.2-0.2,0.2c0,0-0.2,0-0.3,0c-0.2,0-0.3-0.2-0.5-0.3
				c-0.2-0.1-0.3-0.3-0.5-0.5c-0.2-0.3,0-0.5-0.2-0.8c0-0.3,0-0.5,0-0.8s0-0.5,0.2-0.7c0-0.2,0.2-0.3,0.2-0.5
				C251.4,61.5,251.4,61.5,251.4,61.5L251.4,61.5C251.4,61.3,251.4,61.5,251.4,61.5z"/>
		</g>
		<g>
			<path fill="#4D4D4D" d="M240.8,60.6c0,0,0.2,0.3,0.5,0.7c0.2,0.2,0.3,0.3,0.5,0.7c0.2,0.4,0.3,0.5,0.5,0.8
				c0.2,0.3,0.3,0.5,0.5,0.8c0.2,0.3,0.2,0.5,0.2,0.8c0,0.3,0,0.5-0.2,0.7c0,0.2-0.2,0.3-0.2,0.3h-0.2c0,0-0.2,0-0.3-0.2
				c-0.2-0.2-0.3-0.2-0.5-0.3c-0.2-0.2-0.3-0.3-0.5-0.7c-0.2-0.4-0.2-0.7-0.2-0.8c0-0.3-0.2-0.7-0.2-0.8c0-0.3-0.2-0.5-0.2-0.8
				C240.6,61,240.6,60.6,240.8,60.6C240.6,60.6,240.6,60.6,240.8,60.6C240.6,60.5,240.8,60.5,240.8,60.6z"/>
		</g>
		<g>
			<path fill="#4D4D4D" d="M246.8,75.9c0,0,0.2,0.2,0.3,0.5c0.3,0.3,0.5,0.7,0.8,1.2c0.2,0.2,0.3,0.3,0.5,0.5
				c0.2,0.2,0.2,0.5,0.2,0.7s0,0.5-0.2,0.5c0,0.2-0.2,0.3-0.2,0.3s-0.2,0.2-0.2,0c0,0-0.2,0-0.3,0c-0.2,0-0.3-0.2-0.5-0.3
				c-0.2-0.2-0.3-0.3-0.5-0.5c-0.2-0.2-0.2-0.5-0.2-0.8c0-0.3-0.2-0.5-0.2-0.8s0-0.5-0.2-0.7c0-0.3,0-0.7,0-0.7
				C246.6,75.9,246.6,75.7,246.8,75.9L246.8,75.9z"/>
		</g>
		<g>
			<path fill="#4D4D4D" d="M253.4,88.9c0,0,0.2,0.3,0.5,0.7c0.2,0.2,0.3,0.3,0.5,0.7c0.2,0.3,0.3,0.5,0.5,0.7
				c0.2,0.3,0.5,0.3,0.7,0.7c0.2,0.2,0.3,0.5,0.3,0.7c0,0.3,0.3,0.5,0.3,0.7s0.2,0.3,0.2,0.3l0,0l-0.2,0.2c0,0-0.5,0-1-0.2
				c-0.3-0.2-0.5-0.3-0.7-0.5c-0.2-0.3-0.3-0.7-0.3-1c-0.2-0.3-0.3-0.7-0.3-1c-0.2-0.3-0.2-0.7-0.2-0.8
				C253.4,89.4,253.4,89.1,253.4,88.9L253.4,88.9C253.4,89.1,253.4,88.9,253.4,88.9L253.4,88.9z"/>
		</g>
		<g>
			<path fill="#4D4D4D" d="M246.4,94.7c0,0,0.3,0.2,0.5,0.3c0.3,0.2,0.8,0.3,1.4,0.7c0.2,0.2,0.5,0.2,0.7,0.3
				c0.2,0.2,0.3,0.3,0.3,0.5c0.2,0.2,0.2,0.3,0.2,0.5s0,0.3,0,0.3l0,0v0.2c0,0-0.3,0.2-0.8,0.2c-0.2,0-0.5-0.2-0.7-0.2
				c-0.2-0.2-0.3-0.3-0.5-0.7c-0.2-0.2-0.3-0.3-0.5-0.7c-0.2-0.2-0.3-0.3-0.3-0.7C246.5,95.1,246.4,94.7,246.4,94.7L246.4,94.7
				C246.1,94.7,246.1,94.7,246.4,94.7C246.3,94.7,246.3,94.7,246.4,94.7z"/>
		</g>
		<g>
			<path fill="#4D4D4D" d="M244.4,107.2c0,0,0.2,0.3,0.2,0.7c0,0.2,0.2,0.5,0.2,0.7c0,0.3,0,0.5,0,0.8c0,0.3,0.2,0.5,0,0.8
				c-0.2,0.3-0.2,0.5-0.3,0.7c-0.3,0.3-0.7,0.5-0.7,0.5h-0.2l0,0c0,0,0-0.2-0.2-0.2c-0.2-0.2-0.2-0.3-0.2-0.5c0-0.2-0.2-0.5,0-0.7
				c0-0.2,0.2-0.5,0.3-0.7c0.2-0.5,0.3-1,0.5-1.4C244.2,107.4,244.2,107.2,244.4,107.2C244.2,107.1,244.4,107.1,244.4,107.2
				C244.4,107.1,244.4,107.1,244.4,107.2L244.4,107.2z"/>
		</g>
		<g>
			<path fill="#4D4D4D" d="M239.6,120.3c0,0,0.2,0.3,0.2,0.8s0,1.2-0.3,1.9c-0.2,0.3-0.2,0.7-0.3,1c-0.2,0.3-0.3,0.5-0.7,0.7
				c-0.5,0.3-0.8,0.3-0.8,0.3s0,0,0-0.2l0,0c0,0-0.2-0.2,0-0.3c0-0.2,0-0.3,0-0.7c0-0.3,0.2-0.5,0.3-0.7c0.2-0.2,0.3-0.3,0.5-0.7
				c0.2-0.3,0.3-0.5,0.5-0.8c0.2-0.3,0.3-0.5,0.3-0.7C239.4,120.5,239.6,120.1,239.6,120.3C239.6,120.1,239.6,120.1,239.6,120.3
				C239.6,120.1,239.6,120.1,239.6,120.3L239.6,120.3z"/>
		</g>
		<g>
			<path fill="#4D4D4D" d="M236.9,132.1L236.9,132.1c0.2,0.3,0.2,0.3,0.2,0.7c0,0.3,0.2,1,0,1.5c0,0.2,0,0.3,0,0.3s0,0.3-0.2,0.3
				c-0.2,0.3-0.3,0.3-0.5,0.5c-0.2,0.2-0.3,0.2-0.5,0.2c-0.2,0-0.3,0-0.3,0s-0.2,0-0.2-0.2c0,0,0-0.2,0-0.3s0-0.3,0-0.5
				c0-0.2,0-0.3,0.2-0.5c0.2-0.2,0.3-0.3,0.3-0.5c0.2-0.2,0.3-0.3,0.3-0.5c0.2-0.2,0.2-0.3,0.3-0.5c0.2-0.2,0.2-0.3,0.2-0.3
				S236.7,132.1,236.9,132.1C236.7,132.1,236.9,132.1,236.9,132.1L236.9,132.1z"/>
		</g>
		<g>
			<path fill="#4D4D4D" d="M233.8,147.3c0,0,0,0.2-0.2,0.5c0,0.2,0,0.3-0.2,0.5c0,0.2-0.2,0.3-0.2,0.5s0,0.3-0.2,0.5
				c-0.2,0.2-0.3,0.3-0.3,0.3c-0.2,0-0.3,0.2-0.5,0.2c-0.2,0-0.3,0-0.3,0s-0.2,0-0.2-0.2c0,0,0-0.2-0.2-0.2c0-0.2-0.2-0.3-0.2-0.5
				c0-0.2,0-0.3,0.2-0.5c0.2-0.2,0.3-0.2,0.5-0.3c0.2-0.2,0.3-0.3,0.3-0.3c0.2-0.2,0.3-0.2,0.3-0.3c0.3-0.2,0.3-0.3,0.3-0.3
				C233.7,147.3,233.7,147.3,233.8,147.3L233.8,147.3z"/>
		</g>
		<g>
			<path fill="#4D4D4D" d="M226.7,94.5c0,0,0,0.3,0,0.7c0,0.2,0,0.3,0,0.7c0,0.3-0.2,0.5-0.2,0.8c0,0.3,0,0.5-0.2,0.8
				c-0.2,0.2-0.3,0.3-0.3,0.5c-0.2,0.2-0.3,0.3-0.5,0.3c-0.2,0-0.3,0.2-0.3,0.2H225c0,0,0-0.2-0.2-0.3c0-0.2-0.2-0.3-0.2-0.5
				s0-0.5,0-0.7c0.2-0.2,0.3-0.3,0.5-0.7c0.2-0.2,0.3-0.3,0.3-0.7c0.2-0.2,0.3-0.3,0.3-0.5C226.5,94.7,226.5,94.5,226.7,94.5
				C226.7,94.4,226.7,94.4,226.7,94.5L226.7,94.5z"/>
		</g>
		<g>
			<path fill="#4D4D4D" d="M210.1,109.3C210.1,109.3,210.1,109.4,210.1,109.3c0.2,0.2,0.2,0.3,0.2,0.5c0,0.3,0.2,0.7,0,1.2
				c0,0.2-0.2,0.5-0.2,0.7c-0.2,0.2-0.3,0.3-0.5,0.3c-0.2,0-0.3,0-0.5-0.2c-0.2-0.2-0.2-0.2-0.2-0.2v-0.2l0,0v-0.2V111v0
				c0-0.2,0-0.3,0-0.3s0.3,0,0.3-0.2c0-0.2,0.2-0.2,0.3-0.3c0.1-0.1,0.2-0.2,0.3-0.3c0-0.2,0.2-0.2,0.2-0.3L210.1,109.3
				C209.9,109.3,209.9,109.3,210.1,109.3L210.1,109.3z"/>
		</g>
		<g>
			<path fill="#4D4D4D" d="M270.2,52.7C270.2,52.7,270.3,52.8,270.2,52.7c0.2,0.3,0.3,0.3,0.3,0.5c0.2,0.2,0.3,0.3,0.3,0.5
				c0.2,0.2,0.3,0.3,0.5,0.5c0.2,0.2,0.3,0.3,0.5,0.3c0.2,0.2,0.2,0.3,0.3,0.5c0,0.2,0,0.3,0.2,0.5c0,0.2,0,0.3,0,0.3l0,0
				c0,0,0,0.2-0.2,0.2c0,0-0.3,0.2-0.8,0c-0.2,0-0.5-0.2-0.7-0.5c-0.2-0.2-0.2-0.3-0.2-0.3l-0.2-0.3c-0.2-0.5-0.3-1.2-0.3-1.5
				C270,53.2,270,53,270.2,52.7C270,52.8,270,52.7,270.2,52.7C270,52.7,270.2,52.7,270.2,52.7L270.2,52.7z"/>
		</g>
		<g>
			<path fill="#4D4D4D" d="M261.9,101.3c0,0,0.2,0.2,0.3,0.3c0.2,0.2,0.5,0.5,0.8,0.7c0.2,0.2,0.3,0.2,0.3,0.3
				c0.2,0.2,0.2,0.3,0.2,0.5s0,0.3,0,0.5c0,0.2,0,0.2,0,0.2l0,0c0,0,0,0.2-0.2,0.2c0,0-0.3,0-0.7,0c-0.2,0-0.3-0.2-0.5-0.3
				c-0.2-0.2-0.2-0.3-0.2-0.7c0-0.2-0.2-0.3-0.2-0.5c0-0.2-0.2-0.3-0.2-0.5c0-0.3,0-0.5,0-0.5l0,0
				C261.7,101.3,261.7,101.3,261.9,101.3L261.9,101.3z"/>
		</g>
		<g>
			<path fill="#4D4D4D" d="M253.4,105.7c0,0,0,0.2,0.2,0.3c0.2,0.2,0.2,0.3,0.3,0.7c0.2,0.3,0.3,0.5,0.5,0.8
				c0.2,0.2,0.2,0.3,0.3,0.3c0.2,0.2,0.2,0.3,0.3,0.3c0.2,0.3,0.5,0.5,0.7,0.7c0.2,0.2,0.3,0.5,0.5,0.7c0,0.2,0.2,0.2,0.2,0.3
				c0,0.2,0.2,0.2,0.2,0.3c0.2,0.2,0.2,0.3,0.2,0.3l0,0v0.2l0,0c0,0-0.2,0-0.3,0c-0.2,0-0.5,0-0.8-0.2s-0.7-0.3-1-0.5
				c-0.2-0.2-0.3-0.3-0.3-0.5c-0.2-0.2-0.2-0.3-0.3-0.5c-0.2-0.3-0.3-0.8-0.3-1.2c-0.2-0.3-0.2-0.7-0.2-1c0-0.2,0-0.3,0-0.3
				s0-0.2,0-0.3C253.4,105.7,253.4,105.7,253.4,105.7C253.4,105.5,253.4,105.5,253.4,105.7C253.4,105.5,253.4,105.5,253.4,105.7z"/>
		</g>
		<g>
			<path fill="#4D4D4D" d="M249.1,115c0,0,0.2,0.2,0.5,0.5c0.2,0.2,0.3,0.3,0.5,0.5c0.2,0.2,0.3,0.5,0.5,0.7
				c0.2,0.3,0.3,0.5,0.5,0.7c0.2,0.3,0.2,0.5,0.2,0.8s0,0.5-0.2,0.7c0,0.2-0.2,0.3-0.2,0.3s-0.2,0.2-0.2,0c0,0-0.2,0-0.3-0.2
				c-0.2,0-0.3-0.2-0.5-0.3c-0.2-0.2-0.3-0.3-0.5-0.5c-0.2-0.3-0.2-0.5-0.2-0.8c0-0.3-0.2-0.5-0.2-0.8s-0.2-0.5-0.2-0.7
				C249,115.5,249,115.2,249.1,115C249,115.2,249,115.2,249.1,115L249.1,115z"/>
		</g>
		<g>
			<path fill="#4D4D4D" d="M244.9,128.2c0,0,0.3,0.3,0.7,0.8c0.2,0.3,0.5,0.5,0.7,0.8c0.3,0.3,0.5,0.7,0.8,1c0.3,0.3,0.5,0.7,0.8,1
				c0.2,0.3,0.3,0.7,0.3,1c0,0.3,0.2,0.7,0.2,0.8c0,0.2,0,0.3,0,0.3s0,0.2-0.2,0.2l0,0c0,0-0.2,0-0.3-0.2c-0.2-0.2-0.3-0.3-0.7-0.5
				c-0.3-0.2-0.5-0.5-0.7-0.8s-0.3-0.8-0.5-1.2c-0.2-0.4-0.3-0.8-0.5-1.2c-0.2-0.3-0.3-0.7-0.3-1
				C244.9,128.6,244.7,128.2,244.9,128.2C244.7,128.2,244.7,128.1,244.9,128.2L244.9,128.2z"/>
		</g>
		<g>
			<path fill="#4D4D4D" d="M256.8,119.1c0,0,0.2,0.2,0.5,0.3c0.2,0.2,0.3,0.3,0.5,0.3c0.2,0.2,0.3,0.3,0.5,0.5s0.3,0.3,0.5,0.5
				c0.2,0.2,0.2,0.3,0.2,0.7c0,0.3,0,0.3,0,0.5s0,0.3,0,0.3s0,0.2-0.2,0.2c0,0-0.2,0-0.3,0s-0.3,0-0.5-0.2s-0.3-0.2-0.5-0.3
				c-0.2-0.1-0.2-0.5-0.3-0.7c-0.2-0.2-0.2-0.5-0.3-0.7c-0.2-0.2-0.2-0.3-0.2-0.7C256.8,119.6,256.6,119.3,256.8,119.1
				C256.6,119.3,256.6,119.1,256.8,119.1C256.6,119.1,256.8,119.1,256.8,119.1z"/>
		</g>
		<g>
			<path fill="#4D4D4D" d="M265.8,108.9c0,0,0.7,0.8,1.5,1.7c0.2,0.2,0.3,0.3,0.5,0.5s0.2,0.5,0.3,0.7c0.2,0.2,0,0.5,0,0.7
				c0,0.2,0,0.3,0,0.3l0,0c0,0,0,0.2-0.2,0.2c0,0-0.5,0-0.8-0.3c-0.2-0.2-0.3-0.3-0.5-0.5c-0.2-0.2-0.2-0.5-0.3-0.8
				c-0.2-0.3-0.2-0.5-0.3-0.8c0-0.3-0.2-0.5-0.3-0.7c-0.2-0.3-0.2-0.7-0.2-0.7l0,0C265.4,108.9,265.4,108.9,265.8,108.9
				C265.6,108.9,265.8,108.9,265.8,108.9z"/>
		</g>
		<g>
			<path fill="#4D4D4D" d="M255.4,128.4c0,0,0.3,0.3,0.7,0.7c0.3,0.3,0.8,0.8,1.4,1.4c0.3,0.3,0.5,0.3,0.8,0.7
				c0.3,0.3,0.3,0.5,0.5,0.8c0.2,0.3,0.2,0.5,0.3,0.7c0,0.2,0,0.3,0,0.3l0,0l-0.2,0.2c0,0-0.5,0-1-0.3c-0.3-0.2-0.5-0.3-0.8-0.5
				c-0.2-0.3-0.3-0.7-0.5-1s-0.3-0.7-0.5-1c-0.2-0.3-0.3-0.7-0.3-0.8C255.4,128.9,255.3,128.6,255.4,128.4L255.4,128.4
				C255.3,128.4,255.3,128.4,255.4,128.4L255.4,128.4z"/>
		</g>
		<g>
			<path fill="#4D4D4D" d="M264.7,123.2c0,0,0,0.2,0.2,0.2c0,0.2,0.2,0.3,0.3,0.5c0.2,0.2,0.3,0.5,0.3,0.7s0.2,0.3,0.3,0.3
				c0.2,0.2,0.2,0.3,0.3,0.3c0.2,0.3,0.5,0.3,0.7,0.5s0.3,0.3,0.3,0.7c0,0.2,0.2,0.2,0.2,0.3c0,0.2,0.2,0.2,0.2,0.3
				c0,0.1,0.2,0.3,0.2,0.3l0,0v0.2c0,0-0.2,0-0.3,0c-0.2,0-0.5,0-0.8,0c-0.3-0.2-0.7-0.3-0.8-0.5c-0.2-0.2-0.2-0.3-0.3-0.5
				c0-0.2-0.2-0.3-0.2-0.5c-0.2-0.3-0.3-0.7-0.3-1c0-0.3-0.2-0.7-0.2-1C264.8,123.7,264.8,123.5,264.7,123.2
				C264.6,123.3,264.6,123.2,264.7,123.2C264.6,123.2,264.7,123.2,264.7,123.2C264.7,123,264.7,123,264.7,123.2z"/>
		</g>
		<g>
			<path fill="#4D4D4D" d="M274.7,136.6c0,0,0.2,0.2,0.3,0.3c0.2,0.2,0.3,0.2,0.3,0.3c0.2,0.2,0.3,0.2,0.5,0.3
				c0.2,0.2,0.3,0.2,0.5,0.3c0.2,0.2,0.2,0.3,0.2,0.5c0,0.2,0,0.3-0.2,0.5c0,0.2-0.2,0.2-0.2,0.2s0,0.2-0.2,0.2c0,0-0.2,0-0.3,0
				c-0.2,0-0.3,0-0.5,0c-0.2,0-0.3-0.2-0.3-0.3c-0.2-0.2-0.2-0.3-0.2-0.5c0-0.2-0.2-0.3-0.2-0.5c0-0.2-0.2-0.3-0.2-0.5
				C274.7,136.9,274.7,136.7,274.7,136.6L274.7,136.6L274.7,136.6z"/>
		</g>
		<g opacity="0.47" enable-background="new    ">
			<path fill="#4D4D4D" d="M264.9,135.4C264.9,135.4,264.9,135.5,264.9,135.4c0.2,0.3,0.2,0.3,0.3,0.5c0.2,0.2,0.2,0.3,0.3,0.3
				c0.2,0.2,0.3,0.3,0.3,0.3c0.2,0.2,0.3,0.2,0.5,0.2c0.2,0.2,0.2,0.2,0.3,0.3c0,0,0,0.2,0.2,0.2l0.2,0.2c0.2,0.2,0.2,0.2,0.2,0.2
				l0,0v0.2c0,0,0,0.2-0.2,0.2c0,0-0.2,0.2-0.3,0.2c-0.2,0-0.2,0-0.3,0.2c-0.3,0-0.5,0-0.8-0.2c-0.2-0.2-0.2-0.2-0.3-0.3
				c0-0.2-0.2-0.3-0.2-0.3c-0.2-0.3-0.3-0.5-0.3-0.8c0-0.3,0-0.5,0-0.7c0-0.2,0-0.2,0-0.3c0-0.2,0-0.2,0-0.2
				C264.8,135.4,264.8,135.4,264.9,135.4C264.7,135.4,264.7,135.4,264.9,135.4L264.9,135.4z"/>
		</g>
		<g>
			<path fill="#4D4D4D" d="M269.5,142.2c0,0,0.2,0.3,0.5,0.7c0.3,0.3,0.7,0.8,1.2,1.4c0.2,0.2,0.5,0.3,0.7,0.7
				c0.2,0.2,0.3,0.5,0.3,0.7c0,0.3,0.2,0.5,0.2,0.7c0,0.2,0,0.3,0,0.3l0,0c0,0,0,0.2-0.2,0.2c0,0-0.5,0-1-0.3
				c-0.2-0.2-0.5-0.3-0.7-0.5c-0.2-0.3-0.3-0.7-0.3-0.8c-0.2-0.3-0.3-0.7-0.3-0.8c-0.2-0.3-0.2-0.5-0.3-0.8
				C269.3,142.7,269.3,142.4,269.5,142.2L269.5,142.2C269.3,142.4,269.3,142.2,269.5,142.2C269.3,142.2,269.5,142.2,269.5,142.2z"/>
		</g>
		<g>
			<path fill="#4D4D4D" d="M253.6,140.6C253.6,140.6,253.7,140.6,253.6,140.6c0.2,0.3,0.3,0.3,0.5,0.5c0.2,0.2,0.3,0.3,0.5,0.3
				c0.2,0.2,0.3,0.3,0.5,0.3c0.2,0.2,0.3,0.2,0.5,0.2s0.3,0.2,0.3,0.3c0.2,0.2,0.2,0.3,0.3,0.3c0.2,0.2,0.2,0.2,0.2,0.2l0,0v0.2
				c0,0,0,0.2-0.2,0.2c-0.2,0.2-0.3,0.2-0.5,0.3c-0.2,0.2-0.5,0-0.8-0.2c-0.3-0.2-0.3-0.3-0.7-0.7c-0.2-0.2-0.3-0.5-0.5-0.7
				c-0.2-0.3-0.2-0.5-0.2-0.7C253.5,140.9,253.5,140.8,253.6,140.6C253.4,140.6,253.4,140.6,253.6,140.6
				C253.4,140.6,253.6,140.5,253.6,140.6C253.6,140.5,253.6,140.5,253.6,140.6z"/>
		</g>
		<g>
			<path fill="#4D4D4D" d="M239.2,140.1c0,0,0.2,0.2,0.5,0.5s0.7,0.7,1,1c0.2,0.2,0.3,0.3,0.5,0.3c0.2,0.2,0.2,0.3,0.3,0.5
				c0.2,0.2,0.2,0.3,0.2,0.5c0,0.2,0,0.3,0,0.3l0,0l-0.2,0.2c0,0-0.5,0.2-0.8,0c-0.2-0.2-0.5-0.2-0.7-0.3c-0.2-0.2-0.2-0.5-0.3-0.8
				c-0.2-0.3-0.2-0.5-0.3-0.8c-0.1-0.3-0.2-0.5-0.2-0.7c-0.2-0.5-0.2-0.7-0.2-0.7l0,0C238.9,140.1,238.9,139.9,239.2,140.1
				C239.1,140.1,239.2,140.1,239.2,140.1z"/>
		</g>
		<g>
			<path fill="#4D4D4D" d="M239.9,151.7C239.9,151.7,240.1,151.7,239.9,151.7c0.2,0.3,0.3,0.3,0.5,0.5c0.2,0.2,0.3,0.3,0.5,0.5
				c0.2,0.2,0.3,0.3,0.5,0.5c0.2,0.2,0.5,0.3,0.7,0.5c0.2,0.2,0.3,0.3,0.3,0.5c0,0.2,0.2,0.2,0.2,0.3c0,0.2,0,0.2,0.2,0.3
				c0,0.2,0,0.3,0,0.3l0,0v0.2c0,0-0.3,0.2-1,0c-0.3,0-0.5-0.2-0.8-0.3c-0.2-0.2-0.2-0.3-0.3-0.3c0-0.2-0.2-0.3-0.2-0.5
				c-0.3-0.5-0.5-1.2-0.5-1.7c0-0.2,0-0.3,0-0.5C239.9,151.9,239.9,151.7,239.9,151.7S239.9,151.5,239.9,151.7
				C239.9,151.5,239.9,151.5,239.9,151.7z"/>
		</g>
		<g>
			<path fill="#4D4D4D" d="M228.9,155.9c0,0,0,0.2,0.2,0.3c0.2,0.2,0.2,0.3,0.3,0.7c0.2,0.3,0.3,0.5,0.5,0.8c0.2,0.3,0.5,0.7,0.7,1
				c0.3,0.3,0.5,0.5,0.8,0.8c0.3,0.3,0.3,0.5,0.5,0.8c0,0.2,0.2,0.3,0.2,0.3c0,0.2,0.2,0.3,0.2,0.3c0,0.2,0.2,0.3,0.2,0.3l0,0v0.2
				l0,0c0,0-0.2,0-0.3,0c-0.2,0-0.5-0.2-0.8-0.3c-0.3-0.2-0.7-0.3-1-0.7c-0.2-0.2-0.3-0.3-0.3-0.5c-0.2-0.2-0.2-0.3-0.3-0.7
				c-0.3-0.8-0.7-1.7-0.8-2.4C229,156.5,228.8,156.1,228.9,155.9C228.7,155.9,228.7,155.9,228.9,155.9
				C228.7,155.8,228.7,155.8,228.9,155.9C228.7,155.9,228.7,155.9,228.9,155.9z"/>
		</g>
		<g>
			<path fill="#4D4D4D" d="M249.3,147.3L249.3,147.3c0.2,0.3,0.3,0.3,0.3,0.5c0.2,0.2,0.3,0.3,0.3,0.3c0.2,0.2,0.3,0.3,0.5,0.3
				c0.2,0.2,0.3,0.2,0.5,0.2c0.2,0.2,0.2,0.2,0.3,0.3l0.2,0.2l0.2,0.2c0.2,0.2,0.2,0.2,0.2,0.2v0.2c0,0,0,0.2-0.2,0.2
				c-0.2,0.2-0.3,0.2-0.5,0.2c-0.2,0-0.5,0-0.8-0.2c-0.3-0.2-0.3-0.5-0.5-0.7c-0.2-0.3-0.3-0.5-0.3-0.8s-0.2-0.5-0.2-0.7
				S249.3,147.4,249.3,147.3C249.3,147,249.1,147.3,249.3,147.3C249.1,147.3,249.1,147.3,249.3,147.3
				C249.1,147.3,249.3,147.3,249.3,147.3z"/>
		</g>
		<g>
			<path fill="#4D4D4D" d="M259,151.2c0,0,0.2,0.2,0.3,0.3c0.2,0.2,0.5,0.3,0.8,0.7c0.2,0.2,0.3,0.2,0.5,0.3
				c0.2,0.2,0.2,0.3,0.2,0.5c0,0.2,0,0.3,0,0.5c0,0.2,0,0.3,0,0.3l0,0c0,0,0,0.2-0.2,0.2c0,0-0.3,0.2-0.8,0c-0.2,0-0.3-0.2-0.5-0.3
				c-0.2-0.2-0.2-0.3-0.3-0.7c-0.2-0.2-0.2-0.3-0.2-0.7c0-0.2,0-0.3,0-0.5C258.8,151.5,259,151.2,259,151.2L259,151.2
				C259,151.4,259,151.2,259,151.2L259,151.2z"/>
		</g>
		<g>
			<path fill="#4D4D4D" d="M265.1,144.4v0.2c0,0.2,0,0.3,0,0.5c0,0.2,0.2,0.5,0.2,0.7c0.2,0.3,0.2,0.5,0.3,0.8
				c0.2,0.3,0.3,0.5,0.5,0.7c0.2,0.2,0.2,0.3,0.2,0.7c0,0.2,0,0.2,0,0.3c0,0.2,0.2,0.2,0.2,0.3c0,0.1,0.2,0.3,0.2,0.3l0,0l-0.2,0.2
				c0,0-0.2,0-0.3,0c-0.2,0-0.5,0-0.7-0.2c-0.2-0.2-0.5-0.3-0.7-0.7c-0.2-0.2-0.2-0.3-0.2-0.5s0-0.3,0-0.5c0-0.3,0-0.7,0-1
				s0.2-0.7,0.2-0.8C264.7,144.8,264.7,144.6,265.1,144.4c-0.2-0.2,0-0.2,0-0.2s0,0,0.2,0C265.1,144.4,265.1,144.4,265.1,144.4z"/>
		</g>
		<g>
			<path fill="#4D4D4D" d="M252.5,156.1c0,0,0,0,0,0.2c0,0.2,0,0.3,0.2,0.5c0,0.2,0.2,0.3,0.3,0.5c0.2,0.2,0.2,0.3,0.3,0.5
				c0.2,0.2,0.3,0.3,0.5,0.5c0.2,0.2,0.2,0.3,0.2,0.5c0,0.2,0,0.2,0,0.3c0,0.2,0,0.2,0,0.3s0,0.3,0,0.3v0.2c0,0-0.2,0-0.3,0.2
				c-0.2,0-0.2,0-0.3,0c-0.2,0-0.3,0-0.3,0c-0.3-0.2-0.5-0.3-0.7-0.5c-0.2-0.3-0.2-0.7-0.3-0.8c0-0.3-0.2-0.7-0.2-0.8
				c0-0.2,0-0.5,0.2-0.7c0.2-0.2,0.2-0.3,0.2-0.5C252.4,156.3,252.4,156.1,252.5,156.1C252.4,156.1,252.5,156.1,252.5,156.1
				C252.5,155.9,252.5,156.1,252.5,156.1z"/>
		</g>
		<g>
			<path fill="#4D4D4D" d="M267.8,157.1c0,0,0.2,0.2,0.5,0.3c0.2,0.2,0.3,0.2,0.5,0.3c0.2,0.2,0.3,0.3,0.5,0.3
				c0.2,0.2,0.3,0.2,0.5,0.3c0.2,0.2,0.2,0.3,0.2,0.5c0,0.2,0,0.3,0,0.5c0,0.2,0,0.3,0,0.3s0,0.2-0.2,0.2c0,0-0.2,0-0.3,0
				c-0.1,0-0.3,0-0.5,0s-0.3-0.2-0.5-0.3c-0.2-0.2-0.2-0.3-0.3-0.5c-0.2-0.2-0.2-0.3-0.3-0.5c-0.2-0.2-0.2-0.3-0.2-0.5
				C267.8,157.5,267.6,157.3,267.8,157.1C267.6,157.1,267.6,157.1,267.8,157.1L267.8,157.1z"/>
		</g>
		<g>
			<path fill="#4D4D4D" d="M273.4,155.3L273.4,155.3c0.3,0.3,0.3,0.3,0.5,0.5c0.2,0.2,0.3,0.3,0.5,0.5c0.2,0.2,0.5,0.3,0.7,0.5
				c0.3,0.2,0.5,0.2,0.7,0.3c0.2,0.2,0.3,0.3,0.5,0.5c0,0.2,0.2,0.2,0.2,0.3c0,0.2,0.2,0.2,0.2,0.3c0.2,0.2,0.2,0.3,0.2,0.3l0,0v0.2
				c0,0-0.2,0-0.3,0.2c-0.2,0-0.3,0.2-0.7,0.2s-0.7-0.2-0.8-0.3c-0.2-0.2-0.3-0.2-0.3-0.3c-0.2-0.2-0.2-0.3-0.3-0.3
				c-0.3-0.5-0.7-1.2-0.8-1.7c-0.2-0.3-0.2-0.3-0.2-0.5c0-0.2,0-0.2,0-0.2C273.4,155.4,273.4,155.4,273.4,155.3L273.4,155.3z"/>
		</g>
	</g>
</g>
</svg>
