<?xml version="1.0" encoding="utf-8"?>
<!-- Generator: Adobe Illustrator 18.0.0, SVG Export Plug-In . SVG Version: 6.00 Build 0)  -->
<!DOCTYPE svg PUBLIC "-//W3C//DTD SVG 1.1//EN" "http://www.w3.org/Graphics/SVG/1.1/DTD/svg11.dtd">
<svg version="1.1" id="Layer_1" xmlns="http://www.w3.org/2000/svg" xmlns:xlink="http://www.w3.org/1999/xlink" x="0px" y="0px"
	 viewBox="80 85.6 39.8 28.9" enable-background="new 80 85.6 39.8 28.9" xml:space="preserve">
<g>
	<g>
		<path fill="#C43939" d="M99.8,113.9c-10.4,0-19.2-3.2-19.2-7.1V94.4h38.4v12.4C119.1,110.6,110.2,113.9,99.8,113.9z"/>
		<path fill="#4D4D4D" d="M118.4,95v11.8c0,1.5-1.9,3.1-5,4.3c-3.6,1.4-8.4,2.2-13.6,2.2s-10-0.8-13.6-2.2c-3.1-1.2-5-2.8-5-4.3V95
			H118.4 M119.7,93.8H80v13.1c0,4.2,8.8,7.7,19.8,7.7s19.8-3.4,19.8-7.7V93.8L119.7,93.8z"/>
	</g>
	<path opacity="0.22" fill="#4D4D4D" enable-background="new    " d="M105.8,114.2c8.1-1,13.9-3.9,13.9-7.4V93.8h-13.8"/>
	<g>
		<path fill="#C14646" d="M99.9,100.3c-11.5,0-19.3-3.7-19.3-7.1c0-3.4,7.8-7.1,19.3-7.1s19.2,3.7,19.2,7.1
			C119.2,96.7,111.4,100.3,99.9,100.3z"/>
		<path fill="#4D4D4D" d="M99.9,86.8c5.2,0,10,0.8,13.6,2.2c3.2,1.2,5,2.8,5,4.3s-1.9,3.1-5,4.3c-3.6,1.4-8.4,2.2-13.6,2.2
			s-10-0.8-13.6-2.2c-3.2-1.2-5-2.8-5-4.3s1.9-3.1,5-4.3C89.9,87.6,94.8,86.8,99.9,86.8 M99.9,85.6c-11,0-19.9,3.4-19.9,7.7
			S89,101,99.9,101s19.9-3.4,19.9-7.7S110.9,85.6,99.9,85.6L99.9,85.6z"/>
	</g>
	<g opacity="0.35">
		<path fill="#F2F2F2" d="M107.9,88.9c0.3,0.1,0.6,0.1,0.8,0.1c0.6,0.2,1.1,0.4,1.3,1.1c0.1,0.2,0.2,0.3,0.3,0.5
			c0,0.1,0,0.2-0.1,0.2c-0.5,0-1,0-1.5,0c-0.1,0-0.2,0-0.2-0.1c-0.1-0.3-0.2-0.5-0.3-0.8c-0.1-0.2-0.4-0.4-0.6-0.3
			c-0.1,0-0.1,0.1-0.1,0.2c0.1,0.5,0.4,0.9,0.8,1.1c0.7,0.3,1.4,0.7,2.1,1.1c0.4,0.2,0.8,0.5,1.2,0.9c0.2,0.2,0.3,0.4,0.4,0.7
			c0.2,0.3,0.4,0.7,0.5,1c0.1,0.2,0.1,0.4,0.1,0.7c-0.1,0.3-0.3,0.5-0.6,0.6c-0.7,0.2-1.4,0.3-2.1,0.2c-0.5,0-1-0.1-1.4-0.3
			c-0.4-0.2-0.8-0.4-1.2-0.8c-0.2-0.2-0.3-0.5-0.4-0.7c-0.2-0.5-0.2-1-0.4-1.4c-0.1-0.2,0-0.2,0.2-0.2c0.5,0,1.1,0,1.6,0
			c0.2,0,0.2,0.1,0.2,0.2c0.2,0.5,0.3,1,0.5,1.4c0.2,0.5,0.5,0.5,0.9,0.5c0.2,0,0.2-0.2,0.2-0.3c-0.1-0.4-0.3-0.8-0.5-1.1
			c-0.1-0.2-0.2-0.3-0.4-0.4c-0.6-0.4-1.3-0.8-1.9-1.1c-0.4-0.2-0.8-0.4-1.1-0.8c-0.1-0.1-0.2-0.3-0.3-0.4c-0.1-0.3-0.2-0.7-0.2-1
			c0-0.2,0.1-0.3,0.2-0.4c0.3-0.2,0.7-0.2,1.1-0.3c0.1,0,0.2,0,0.2,0C107.4,88.9,107.7,88.9,107.9,88.9z"/>
		<path fill="#F2F2F2" d="M103.2,88.9c0.3,0.1,0.6,0.1,0.8,0.2c0.3,0.1,0.7,0.2,0.8,0.6c0.2,0.3,0.2,0.7,0.3,1.1
			c0,0.1,0,0.1-0.1,0.1c-0.5,0-1,0-1.6,0c-0.1,0-0.1-0.1-0.2-0.2c0-0.2-0.1-0.5-0.1-0.7c0-0.3-0.2-0.5-0.6-0.4
			c-0.1,0-0.1,0.1-0.1,0.2c0,0.4,0.1,0.8,0.5,1.1c0.6,0.3,1.1,0.7,1.7,1c0.4,0.2,0.8,0.5,1,0.8c0.1,0.1,0.2,0.2,0.2,0.3
			c0.1,0.5,0.3,1,0.4,1.6c0,0.5-0.2,0.9-0.6,1.1c-0.4,0.2-0.9,0.2-1.4,0.3c-0.6,0.1-1.2,0-1.8-0.1c-0.6-0.1-1.2-0.3-1.6-0.8
			c-0.2-0.2-0.2-0.5-0.2-0.8c0-0.5,0-1,0-1.5c0-0.2,0.1-0.2,0.2-0.2c0.5,0,1.1,0,1.6,0c0.2,0,0.2,0.1,0.2,0.2c0,0.5,0.2,1,0.2,1.6
			c0,0.2,0.1,0.2,0.2,0.3c0.1,0,0.2,0,0.3,0c0.3,0,0.5-0.1,0.4-0.5c0-0.2-0.1-0.4-0.1-0.7c0-0.4-0.2-0.6-0.6-0.8
			c-0.4-0.3-0.9-0.6-1.3-0.9c-0.3-0.2-0.6-0.4-0.9-0.7c-0.2-0.2-0.3-0.4-0.3-0.7c0-0.2,0-0.4,0-0.6c0-0.5,0.2-0.8,0.7-0.9
			c0.3-0.1,0.6-0.1,0.9-0.1c0.1,0,0.1,0,0.2,0C102.8,88.9,103,88.9,103.2,88.9z"/>
		<path fill="#F2F2F2" d="M92.9,91.6c0.2,0.1,0.4,0.2,0.6,0.3c0.3,0.2,0.4,0.3,0.3,0.7c-0.1,0.4-0.2,0.8-0.3,1.1
			c-0.1,0.2-0.2,0.5-0.2,0.7c-0.2,0.4-0.5,0.7-0.8,0.9c-0.5,0.3-1.1,0.6-1.7,0.6c-0.3,0-0.6,0.1-0.9,0.1c-0.9,0-1.9,0-2.8,0
			c-0.1,0-0.2,0-0.2-0.1c0-0.1,0.1-0.1,0.1-0.2c0.2-0.3,0.4-0.7,0.5-1c0.3-0.5,0.6-1.1,0.9-1.6c0.2-0.2,0.3-0.5,0.4-0.7
			c0.3-0.6,0.6-1.1,0.9-1.7c0.3-0.5,0.6-1.1,0.9-1.7c0.1-0.1,0.1-0.1,0.2-0.1c0.9,0,1.7,0,2.6,0c0.4,0,0.8,0.1,1,0.4
			c0.1,0.2,0.1,0.3,0.1,0.5c-0.1,0.2-0.1,0.4-0.2,0.6c-0.1,0.5-0.4,0.7-0.9,0.9C93.3,91.5,93.1,91.5,92.9,91.6z M90.3,94.8
			c0.2,0,0.5-0.1,0.6-0.3c0.1-0.2,0.2-0.3,0.2-0.5c0.1-0.2,0.1-0.3,0.2-0.5c0.2-0.4,0.3-0.8,0.5-1.2c0.1-0.1,0.1-0.2-0.1-0.3
			c-0.3-0.1-0.4-0.1-0.5,0.1c-0.1,0.3-0.3,0.7-0.4,1c-0.2,0.5-0.4,1-0.7,1.4C90,94.8,90,94.8,90.3,94.8z M91.8,91.2
			c0.3,0,0.5-0.1,0.6-0.3c0.2-0.3,0.2-0.7,0.5-1.1c0-0.1,0-0.1,0-0.2c-0.2-0.2-0.5-0.1-0.6,0.1c-0.2,0.4-0.4,0.8-0.6,1.2
			C91.6,91.2,91.6,91.2,91.8,91.2z"/>
		<path fill="#F2F2F2" d="M99.1,95.9c-0.3,0-0.7,0-1,0c-0.2,0-0.3-0.1-0.3-0.3c0-0.6-0.1-1.2-0.1-1.9c0-0.2-0.1-0.2-0.2-0.2
			c-0.2,0-0.5,0-0.7,0c-0.1,0-0.2,0.1-0.2,0.2c-0.1,0.4-0.3,0.8-0.4,1.2c-0.1,0.3-0.2,0.6-0.3,0.9c0,0.1-0.1,0.2-0.2,0.2
			c-0.7,0-1.4,0-2.1,0c-0.2,0-0.2-0.1-0.1-0.2c0.3-0.6,0.6-1.3,1-1.9c0.2-0.4,0.3-0.8,0.5-1.1c0.3-0.6,0.6-1.2,0.9-1.8
			c0.2-0.3,0.3-0.6,0.4-0.9c0.2-0.3,0.3-0.6,0.4-0.9c0-0.1,0.1-0.2,0.2-0.2c0.7,0,1.3,0,2,0c0.2,0,0.2,0.1,0.2,0.2
			c0,0.3,0.1,0.6,0.2,0.9c0.2,0.7,0.2,1.4,0.4,2.1c0.2,0.6,0.2,1.2,0.4,1.9c0.1,0.5,0.2,1.1,0.3,1.6c0,0.2,0,0.3-0.2,0.3
			C99.8,95.9,99.5,95.9,99.1,95.9z M97.6,90.6c0,0.1-0.1,0.2-0.1,0.3c-0.1,0.4-0.2,0.8-0.4,1.2c-0.2,0.5-0.2,0.5,0.3,0.5
			c0.2,0,0.2-0.1,0.2-0.2c0-0.5,0-1,0-1.5C97.7,90.8,97.7,90.7,97.6,90.6z"/>
	</g>
</g>
</svg>
