<?xml version="1.0" encoding="utf-8"?>
<!-- Generator: Adobe Illustrator 18.1.1, SVG Export Plug-In . SVG Version: 6.00 Build 0)  -->
<!DOCTYPE svg PUBLIC "-//W3C//DTD SVG 1.1//EN" "http://www.w3.org/Graphics/SVG/1.1/DTD/svg11.dtd">
<svg version="1.1" id="Layer_1" xmlns="http://www.w3.org/2000/svg" xmlns:xlink="http://www.w3.org/1999/xlink" x="0px" y="0px"
	 viewBox="0 0 640 480" enable-background="new 0 0 640 480" xml:space="preserve">
<g>
	<g>
		<polygon opacity="0.41" fill="#4D4D4D" points="428.1,491.6 251.7,275.7 357.9,169.5 854.6,491.6 		"/>
		<g>
			<ellipse fill="#C43939" cx="310.5" cy="227.6" rx="75" ry="75.1"/>
			<path fill="#4D4D4D" d="M310.5,152.5c0,0,0.5,0,1.4,0c0.9,0,2.2,0,3.9,0.2c3.4,0.2,8.5,0.8,14.7,2.5c3.1,0.8,6.5,2,10.1,3.5
				c3.6,1.5,7.3,3.5,11.1,5.9c7.6,4.9,15.2,11.8,21.6,21c3.1,4.6,5.9,9.7,8.1,15.3c2.2,5.6,3.7,11.7,4.6,18c0.2,1.6,0.3,3.2,0.5,4.8
				c0,1.6,0.2,3.2,0.1,4.9c0,0.8,0,1.6,0,2.4c0,0.8-0.1,1.7-0.1,2.5c-0.1,1.7-0.3,3.3-0.5,5c-0.5,3.3-1.1,6.7-2,10
				c-0.4,1.7-1,3.3-1.5,5c-0.3,0.8-0.6,1.6-0.9,2.5l-0.5,1.2l-0.5,1.2c-2.8,6.5-6.5,12.7-11.1,18.3c-4.6,5.6-10.1,10.6-16.3,14.8
				c-12.3,8.4-27.4,13-42.5,13c-15.1,0-30.2-4.6-42.5-13c-3.1-2.1-6-4.4-8.7-6.9c-2.7-2.5-5.3-5.1-7.6-7.9
				c-4.6-5.6-8.3-11.8-11.1-18.3l-0.5-1.2l-0.5-1.2c-0.3-0.8-0.6-1.6-0.9-2.5c-0.5-1.7-1.1-3.3-1.5-5c-0.9-3.3-1.6-6.7-2-10
				c-0.2-1.7-0.4-3.3-0.5-5c0-0.8-0.1-1.7-0.1-2.5c0-0.8,0-1.7,0-2.5l0-1.3l0-1.2c0-0.8,0.1-1.6,0.1-2.4c0.1-1.6,0.2-3.3,0.5-4.8
				c0.8-6.4,2.4-12.4,4.6-18c2.2-5.6,5-10.7,8.1-15.3c6.3-9.2,14-16.1,21.6-21c3.8-2.4,7.5-4.4,11.1-5.9c3.6-1.5,6.9-2.7,10.1-3.5
				c6.2-1.7,11.3-2.3,14.7-2.5c1.7-0.2,3-0.1,3.9-0.2C310.1,152.5,310.5,152.5,310.5,152.5z M310.5,152.5c0,0-0.5,0-1.4,0
				c-0.9,0-2.2,0-3.9,0.2c-3.4,0.2-8.5,0.8-14.7,2.6c-6.2,1.7-13.6,4.6-21,9.7c-7.4,5-15,12-21,21.2c-3,4.6-5.6,9.7-7.6,15.3
				c-2,5.5-3.4,11.5-4,17.8c-0.2,1.6-0.2,3.1-0.3,4.7c0,0.8,0,1.6,0,2.4l0,1.2l0,1.2c0,0.8,0.1,1.6,0.1,2.4c0,0.8,0.1,1.6,0.2,2.4
				c0.1,1.6,0.4,3.2,0.6,4.9c0.5,3.2,1.2,6.5,2.2,9.7c0.4,1.6,1,3.2,1.6,4.8c0.3,0.8,0.6,1.6,0.9,2.3l0.5,1.2l0.5,1.2
				c5.6,12.3,15,23.4,26.8,31.2c5.9,3.9,12.4,6.9,19.3,9c3.4,1,6.9,1.8,10.5,2.3c1.8,0.2,3.6,0.5,5.3,0.6c1.7,0.2,3.7,0.1,5.4,0.2
				c3.6,0,7.2-0.2,10.7-0.8c3.5-0.6,7.1-1.3,10.5-2.3c6.8-2.1,13.4-5.1,19.3-9c11.9-7.8,21.2-18.8,26.8-31.2l0.5-1.2l0.5-1.2
				c0.3-0.8,0.6-1.6,0.9-2.3c0.5-1.6,1.2-3.2,1.6-4.8c1-3.2,1.7-6.4,2.2-9.7c0.2-1.6,0.5-3.2,0.6-4.8c0.1-0.8,0.2-1.6,0.2-2.4
				c0-0.8,0.1-1.6,0.1-2.4c0.1-1.6,0-3.2,0-4.8c-0.1-1.6-0.2-3.2-0.3-4.7c-0.7-6.2-2-12.2-4-17.8c-2-5.6-4.6-10.7-7.6-15.3
				c-6-9.2-13.6-16.2-21-21.2c-7.4-5-14.8-7.9-21-9.6c-6.2-1.7-11.3-2.3-14.7-2.6c-1.7-0.2-3-0.1-3.9-0.2
				C311,152.5,310.5,152.5,310.5,152.5z"/>
		</g>
	</g>
	
		<text transform="matrix(1 0 0 1 256.9121 251.2109)" opacity="0.41" fill="#FFAEB8" font-family="'Haettenschweiler'" font-size="67.0635">BASS</text>
</g>
</svg>
