<?xml version="1.0" encoding="utf-8"?>
<!-- Generator: Adobe Illustrator 18.1.1, SVG Export Plug-In . SVG Version: 6.00 Build 0)  -->
<!DOCTYPE svg PUBLIC "-//W3C//DTD SVG 1.1//EN" "http://www.w3.org/Graphics/SVG/1.1/DTD/svg11.dtd">
<svg version="1.1" id="Layer_1" xmlns="http://www.w3.org/2000/svg" xmlns:xlink="http://www.w3.org/1999/xlink" x="0px" y="0px"
	 viewBox="0 0 640 480" enable-background="new 0 0 640 480" xml:space="preserve">
<g>
	<g>
		<path fill="#C43939" d="M319.5,284.4c-33.3,0-61.5-10.3-61.5-22.6V222h123v39.8C381,274,352.8,284.4,319.5,284.4z"/>
		<path fill="#4D4D4D" d="M379,224v37.8c0,4.7-6,9.8-16,13.7c-11.5,4.5-27,6.9-43.5,6.9s-32-2.5-43.5-6.9c-10-3.9-16-9-16-13.7V224
			H379 M383,220H256v41.8c0,13.6,28.3,24.6,63.5,24.6s63.5-11,63.5-24.6V220L383,220z"/>
	</g>
	<path opacity="0.22" fill="#4D4D4D" d="M338.4,285.5c25.9-3.1,44.6-12.6,44.6-23.7V220h-44"/>
	<g>
		<path fill="#C14646" d="M319.8,241.1c-36.8,0-61.6-11.7-61.6-22.6s24.8-22.6,61.6-22.6s61.6,11.7,61.6,22.6
			S356.6,241.1,319.8,241.1z"/>
		<path fill="#4D4D4D" d="M319.8,197.9c16.5,0,32,2.5,43.5,6.9c10.1,3.9,16.1,9,16.1,13.7s-6,9.8-16.1,13.7
			c-11.6,4.5-27,6.9-43.5,6.9s-32-2.5-43.5-6.9c-10.1-3.9-16.1-9-16.1-13.7s6-9.8,16.1-13.7C287.8,200.4,303.3,197.9,319.8,197.9
			 M319.8,193.9c-35.1,0-63.6,11-63.6,24.6s28.5,24.6,63.6,24.6s63.6-11,63.6-24.6S354.9,193.9,319.8,193.9L319.8,193.9z"/>
	</g>
	<g opacity="0.35">
		<path fill="#F2F2F2" d="M345.2,204.5c0.9,0.2,1.8,0.2,2.7,0.4c2,0.5,3.6,1.4,4.3,3.4c0.2,0.6,0.7,1.1,0.9,1.7
			c0.1,0.4,0.1,0.5-0.3,0.5c-1.6,0-3.2,0-4.8,0c-0.3,0-0.5-0.1-0.6-0.4c-0.4-0.9-0.7-1.7-1.1-2.6c-0.3-0.8-1.2-1.2-2-0.9
			c-0.2,0.1-0.4,0.3-0.3,0.5c0.4,1.6,1.2,2.8,2.7,3.6c2.3,1.1,4.6,2.3,6.8,3.6c1.4,0.8,2.7,1.7,3.8,2.8c0.6,0.6,0.9,1.4,1.2,2.1
			c0.6,1.1,1.2,2.1,1.6,3.3c0.3,0.7,0.3,1.4,0.2,2.2c-0.2,1.1-1,1.5-1.9,1.8c-2.2,0.7-4.5,0.9-6.8,0.7c-1.6-0.1-3.1-0.4-4.6-0.9
			c-1.4-0.5-2.7-1.3-3.8-2.4c-0.6-0.7-0.9-1.6-1.2-2.4c-0.5-1.5-0.8-3.1-1.3-4.6c-0.2-0.6-0.1-0.7,0.5-0.7c1.7,0,3.4,0,5.2,0
			c0.5,0,0.7,0.2,0.8,0.6c0.5,1.5,1.1,3.1,1.7,4.6c0.6,1.5,1.6,1.7,2.8,1.5c0.5-0.1,0.7-0.5,0.5-0.9c-0.4-1.2-1-2.4-1.5-3.6
			c-0.2-0.6-0.8-1-1.3-1.3c-2-1.2-4.1-2.4-6.2-3.6c-1.2-0.7-2.5-1.4-3.6-2.4c-0.4-0.4-0.7-0.9-0.9-1.4c-0.4-1-0.7-2.1-0.7-3.1
			c0-0.5,0.2-0.9,0.7-1.2c1-0.7,2.2-0.8,3.4-0.9c0.2,0,0.5,0,0.7-0.1C343.7,204.5,344.5,204.5,345.2,204.5z"/>
		<path fill="#F2F2F2" d="M330.4,204.5c0.9,0.2,1.8,0.2,2.7,0.5c1.1,0.4,2.3,0.7,2.7,1.8c0.5,1.1,0.8,2.3,1,3.4
			c0.1,0.3-0.1,0.4-0.3,0.4c-1.7,0-3.3,0-5,0c-0.3,0-0.4-0.2-0.5-0.5c-0.1-0.7-0.2-1.5-0.3-2.2c-0.1-1-0.8-1.5-1.8-1.2
			c-0.3,0.1-0.4,0.3-0.4,0.6c0,1.4,0.3,2.6,1.7,3.4c1.8,1,3.5,2.1,5.3,3.2c1.2,0.8,2.4,1.6,3.3,2.7c0.2,0.3,0.5,0.6,0.6,1
			c0.3,1.7,1,3.3,1.2,5c0.1,1.5-0.5,2.8-1.8,3.5c-1.4,0.7-2.9,0.8-4.4,1c-1.9,0.2-3.8,0.1-5.7-0.2c-1.9-0.3-3.7-1-5-2.6
			c-0.6-0.8-0.8-1.7-0.8-2.6c0-1.6,0-3.2,0-4.8c0-0.5,0.2-0.7,0.6-0.6c1.7,0,3.4,0,5.1,0c0.5,0,0.6,0.2,0.6,0.7c0,1.7,0.5,3.3,0.6,5
			c0,0.5,0.4,0.8,0.8,1c0.3,0.1,0.6,0.1,0.9,0.1c1.1,0,1.5-0.4,1.3-1.5c-0.1-0.7-0.2-1.4-0.3-2.1c-0.1-1.3-0.8-2-1.8-2.7
			c-1.4-0.9-2.8-1.9-4.2-2.8c-1-0.7-2-1.3-2.9-2.1c-0.6-0.6-1-1.2-1.1-2.1c0-0.6,0-1.2,0-1.9c0-1.6,0.6-2.4,2.2-2.8
			c0.9-0.3,1.8-0.4,2.8-0.4c0.2,0,0.3,0,0.5-0.1C328.8,204.5,329.6,204.5,330.4,204.5z"/>
		<path fill="#F2F2F2" d="M297.4,213.1c0.6,0.4,1.2,0.5,1.8,0.8c1,0.5,1.3,1,1.1,2.1c-0.2,1.2-0.6,2.4-1,3.6
			c-0.3,0.8-0.5,1.6-0.8,2.3c-0.5,1.3-1.5,2.3-2.6,3c-1.6,1.1-3.4,1.8-5.3,2c-0.9,0.1-1.8,0.2-2.8,0.2c-3,0-6,0-8.9,0
			c-0.2,0-0.5,0.1-0.6-0.2c-0.1-0.2,0.2-0.4,0.3-0.5c0.5-1.1,1.2-2.1,1.7-3.1c1-1.7,1.8-3.4,2.8-5.1c0.5-0.7,0.9-1.5,1.3-2.3
			c1-1.8,1.9-3.6,2.9-5.4c1-1.7,1.9-3.6,3-5.3c0.2-0.2,0.3-0.3,0.6-0.3c2.8,0,5.5-0.1,8.3,0c1.2,0,2.4,0.3,3.3,1.3
			c0.4,0.5,0.4,1.1,0.2,1.7c-0.2,0.6-0.4,1.2-0.5,1.8c-0.3,1.6-1.4,2.4-2.8,2.9C298.7,212.7,298,212.9,297.4,213.1z M289,223.2
			c0.8,0,1.5-0.3,1.9-1c0.3-0.5,0.6-1,0.8-1.6c0.2-0.6,0.4-1.1,0.7-1.7c0.5-1.2,1.1-2.4,1.6-3.7c0.2-0.4,0.3-0.8-0.3-1
			c-0.9-0.3-1.4-0.2-1.6,0.4c-0.4,1.1-1,2.1-1.4,3.1c-0.7,1.6-1.4,3.1-2.1,4.6C288.1,223.2,288.1,223.2,289,223.2z M293.6,211.9
			c0.9,0,1.5-0.3,2-1.1c0.6-1.1,0.8-2.3,1.5-3.4c0.1-0.2,0.1-0.3-0.1-0.5c-0.5-0.5-1.5-0.4-1.8,0.3c-0.6,1.3-1.2,2.7-1.9,4
			C293.1,211.8,293.2,211.9,293.6,211.9z"/>
		<path fill="#F2F2F2" d="M317.2,227c-1,0-2.1,0-3.1,0c-0.7,0-0.9-0.2-1-0.9c-0.1-2-0.3-4-0.3-6.1c0-0.5-0.2-0.7-0.7-0.7
			c-0.8,0-1.5,0-2.3,0c-0.4,0-0.7,0.2-0.8,0.6c-0.4,1.3-0.9,2.5-1.4,3.8c-0.4,0.9-0.7,1.9-1,2.8c-0.1,0.4-0.3,0.5-0.7,0.5
			c-2.3,0-4.5,0-6.8,0c-0.6,0-0.7-0.2-0.4-0.7c1-2,2-4.1,3.1-6.1c0.6-1.2,1.1-2.4,1.7-3.5c1-1.9,1.9-3.8,2.9-5.7
			c0.5-1,0.9-1.9,1.4-2.9c0.5-0.9,1-1.8,1.4-2.8c0.1-0.4,0.4-0.5,0.8-0.5c2.1,0,4.3,0,6.4,0c0.5,0,0.6,0.2,0.7,0.6
			c0.1,1,0.3,2,0.5,2.9c0.5,2.2,0.8,4.5,1.3,6.7c0.5,2,0.7,4,1.2,6c0.4,1.7,0.7,3.5,1,5.2c0.1,0.7,0,0.9-0.7,0.9
			C319.4,227,318.3,227,317.2,227z M312.4,210c-0.1,0.3-0.3,0.6-0.4,0.9c-0.4,1.3-0.7,2.5-1.2,3.7c-0.6,1.5-0.5,1.5,1,1.5
			c0.5,0,0.7-0.2,0.7-0.7c0-1.6,0-3.2,0-4.9C312.5,210.4,312.6,210.2,312.4,210z"/>
	</g>
</g>
</svg>
